<?xml version="1.0" encoding="utf-8"?>
<!-- Generator: Adobe Illustrator 21.0.0, SVG Export Plug-In . SVG Version: 6.00 Build 0)  -->
<svg version="1.1" id="Calque_1" xmlns="http://www.w3.org/2000/svg" xmlns:xlink="http://www.w3.org/1999/xlink" x="0px" y="0px"
	 viewBox="0 0 595.3 595.3" style="enable-background:new 0 0 595.3 595.3;" xml:space="preserve">
<style type="text/css">
	.st0{fill:url(#SVGID_1_);}
	.st1{fill:url(#SVGID_2_);}
	.st2{fill:#FFFFFF;}
	.st3{fill:#D3D3D3;}
</style>
<linearGradient id="SVGID_1_" gradientUnits="userSpaceOnUse" x1="0.73" y1="298.19" x2="595.32" y2="298.19">
	<stop  offset="0" style="stop-color:#A24399"/>
	<stop  offset="8.532339e-02" style="stop-color:#9E4D9E"/>
	<stop  offset="0.2414" style="stop-color:#9264AA"/>
	<stop  offset="0.4506" style="stop-color:#7B80BE"/>
	<stop  offset="0.6619" style="stop-color:#519ED6"/>
</linearGradient>
<path class="st0" d="M595.3,298.2c0,12.7-0.8,25.3-2.4,37.6c-16.4,130.3-117.2,234.4-246,255.7c-4.3,0.7-8.6,1.3-13,1.9
	c-10.9,1.3-22,2-33.3,2.1c-0.9,0-1.8,0-2.7,0c-6.5,0-12.9-0.2-19.2-0.6c-7-0.4-13.9-1.1-20.7-2.1c-3.6-0.5-7.2-1-10.8-1.7
	c-23.9-4.1-46.8-11-68.3-20.5c-7.9-3.4-15.6-7.2-23.1-11.3c-16.1-8.8-31.3-19-45.3-30.4C43.6,474.5,0.7,391.3,0.7,298.2
	C0.7,134,133.8,0.9,298,0.9C405.5,0.9,499.8,58,552,143.5c1.8,2.9,3.5,5.8,5.1,8.7c5,8.9,9.6,18.1,13.7,27.6c0.7,1.7,1.4,3.4,2.1,5
	c1.8,4.4,3.5,8.8,5.1,13.3c3.7,10.3,6.8,20.8,9.3,31.5c2.6,11,4.6,22.2,5.9,33.6c0.3,2.8,0.6,5.6,0.9,8.4
	C594.9,280.3,595.3,289.2,595.3,298.2z"/>
<linearGradient id="SVGID_2_" gradientUnits="userSpaceOnUse" x1="144.33" y1="368.91" x2="595.32" y2="368.91">
	<stop  offset="0" style="stop-color:#A24399"/>
	<stop  offset="0.1065" style="stop-color:#9C459A"/>
	<stop  offset="0.2696" style="stop-color:#8D4A9D"/>
	<stop  offset="0.468" style="stop-color:#7350A1"/>
	<stop  offset="0.5216" style="stop-color:#6A52A2"/>
	<stop  offset="0.6566" style="stop-color:#6A53A3"/>
	<stop  offset="0.7361" style="stop-color:#6958A6"/>
	<stop  offset="0.8013" style="stop-color:#6761AB"/>
	<stop  offset="0.8586" style="stop-color:#656CB2"/>
	<stop  offset="0.9109" style="stop-color:#6179BB"/>
	<stop  offset="0.9587" style="stop-color:#5B8BC8"/>
	<stop  offset="1" style="stop-color:#519ED6"/>
</linearGradient>
<path class="st1" d="M595.3,298.2c0,12.7-0.8,25.3-2.4,37.6c-16.4,130.3-117.2,234.4-246,255.7c-4.3,0.7-8.6,1.3-13,1.9
	c-10.9,1.3-22,2-33.3,2.1c-0.9,0-1.8,0-2.7,0c-6.5,0-12.9-0.2-19.2-0.6c-7-0.4-13.9-1.1-20.7-2.1c-3.6-0.5-7.2-1-10.8-1.7
	l-60.5-111.9l-5.2-9.6L149,220.3l-4.7-64.7l28.7,8.7l67.1,23.3l6.1,2.1l5.5,1.9l0.7-5.7l0.1-0.6l5.2-43L467,229l25.2,6.8l101.1,27.4
	c0.3,2.8,0.6,5.6,0.9,8.4C594.9,280.3,595.3,289.2,595.3,298.2z"/>
<path class="st2" d="M275.8,407.2l-1.4-0.2c-4-2.1-6.3-5.3-8.6-8.6l-77.1,55.5l-31.9-287.5l110.4,52.4l7.2-22.5L164,144
	c-2-1-14.1-5.9-23.8,1.1c-4.1,2.9-9.4,9.2-7.8,21.6l32.8,290.5c0.4,2.2,2.5,15.5,13.2,20.1c4.5,2.9,12.3,3.4,22.9-4.1l97.4-70.1
	C288.1,410.7,280.3,410.1,275.8,407.2z"/>
<path class="st2" d="M483.1,229.7L268.9,128.8c-2.8-0.5-14.1-5.9-23.8,1.1c-4.1,2.9-8.6,8.6-7.8,21.6l1.8,28.2l28,39l-6.9-67.7
	l211.7,99L437,275.2c2.9,3,4.8,6.8,5.4,10.9l0.6,0.8c1,11.6-9.6,19.2-11.2,20.4l55.2-39.7c1.6-1.2,12.2-8.8,11.2-20.4
	C496.9,242,493.9,234.3,483.1,229.7z"/>
<path class="st3" d="M445.4,285.2l-0.6-0.8l-0.3-2.2c-0.9-3-2.5-6.8-5-8.7l-9.7-6.6l-165.3-75.7l-0.2-0.1l-11.9-5.7l-12.5-6.1
	l-0.6,0.4l-0.2,0.2l1,7.8l2.5,19.3l0,0.2L261,388.3l4,10.7c2,4,5.2,7.3,9.2,9.4c5.4,2.3,13.1,2.9,22.9-4.1l1.5-1.1l133.5-96l1.4-1
	c0.2-0.1,0.3-0.2,0.5-0.4C437.1,303.5,446.3,296.1,445.4,285.2z M285.2,384.4l-18.1-165.6l152,69.2L285.2,384.4z"/>
</svg>
