<?xml version="1.0" encoding="utf-8"?>
<!-- Generator: Adobe Illustrator 21.0.0, SVG Export Plug-In . SVG Version: 6.00 Build 0)  -->
<svg version="1.1" id="Calque_1" xmlns="http://www.w3.org/2000/svg" xmlns:xlink="http://www.w3.org/1999/xlink" x="0px" y="0px"
	 viewBox="0 0 595.3 595.3" style="enable-background:new 0 0 595.3 595.3;" xml:space="preserve">
<style type="text/css">
	.st0{fill:url(#SVGID_1_);}
	.st1{fill:url(#SVGID_2_);}
	.st2{fill:#FFFFFF;}
</style>
<linearGradient id="SVGID_1_" gradientUnits="userSpaceOnUse" x1="0.73" y1="298.19" x2="595.32" y2="298.19">
	<stop  offset="0" style="stop-color:#A24399"/>
	<stop  offset="8.532339e-02" style="stop-color:#9E4D9E"/>
	<stop  offset="0.2414" style="stop-color:#9264AA"/>
	<stop  offset="0.4506" style="stop-color:#7B80BE"/>
	<stop  offset="0.6619" style="stop-color:#519ED6"/>
</linearGradient>
<path class="st0" d="M595.3,298.2c0,12.7-0.8,25.3-2.4,37.6c-14.3,113.4-92.5,206.9-197.3,243.3c-25.4,8.8-52.3,14.3-80.2,15.9
	c-5.7,0.3-11.5,0.5-17.4,0.5c-6.5,0-12.9-0.2-19.2-0.6c-7-0.4-13.9-1.1-20.7-2.1c-3.2-0.4-6.4-0.9-9.6-1.4
	c-33-5.5-64.2-16.5-92.5-32c-16.1-8.8-31.3-19-45.3-30.4C43.6,474.5,0.7,391.3,0.7,298.2C0.7,134,133.8,0.9,298,0.9
	C405.5,0.9,499.8,58,552,143.5c1.8,2.9,3.5,5.8,5.1,8.7c0.7,1.2,1.4,2.5,2.1,3.7c1.3,2.4,2.6,4.8,3.8,7.2
	c16.9,33,27.7,69.5,31.2,108.2c0,0.1,0,0.1,0,0.2C594.9,280.3,595.3,289.2,595.3,298.2z"/>
<linearGradient id="SVGID_2_" gradientUnits="userSpaceOnUse" x1="193.1" y1="341.835" x2="595.32" y2="341.835">
	<stop  offset="0" style="stop-color:#A24399"/>
	<stop  offset="0.1065" style="stop-color:#9C459A"/>
	<stop  offset="0.2696" style="stop-color:#8D4A9D"/>
	<stop  offset="0.468" style="stop-color:#7350A1"/>
	<stop  offset="0.5216" style="stop-color:#6A52A2"/>
	<stop  offset="0.6566" style="stop-color:#6A53A3"/>
	<stop  offset="0.7361" style="stop-color:#6958A6"/>
	<stop  offset="0.8013" style="stop-color:#6761AB"/>
	<stop  offset="0.8586" style="stop-color:#656CB2"/>
	<stop  offset="0.9109" style="stop-color:#6179BB"/>
	<stop  offset="0.9587" style="stop-color:#5B8BC8"/>
	<stop  offset="1" style="stop-color:#519ED6"/>
</linearGradient>
<path class="st1" d="M595.3,298.2c0,12.7-0.8,25.3-2.4,37.6c-14.3,113.4-92.5,206.9-197.3,243.3c-25.4,8.8-52.3,14.3-80.2,15.9
	L249,494.7l-55.9-57.1l130.5,33l66-70.5l48-138l-183-96l13.1-10.6l8.3-25.9L305.7,90l23.2-0.5l5.5-0.8l8.5,2.5l17.1,8.3l25.5,4.3
	l8.5,2.5l42.6,12.6l122.5,37.1c1.3,2.4,2.6,4.8,3.8,7.2c16.9,33,27.7,69.5,31.2,108.2c0,0.1,0,0.1,0,0.2
	C594.9,280.3,595.3,289.2,595.3,298.2z"/>
<path class="st2" d="M291.8,76.1l42.6,12.6l-5.3,17.8l-24.8-7.3l-5.3,17.8l24.8,7.3l-5.3,17.8L276,129.6L291.8,76.1z M342.9,91.2
	l42.6,12.6l-4.6,15.5l-24.8-7.3l-0.9,3.1l24.8,7.3L369.5,158l-42.6-12.6l4.8-16.3l24.8,7.3l0.9-3.1l-24.8-7.3L342.9,91.2L342.9,91.2
	z M394,106.3l42.6,12.6l-4.6,15.5l-24.8-7.3l-0.9,3.1l24.8,7.3l-10.5,35.6L378,160.5l4.8-16.3l24.8,7.3l0.9-3.1l-24.8-7.3L394,106.3
	L394,106.3z"/>
<path class="st2" d="M202.6,134.6l-59,294.4L249,494.7l0,0l124.5,2l110.2-279.3L202.6,134.6z M386.5,329.9l-3.6,9.2l-35.6,90.2
	l-2.3,5.8l-77.9-1.3l0,0l-0.2,0l-66.2-41.3l11.4-56.7l35.3,10.4l-5.8,28.8l36.1,22.1l0,0l0,0l42.4,1l17.5-44.4l-43.2-12.7l-0.1,0
	l-78.6-23.2l7.2-36.1l81.8,24.1l0.1,0l46.3,13.6l13.8-35.1l-134.5-39.7l7.2-36.1l176.2,52L386.5,329.9z"/>
</svg>
