<?xml version="1.0" encoding="utf-8"?>
<!-- Generator: Adobe Illustrator 21.0.0, SVG Export Plug-In . SVG Version: 6.00 Build 0)  -->
<svg version="1.1" id="Calque_1" xmlns="http://www.w3.org/2000/svg" xmlns:xlink="http://www.w3.org/1999/xlink" x="0px" y="0px"
	 viewBox="0 0 595.3 595.3" style="enable-background:new 0 0 595.3 595.3;" xml:space="preserve">
<style type="text/css">
	.st0{fill:url(#SVGID_1_);}
	.st1{fill:url(#SVGID_2_);}
	.st2{fill:#FFFFFF;}
</style>
<linearGradient id="SVGID_1_" gradientUnits="userSpaceOnUse" x1="0.73" y1="298.19" x2="595.32" y2="298.19">
	<stop  offset="0" style="stop-color:#A24399"/>
	<stop  offset="8.532339e-02" style="stop-color:#9E4D9E"/>
	<stop  offset="0.2414" style="stop-color:#9264AA"/>
	<stop  offset="0.4506" style="stop-color:#7B80BE"/>
	<stop  offset="0.6619" style="stop-color:#519ED6"/>
</linearGradient>
<path class="st0" d="M595.3,298.2c0,12.7-0.8,25.3-2.4,37.6c-14.3,113.4-92.5,206.9-197.3,243.3c-25.4,8.8-52.3,14.3-80.2,15.9
	c-5.7,0.3-11.5,0.5-17.4,0.5c-6.5,0-12.9-0.2-19.2-0.6c-4.7-0.3-9.3-0.7-13.9-1.2c-2.3-0.3-4.5-0.5-6.8-0.8
	c-3.2-0.4-6.4-0.9-9.6-1.4c-33-5.5-64.2-16.5-92.5-32c-16.1-8.8-31.3-19-45.3-30.4C43.6,474.5,0.7,391.3,0.7,298.2
	C0.7,134,133.8,0.9,298,0.9C405.5,0.9,499.8,58,552,143.5c1.8,2.9,3.5,5.8,5.1,8.7c0.7,1.2,1.4,2.5,2.1,3.7c1.3,2.4,2.6,4.8,3.8,7.2
	c3.4,6.7,6.6,13.5,9.5,20.5c11.5,27.4,18.9,56.9,21.7,87.7c0,0.1,0,0.1,0,0.2C594.9,280.3,595.3,289.2,595.3,298.2z"/>
<linearGradient id="SVGID_2_" gradientUnits="userSpaceOnUse" x1="149.78" y1="373.955" x2="595.32" y2="373.955">
	<stop  offset="0" style="stop-color:#A24399"/>
	<stop  offset="0.1065" style="stop-color:#9C459A"/>
	<stop  offset="0.2696" style="stop-color:#8D4A9D"/>
	<stop  offset="0.468" style="stop-color:#7350A1"/>
	<stop  offset="0.5216" style="stop-color:#6A52A2"/>
	<stop  offset="0.6566" style="stop-color:#6A53A3"/>
	<stop  offset="0.7361" style="stop-color:#6958A6"/>
	<stop  offset="0.8013" style="stop-color:#6761AB"/>
	<stop  offset="0.8586" style="stop-color:#656CB2"/>
	<stop  offset="0.9109" style="stop-color:#6179BB"/>
	<stop  offset="0.9587" style="stop-color:#5B8BC8"/>
	<stop  offset="1" style="stop-color:#519ED6"/>
</linearGradient>
<path class="st1" d="M595.3,298.2c0,12.7-0.8,25.3-2.4,37.6c-14.3,113.4-92.5,206.9-197.3,243.3c-25.4,8.8-52.3,14.3-80.2,15.9
	c-5.7,0.3-11.5,0.5-17.4,0.5c-6.5,0-12.9-0.2-19.2-0.6c-4.7-0.3-9.3-0.7-13.9-1.2L149.8,401.6l2.8-52.5l72-121.5l48-58.5l28.5-16.7
	l99.7,101.7c11.6-8,15-22.5,12.8-41.5l28.5-33.8l130.4,4.9c11.5,27.4,18.9,56.9,21.7,87.7c0,0.1,0,0.1,0,0.2
	C594.9,280.3,595.3,289.2,595.3,298.2z"/>
<path class="st2" d="M357.2,451l38,9c2.4,0.6,3.2-0.3,3.6-2.2l46.1-193.2c0.5-2.2-0.3-3.2-2.2-3.6l-38.5-9.2
	c-2.2-0.5-3.2,0.3-3.6,2.2l0.2,0.1l-46,193C354.3,449.1,354.8,450.5,357.2,451z"/>
<path class="st2" d="M301.1,152.4l-51.4-12.3c-1.2-0.3-2.1,0.3-2.5,2c-3.4,11.9-5,15.6-7.3,19.7L112.2,388.8
	c-1.2,2.8-0.9,3.7,1.6,4.3l36,8.6c2.4,0.6,3.3,0.3,4.3-1.6l36.9-68.9l78.4,18.7l2.5,78.5c0.1,1.8,1.2,2.6,3.1,3.1l40.7,9.7
	c2,0.5,2.7-0.6,2.7-2.7l-14.9-282.8C303.4,153.5,302.8,152.8,301.1,152.4z M210.4,293.9c19.3-35.5,43.9-80.9,55.8-108.3l0.5,0.1
	c-0.7,30.1,1.3,93.2,1.7,122.1L210.4,293.9z"/>
<path class="st2" d="M442.1,178.8c-14-3.3-27.2,3.4-30.9,19c-3.9,16.2,4.3,27.4,18.5,30.8c14.9,3.6,27.6-2.7,31.4-18.9
	C464.6,194.8,457,182.3,442.1,178.8z"/>
</svg>
