<?xml version="1.0" encoding="utf-8"?>
<!-- Generator: Adobe Illustrator 21.0.0, SVG Export Plug-In . SVG Version: 6.00 Build 0)  -->
<svg version="1.1" id="Calque_1" xmlns="http://www.w3.org/2000/svg" xmlns:xlink="http://www.w3.org/1999/xlink" x="0px" y="0px"
	 viewBox="0 0 706.5 511.5" style="enable-background:new 0 0 706.5 511.5;" xml:space="preserve">
<style type="text/css">
	.st0{fill:#B1B4C4;}
	.st1{fill:#E4E7F2;}
	.st2{fill:#D6D8E5;}
	.st3{fill:#1E212D;}
	.st4{opacity:0.5;fill:url(#SVGID_1_);enable-background:new    ;}
	.st5{opacity:0.4;fill:#D6D8E5;enable-background:new    ;}
	.st6{fill:#2B303F;}
	.st7{fill:#B91EBD;}
	.st8{fill:#2FA5FA;}
	.st9{fill:#5B43A1;}
	.st10{fill:#5B57A1;}
	.st11{fill:#B944BD;}
	.st12{fill:#B965BD;}
</style>
<g id="Calque_2">
	<path class="st0" d="M680.1,425.6l-150.7-87c-2.1-1.2-3.8-4.5-3.8-7.3V214.8c0-2.8,1.7-4.1,3.8-2.9l150.7,87
		c2.1,1.2,3.8,4.5,3.8,7.3v116.5C684,425.5,682.3,426.8,680.1,425.6z"/>
	<polygon class="st0" points="680.9,426.8 682.6,425.8 681.9,420.9 	"/>
	<path class="st0" d="M525.4,212.6l1.6-0.9l2.4,1.3c0,0-2.5,0.4-2.6,0.4C526.8,213.3,525.4,212.6,525.4,212.6z"/>
	<path class="st1" d="M678.8,426.4l-150.7-87c-2.1-1.2-3.8-4.5-3.8-7.3V215.5c0-2.8,1.7-4.1,3.8-2.9l150.7,87
		c2.1,1.2,3.8,4.5,3.8,7.3v116.5C682.6,426.3,680.9,427.6,678.8,426.4z"/>
	<path class="st2" d="M678.5,426.5l-150.7-87c-2.1-1.2-3.8-4.5-3.8-7.3V215.7c0-2.8,1.7-4.1,3.8-2.9l150.7,87
		c2.1,1.2,3.8,4.5,3.8,7.3v116.5C682.3,426.5,680.6,427.8,678.5,426.5z"/>
	<path class="st3" d="M680.3,419.5l-154.3-89.1l0.1-114.2c0-1.2,0.8-1.6,1.8-1.1l150.7,87c1.1,0.7,1.8,1.9,1.8,3.2L680.3,419.5z"/>
	
		<linearGradient id="SVGID_1_" gradientUnits="userSpaceOnUse" x1="212.7708" y1="-1451.5294" x2="212.7708" y2="-1350.7725" gradientTransform="matrix(0.87 0.5 0 -1.15 417.9717 -1407.5308)">
		<stop  offset="0.21" style="stop-color:#FFFFFF;stop-opacity:0"/>
		<stop  offset="1" style="stop-color:#FFFFFF;stop-opacity:0.2"/>
	</linearGradient>
	<path class="st4" d="M680.2,419.5l-154.3-89.1l0.1-114.2c0-1.2,0.8-1.6,1.8-1.1l150.7,87c1.1,0.7,1.8,1.9,1.8,3.2L680.2,419.5z"/>
	<path class="st5" d="M564.9,494.3l-150.7-87c-2.1-1.2-1.8-3.3,0.6-4.8l100.9-58.3c2.4-1.4,6.1-1.6,8.2-0.3l150.7,87
		c2.1,1.2,1.8,3.3-0.6,4.8l-100.9,58.3C570.7,495.3,567,495.5,564.9,494.3z"/>
	<path class="st0" d="M568.2,492.3l-150.7-87c-2.1-1.2-1.8-3.3,0.6-4.8L519,342.3c2.4-1.4,6.1-1.6,8.2-0.3l150.7,87
		c2.1,1.2,1.8,3.3-0.6,4.8l-100.9,58.3C574,493.4,570.3,493.5,568.2,492.3z"/>
	<polygon class="st0" points="416.1,403.3 416.1,400.5 419.3,401.8 	"/>
	<polygon class="st0" points="679.4,431 679.4,428.3 677,429.1 678.6,431.4 	"/>
	<path class="st1" d="M568.2,489.9l-150.7-87c-2.1-1.2-1.8-3.4,0.6-4.8L519,339.9c2.4-1.4,6.1-1.6,8.2-0.3l150.7,87
		c2.1,1.2,1.8,3.4-0.6,4.8l-100.9,58.3C574,491,570.3,491.1,568.2,489.9z"/>
	<path class="st2" d="M568.2,489.5l-150.7-87c-2.1-1.2-1.8-3.4,0.6-4.8L519,339.5c2.4-1.4,6.1-1.6,8.2-0.3l150.7,87
		c2.1,1.2,1.8,3.4-0.6,4.8l-100.9,58.3C574,490.6,570.3,490.7,568.2,489.5z"/>
	<path class="st6" d="M516.2,359.2l-7-4.1c-0.6-0.3-0.5-0.9,0.2-1.3l6.7-3.9c0.7-0.4,1.5-0.4,2.2-0.1l7,4c0.6,0.3,0.5,0.9-0.2,1.3
		l-6.7,3.9C517.7,359.5,516.9,359.5,516.2,359.2z"/>
	<path class="st6" d="M526.1,364.9l-7-4c-0.6-0.3-0.5-0.9,0.2-1.3l6.7-3.9c0.7-0.4,1.5-0.4,2.2-0.1l7,4.1c0.6,0.3,0.5,0.9-0.2,1.3
		l-6.7,3.9C527.7,365.2,526.9,365.2,526.1,364.9z"/>
	<path class="st6" d="M536.2,370.7l-7-4.1c-0.6-0.3-0.5-0.9,0.2-1.3l6.7-3.9c0.7-0.4,1.5-0.4,2.2-0.1l7,4c0.6,0.3,0.5,0.9-0.2,1.3
		l-6.7,3.9C537.7,371,536.9,371,536.2,370.7z"/>
	<path class="st6" d="M546,376.4l-7-4c-0.6-0.3-0.5-0.9,0.2-1.3l6.7-3.9c0.7-0.4,1.5-0.4,2.2-0.1l7,4.1c0.6,0.3,0.5,0.9-0.2,1.3
		l-6.7,3.9C547.6,376.7,546.7,376.7,546,376.4z"/>
	<path class="st6" d="M555.9,382.1l-7-4.1c-0.6-0.3-0.5-0.9,0.2-1.3l6.7-3.9c0.7-0.4,1.5-0.4,2.2-0.1l7,4c0.6,0.3,0.5,0.9-0.2,1.3
		l-6.7,3.9C557.5,382.4,556.7,382.4,555.9,382.1z"/>
	<path class="st6" d="M565.9,387.8l-7-4c-0.6-0.3-0.5-0.9,0.2-1.3l6.7-3.9c0.7-0.4,1.5-0.4,2.2-0.1l7,4c0.6,0.3,0.5,0.9-0.2,1.3
		l-6.7,3.9C567.4,388.1,566.6,388.2,565.9,387.8z"/>
	<path class="st6" d="M575.8,393.6l-7-4.1c-0.6-0.3-0.5-0.9,0.2-1.3l6.7-3.8c0.7-0.4,1.5-0.4,2.2-0.1l7,4.1c0.6,0.3,0.5,0.9-0.2,1.3
		l-6.7,3.9C577.3,393.9,576.5,393.9,575.8,393.6z"/>
	<path class="st6" d="M585.7,399.3l-7-4.1c-0.6-0.3-0.5-0.9,0.2-1.3l6.7-3.9c0.7-0.4,1.5-0.4,2.2-0.1l7,4c0.6,0.3,0.5,0.9-0.2,1.3
		l-6.7,3.8C587.3,399.6,586.5,399.6,585.7,399.3z"/>
	<path class="st6" d="M595.7,405l-7-4c-0.6-0.3-0.5-0.9,0.2-1.3l6.7-3.9c0.7-0.4,1.5-0.4,2.2-0.1l7,4.1c0.6,0.3,0.5,0.9-0.2,1.3
		l-6.7,3.8C597.2,405.3,596.4,405.4,595.7,405z"/>
	<path class="st6" d="M605.6,410.8l-7-4.1c-0.6-0.3-0.5-0.9,0.2-1.3l6.7-3.9c0.7-0.4,1.5-0.4,2.2-0.1l7,4.1c0.6,0.3,0.5,0.9-0.2,1.3
		l-6.7,3.8C607.1,411.1,606.3,411.1,605.6,410.8z"/>
	<path class="st6" d="M615.5,416.5l-7-4c-0.6-0.3-0.5-0.9,0.2-1.3l6.7-3.9c0.7-0.4,1.5-0.4,2.2-0.1l7,4.1c0.6,0.3,0.5,0.9-0.2,1.3
		l-6.7,3.9C617.1,416.8,616.2,416.8,615.5,416.5z"/>
	<path class="st6" d="M625.5,422.2l-7-4.1c-0.6-0.3-0.5-0.9,0.2-1.3l6.7-3.9c0.7-0.4,1.5-0.4,2.2-0.1l7,4c0.6,0.3,0.5,0.9-0.2,1.3
		l-6.7,3.9C627,422.5,626.2,422.6,625.5,422.2z"/>
	<path class="st6" d="M635.4,428l-7-4c-0.6-0.3-0.5-0.9,0.2-1.3l6.7-3.9c0.7-0.4,1.5-0.4,2.2-0.1l7,4c0.6,0.3,0.5,0.9-0.2,1.3
		l-6.7,3.9C636.9,428.2,636.1,428.3,635.4,428z"/>
	<path class="st6" d="M650.1,436.5l-11.8-6.8c-0.6-0.3-0.5-0.9,0.2-1.3l6.7-3.9c0.7-0.4,1.5-0.4,2.2-0.1l11.8,6.8
		c0.6,0.3,0.5,0.9-0.2,1.3l-6.7,3.9C651.6,436.8,650.8,436.8,650.1,436.5z"/>
	<path class="st6" d="M521.3,373.2l-7-4c-0.6-0.3-0.5-0.9,0.2-1.3l6.7-3.9c0.7-0.4,1.5-0.4,2.2-0.1l7,4c0.6,0.3,0.5,0.9-0.2,1.3
		l-6.7,3.8C522.9,373.5,522,373.6,521.3,373.2z"/>
	<path class="st6" d="M531.3,379l-7-4.1c-0.6-0.3-0.5-0.9,0.2-1.3l6.7-3.9c0.7-0.4,1.5-0.4,2.2-0.1l7,4c0.6,0.3,0.5,0.9-0.2,1.3
		l-6.7,3.9C532.8,379.3,532,379.3,531.3,379z"/>
	<path class="st6" d="M541.2,384.7l-7-4.1c-0.6-0.3-0.5-0.9,0.2-1.3l6.7-3.9c0.7-0.4,1.5-0.4,2.2-0.1l7,4c0.6,0.3,0.5,0.9-0.2,1.3
		l-6.7,3.9C542.8,385,541.9,385,541.2,384.7z"/>
	<path class="st6" d="M551.2,390.5l-7-4.1c-0.6-0.3-0.5-0.9,0.2-1.3l6.7-3.9c0.7-0.4,1.5-0.4,2.2-0.1l7,4c0.6,0.3,0.5,0.9-0.2,1.3
		l-6.7,3.9C552.7,390.8,551.9,390.8,551.2,390.5z"/>
	<path class="st6" d="M561,396.2l-7-4.1c-0.6-0.3-0.5-0.9,0.2-1.3l6.7-3.9c0.7-0.4,1.5-0.4,2.2-0.1l7,4.1c0.6,0.3,0.5,0.9-0.2,1.3
		l-6.7,3.9C562.6,396.4,561.8,396.5,561,396.2z"/>
	<path class="st6" d="M571,401.9l-7-4.1c-0.6-0.3-0.5-0.9,0.2-1.3l6.7-3.9c0.7-0.4,1.5-0.4,2.2-0.1l7,4.1c0.6,0.3,0.5,0.9-0.2,1.3
		l-6.7,3.9C572.5,402.2,571.7,402.2,571,401.9z"/>
	<path class="st6" d="M580.9,407.6l-7-4c-0.6-0.3-0.5-0.9,0.2-1.3l6.7-3.9c0.7-0.4,1.5-0.4,2.2-0.1l7,4.1c0.6,0.3,0.5,0.9-0.2,1.3
		l-6.7,3.9C582.5,407.9,581.7,408,580.9,407.6z"/>
	<path class="st6" d="M590.9,413.4l-7-4c-0.6-0.3-0.5-0.9,0.2-1.3l6.7-3.9c0.7-0.4,1.5-0.4,2.2-0.1l7,4.1c0.6,0.3,0.5,0.9-0.2,1.3
		l-6.7,3.9C592.4,413.7,591.6,413.7,590.9,413.4z"/>
	<path class="st6" d="M600.8,419.1l-7-4c-0.6-0.3-0.5-0.9,0.2-1.3l6.7-3.9c0.7-0.4,1.5-0.4,2.2-0.1l7,4.1c0.6,0.3,0.5,0.9-0.2,1.3
		l-6.7,3.9C602.4,419.4,601.5,419.4,600.8,419.1z"/>
	<path class="st6" d="M610.8,424.9l-7-4c-0.6-0.3-0.5-0.9,0.2-1.3l6.7-3.9c0.7-0.4,1.5-0.4,2.2-0.1l7,4.1c0.6,0.3,0.5,0.9-0.2,1.3
		l-6.7,3.9C612.3,425.1,611.5,425.2,610.8,424.9z"/>
	<path class="st6" d="M620.7,430.6l-7-4c-0.6-0.3-0.5-0.9,0.2-1.3l6.7-3.9c0.7-0.4,1.5-0.4,2.2-0.1l7,4c0.6,0.3,0.5,0.9-0.2,1.3
		l-6.7,3.9C622.3,430.9,621.4,430.9,620.7,430.6z"/>
	<path class="st6" d="M630.7,436.4l-7-4c-0.6-0.3-0.5-0.9,0.2-1.3l6.7-3.9c0.7-0.4,1.5-0.4,2.2-0.1l7,4c0.6,0.3,0.5,0.9-0.2,1.3
		l-6.7,3.9C632.2,436.6,631.4,436.7,630.7,436.4z"/>
	<path class="st6" d="M511.4,367.5l-11.8-6.8c-0.6-0.3-0.5-0.9,0.2-1.3l6.7-3.9c0.7-0.4,1.5-0.4,2.2-0.1l11.8,6.8
		c0.6,0.3,0.5,0.9-0.2,1.3l-6.7,3.9C512.9,367.8,512.1,367.8,511.4,367.5z"/>
	<path class="st6" d="M649.6,436.8l-7-4.1c-0.7-0.3-1.4-0.3-2.1,0l-7.1,4.1c-0.3,0.2-0.5,0.5-0.3,0.9c0.1,0.1,0.2,0.3,0.3,0.3
		l0.6,0.3c0.3,0.1,0.5,0.4,0.4,0.7c-0.1,0.2-0.2,0.3-0.4,0.4l-7.5,4.3c-0.6,0.3-0.6,0.9,0,1.2l4.5,2.6c0.7,0.3,1.4,0.3,2.1,0l7-4
		l1.4-0.8l1-0.6l1-0.6l6-3.5C650.2,437.7,650.2,437.2,649.6,436.8z"/>
	<path class="st6" d="M477.7,381.4l-7-4c-0.6-0.3-0.5-0.9,0.2-1.3l6.7-3.9c0.7-0.4,1.5-0.4,2.2-0.1l7,4.1c0.6,0.3,0.5,0.9-0.2,1.3
		l-6.7,3.9C479.3,381.7,478.5,381.7,477.7,381.4z"/>
	<path class="st6" d="M487.6,387.1l-7-4.1c-0.6-0.3-0.5-0.9,0.2-1.3l6.7-3.9c0.7-0.4,1.5-0.4,2.2-0.1l7,4.1c0.6,0.3,0.5,0.9-0.2,1.3
		l-6.7,3.9C489.2,387.4,488.4,387.5,487.6,387.1z"/>
	<path class="st6" d="M497.6,392.8l-7-4c-0.6-0.3-0.5-0.9,0.2-1.3l6.7-3.9c0.7-0.4,1.5-0.4,2.2-0.1l7,4.1c0.6,0.3,0.5,0.9-0.2,1.3
		l-6.7,3.9C499.1,393.1,498.3,393.2,497.6,392.8z"/>
	<path class="st6" d="M581.9,441.5l-7-4.1c-0.6-0.3-0.5-0.9,0.2-1.3l6.7-3.9c0.7-0.4,1.5-0.4,2.2-0.1l7,4c0.6,0.3,0.5,0.9-0.2,1.3
		l-6.7,3.9C583.4,441.8,582.6,441.9,581.9,441.5z"/>
	<path class="st6" d="M591.8,447.3l-7-4.1c-0.6-0.3-0.5-0.9,0.2-1.3l6.7-3.9c0.7-0.4,1.5-0.4,2.2-0.1l7,4c0.6,0.3,0.5,0.9-0.2,1.3
		l-6.7,3.9C593.3,447.5,592.5,447.6,591.8,447.3z"/>
	<path class="st6" d="M601.7,453l-7-4.1c-0.6-0.3-0.5-0.9,0.2-1.3l6.7-3.8c0.7-0.4,1.5-0.4,2.2-0.1l7,4.1c0.6,0.3,0.5,0.9-0.2,1.3
		l-6.7,3.9C603.2,453.3,602.4,453.3,601.7,453z"/>
	<path class="st6" d="M611.6,458.7l-7-4.1c-0.6-0.3-0.5-0.9,0.2-1.3l6.7-3.9c0.7-0.4,1.5-0.4,2.2-0.1l7,4c0.6,0.3,0.5,0.9-0.2,1.3
		l-6.7,3.9C613.1,459,612.3,459,611.6,458.7z"/>
	<path class="st6" d="M510,400l-9.6-5.5c-0.6-0.3-0.5-0.9,0.2-1.3l6.7-3.9c0.7-0.4,1.5-0.4,2.2-0.1l9.6,5.5c0.6,0.3,0.5,0.9-0.2,1.3
		l-6.7,3.9C511.6,400.3,510.7,400.4,510,400z"/>
	<path class="st6" d="M572,435.8l-9.6-5.5c-0.6-0.3-0.5-0.9,0.2-1.3l6.7-3.9c0.7-0.4,1.5-0.4,2.2-0.1l9.6,5.5
		c0.6,0.3,0.5,0.9-0.2,1.3l-6.7,3.9C573.5,436.1,572.7,436.2,572,435.8z"/>
	<path class="st7" d="M559.5,428.6l-46.6-26.9c-0.6-0.3-0.5-0.9,0.2-1.3l6.7-3.9c0.7-0.4,1.5-0.4,2.2-0.1l46.6,26.9
		c0.6,0.3,0.5,0.9-0.2,1.3l-6.7,3.9C561.1,428.9,560.3,428.9,559.5,428.6z"/>
	<path class="st6" d="M514.4,380.3l-7-4.1c-0.6-0.3-0.5-0.9,0.2-1.3l6.7-3.8c0.7-0.4,1.5-0.4,2.2-0.1l7,4c0.6,0.3,0.5,0.9-0.2,1.3
		l-6.7,3.9C515.9,380.7,515.1,380.7,514.4,380.3z"/>
	<path class="st6" d="M524.3,386.1l-7-4c-0.6-0.3-0.5-0.9,0.2-1.3l6.7-3.9c0.7-0.4,1.5-0.4,2.2-0.1l7,4.1c0.6,0.3,0.5,0.9-0.2,1.3
		l-6.7,3.9C525.9,386.4,525,386.4,524.3,386.1z"/>
	<path class="st6" d="M534.2,391.8l-7-4.1c-0.6-0.3-0.5-0.9,0.2-1.3l6.7-3.9c0.7-0.4,1.5-0.4,2.2-0.1l7,4c0.6,0.3,0.5,0.9-0.2,1.3
		l-6.7,3.9C535.8,392.1,535,392.1,534.2,391.8z"/>
	<path class="st6" d="M544.2,397.5l-7-4c-0.6-0.3-0.5-0.9,0.2-1.3l6.7-3.8c0.7-0.4,1.5-0.4,2.2-0.1l7,4.1c0.6,0.3,0.5,0.9-0.2,1.3
		l-6.7,3.8C545.7,397.8,544.9,397.9,544.2,397.5z"/>
	<path class="st6" d="M554.1,403.3l-7-4.1c-0.6-0.3-0.5-0.9,0.2-1.3l6.7-3.9c0.7-0.4,1.5-0.4,2.2-0.1l7,4c0.6,0.3,0.5,0.9-0.2,1.3
		l-6.7,3.9C555.6,403.5,554.8,403.6,554.1,403.3z"/>
	<path class="st6" d="M564,409l-7-4c-0.6-0.3-0.5-0.9,0.2-1.3l6.7-3.9c0.7-0.4,1.5-0.4,2.2-0.1l7,4c0.6,0.3,0.5,0.9-0.2,1.3
		l-6.7,3.9C565.5,409.3,564.7,409.3,564,409z"/>
	<path class="st6" d="M573.9,414.7l-7-4.1c-0.6-0.3-0.5-0.9,0.2-1.3l6.7-3.9c0.7-0.4,1.5-0.4,2.2-0.1l7,4.1c0.6,0.3,0.5,0.9-0.2,1.3
		l-6.7,3.9C575.5,415,574.6,415,573.9,414.7z"/>
	<path class="st6" d="M583.8,420.4l-7-4c-0.6-0.3-0.5-0.9,0.2-1.3l6.7-3.9c0.7-0.4,1.5-0.4,2.2-0.1l7,4c0.6,0.3,0.5,0.9-0.2,1.3
		l-6.7,3.9C585.4,420.7,584.6,420.8,583.8,420.4z"/>
	<path class="st6" d="M593.8,426.2l-7-4.1c-0.6-0.3-0.5-0.9,0.2-1.3l6.7-3.9c0.7-0.4,1.5-0.4,2.2-0.1l7,4.1c0.6,0.3,0.5,0.9-0.2,1.3
		l-6.7,3.9C595.3,426.5,594.5,426.5,593.8,426.2z"/>
	<path class="st6" d="M603.7,431.9l-7-4c-0.6-0.3-0.5-0.9,0.2-1.3l6.7-3.9c0.7-0.4,1.5-0.4,2.2-0.1l7,4.1c0.6,0.3,0.5,0.9-0.2,1.3
		l-6.7,3.9C605.2,432.2,604.4,432.2,603.7,431.9z"/>
	<path class="st6" d="M613.6,437.6l-7-4c-0.6-0.3-0.5-0.9,0.2-1.3l6.7-3.9c0.7-0.4,1.5-0.4,2.2-0.1l7,4.1c0.6,0.3,0.5,0.9-0.2,1.3
		l-6.7,3.9C615.1,437.9,614.3,437.9,613.6,437.6z"/>
	<path class="st6" d="M623.5,443.3l-7-4.1c-0.6-0.3-0.5-0.9,0.2-1.3l6.7-3.9c0.7-0.4,1.5-0.4,2.2-0.1l7,4c0.6,0.3,0.5,0.9-0.2,1.3
		l-6.7,3.9C625.1,443.6,624.2,443.7,623.5,443.3z"/>
	<path class="st6" d="M504.5,374.6l-14.5-8.4c-0.6-0.3-0.5-0.9,0.2-1.3l6.7-3.9c0.7-0.4,1.5-0.4,2.2-0.1l14.5,8.4
		c0.6,0.3,0.5,0.9-0.2,1.3l-6.7,3.9C506,374.9,505.2,374.9,504.5,374.6z"/>
	<path class="st6" d="M499.8,383.1l-7-4c-0.6-0.3-0.5-0.9,0.2-1.3l6.7-3.9c0.7-0.4,1.5-0.4,2.2-0.1l7,4c0.6,0.3,0.5,0.9-0.2,1.3
		l-6.7,3.9C501.4,383.3,500.6,383.4,499.8,383.1z"/>
	<path class="st6" d="M509.8,388.8l-7-4c-0.6-0.3-0.5-0.9,0.2-1.3l6.7-3.9c0.7-0.4,1.5-0.4,2.2-0.1l7,4.1c0.6,0.3,0.5,0.9-0.2,1.3
		l-6.7,3.9C511.3,389,510.5,389.1,509.8,388.8z"/>
	<path class="st6" d="M519.7,394.5l-7-4.1c-0.6-0.3-0.5-0.9,0.2-1.3l6.7-3.9c0.7-0.4,1.5-0.4,2.2-0.1l7,4.1c0.6,0.3,0.5,0.9-0.2,1.3
		l-6.7,3.9C521.2,394.8,520.4,394.8,519.7,394.5z"/>
	<path class="st6" d="M529.6,400.2l-7-4.1c-0.6-0.3-0.5-0.9,0.2-1.3l6.7-3.9c0.7-0.4,1.5-0.4,2.2-0.1l7,4c0.6,0.3,0.5,0.9-0.2,1.3
		l-6.7,3.9C531.1,400.5,530.3,400.6,529.6,400.2z"/>
	<path class="st6" d="M539.5,406l-7-4c-0.6-0.3-0.5-0.9,0.2-1.3l6.7-3.9c0.7-0.4,1.5-0.4,2.2-0.1l7,4.1c0.6,0.3,0.5,0.9-0.2,1.3
		l-6.7,3.9C541.1,406.3,540.2,406.3,539.5,406z"/>
	<path class="st6" d="M549.4,411.7l-7-4.1c-0.6-0.3-0.5-0.9,0.2-1.3l6.7-3.9c0.7-0.4,1.5-0.4,2.2-0.1l7,4.1c0.6,0.3,0.5,0.9-0.2,1.3
		l-6.7,3.9C551,412,550.2,412,549.4,411.7z"/>
	<path class="st6" d="M559.4,417.4l-7-4c-0.6-0.3-0.5-0.9,0.2-1.3l6.7-3.9c0.7-0.4,1.5-0.4,2.2-0.1l7,4c0.6,0.3,0.5,0.9-0.2,1.3
		l-6.7,3.8C560.9,417.7,560.1,417.7,559.4,417.4z"/>
	<path class="st6" d="M569.3,423.1l-7-4c-0.6-0.3-0.5-0.9,0.2-1.3l6.7-3.9c0.7-0.4,1.5-0.4,2.2-0.1l7,4c0.6,0.3,0.5,0.9-0.2,1.3
		l-6.7,3.9C570.8,423.4,570,423.5,569.3,423.1z"/>
	<path class="st6" d="M579.2,428.9l-7-4c-0.6-0.3-0.5-0.9,0.2-1.3l6.7-3.9c0.7-0.4,1.5-0.4,2.2-0.1l7,4.1c0.6,0.3,0.5,0.9-0.2,1.3
		l-6.7,3.9C580.7,429.1,579.9,429.2,579.2,428.9z"/>
	<path class="st6" d="M589.1,434.6l-7-4.1c-0.6-0.3-0.5-0.9,0.2-1.3l6.7-3.9c0.7-0.4,1.5-0.4,2.2-0.1l7,4c0.6,0.3,0.5,0.9-0.2,1.3
		l-6.7,3.9C590.7,434.9,589.8,434.9,589.1,434.6z"/>
	<path class="st6" d="M599,440.3l-7-4c-0.6-0.3-0.5-0.9,0.2-1.3l6.7-3.9c0.7-0.4,1.5-0.4,2.2-0.1l7,4c0.6,0.3,0.5,0.9-0.2,1.3
		l-6.7,3.9C600.6,440.6,599.7,440.6,599,440.3z"/>
	<path class="st6" d="M621.2,453.1L601.9,442c-0.6-0.3-0.5-0.9,0.2-1.3l6.7-3.9c0.7-0.4,1.5-0.4,2.2-0.1l19.3,11.1
		c0.6,0.3,0.5,0.9-0.2,1.3l-6.7,3.8C622.8,453.4,621.9,453.5,621.2,453.1z"/>
	<path class="st6" d="M489.9,377.3l-9.5-5.5c-0.6-0.3-0.5-0.9,0.2-1.3l6.7-3.9c0.7-0.4,1.5-0.4,2.2-0.1l9.6,5.5
		c0.6,0.3,0.5,0.9-0.2,1.3l-6.7,3.9C491.5,377.6,490.7,377.7,489.9,377.3z"/>
	<path class="st8" d="M660.1,430.7l-140.9-81.3c-0.6-0.3-0.5-0.9,0.2-1.3l3.3-1.9c0.7-0.4,1.5-0.4,2.2-0.1l140.9,81.4
		c0.6,0.3,0.5,0.9-0.2,1.3l-3.3,1.9C661.6,431,660.8,431,660.1,430.7z"/>
	<path class="st0" d="M572.8,440c-0.2,0.4-0.5,0.8-1,1l-38.8,22.4c-1.3,0.7-2.9,0.8-4.3,0.2l-66.2-38.2c-0.3-0.2-0.5-0.4-0.7-0.7
		c-0.2-0.6,0.1-1.3,1-1.8l38.8-22.4c1.3-0.7,2.9-0.8,4.3-0.2l66.2,38.2C572.7,438.7,573,439.4,572.8,440z"/>
	<path class="st9" d="M572.8,440c-0.2,0.4-0.5,0.8-1,1l-38.8,22.4c-1.3,0.7-2.9,0.8-4.3,0.2l-66.2-38.2c-0.3-0.2-0.5-0.4-0.7-0.7
		c0.2-0.4,0.5-0.8,1-1l38.8-22.4c1.3-0.7,2.9-0.8,4.3-0.2l66.2,38.2C572.4,439.4,572.7,439.7,572.8,440z"/>
	<path class="st6" d="M670.8,424.5l-140.9-81.3c-0.6-0.5-1-1.2-1-2v-1.7c0-0.8,0.5-1.1,1-0.8l140.9,81.3c0.6,0.5,1,1.2,1,2v1.7
		C671.9,424.5,671.4,424.9,670.8,424.5z"/>
	<g id="Calque_13">
		<polygon class="st9" points="618.7,285.4 608.5,279.5 608.5,275.8 618.7,281.7 		"/>
		<polygon class="st7" points="642.4,299.1 620.7,286.5 620.7,282.8 642.4,295.4 		"/>
		<polygon class="st9" points="618.7,297.2 608.5,291.3 608.5,287.6 618.7,293.5 		"/>
		<polygon class="st8" points="627.9,302.6 620.7,298.3 620.7,294.6 627.9,298.9 		"/>
		<polygon class="st9" points="618.7,303.1 608.5,297.2 608.5,293.5 618.7,299.4 		"/>
		<polygon class="st8" points="632.8,311.2 620.7,304.2 620.7,300.5 632.8,307.6 		"/>
		<polygon class="st9" points="618.7,309 608.5,303.1 608.5,299.4 618.7,305.3 		"/>
		<polygon class="st7" points="652.7,328.6 620.7,310.1 620.7,306.5 652.7,324.9 		"/>
		<polygon class="st9" points="618.7,291.3 608.5,285.4 608.5,281.7 618.7,287.6 		"/>
		<polygon class="st9" points="660.6,315.5 620.7,292.4 620.7,288.7 660.6,311.8 		"/>
		<polygon class="st9" points="618.7,314.9 608.5,309 608.5,305.3 618.7,311.2 		"/>
		<polygon class="st7" points="655.2,336.4 620.7,316.1 620.7,312.4 655.2,332.7 		"/>
		<polygon class="st9" points="618.7,326.8 608.5,320.8 608.5,317.2 618.7,323.1 		"/>
		<polygon class="st9" points="660.9,351.1 620.7,327.9 620.7,324.2 660.9,347.4 		"/>
		<polygon class="st9" points="618.7,332.7 608.5,326.8 608.5,323.1 618.7,329 		"/>
		<polygon class="st7" points="632.8,340.8 620.7,333.8 620.7,330.1 632.8,337.1 		"/>
		<polygon class="st9" points="618.7,338.6 608.5,332.7 608.5,329 618.7,334.9 		"/>
		<polygon class="st8" points="645.5,354.1 620.7,339.7 620.7,336 645.5,350.4 		"/>
		<polygon class="st9" points="618.7,320.8 608.5,314.9 608.5,311.2 618.7,317.2 		"/>
		<polygon class="st8" points="625.1,324.5 620.7,322 620.7,318.3 625.1,320.8 		"/>
		<polygon class="st9" points="618.7,344.5 608.5,338.6 608.5,334.9 618.7,340.8 		"/>
		<polygon class="st7" points="636.7,354.8 620.7,345.6 620.7,341.9 636.7,351.1 		"/>
		<polygon class="st9" points="618.7,356.3 608.5,350.4 608.5,346.7 618.7,352.6 		"/>
		<polygon class="st7" points="644,370.7 620.7,357.4 620.7,353.7 644,367 		"/>
		<polygon class="st9" points="618.7,362.2 608.5,356.3 608.5,352.6 618.7,358.5 		"/>
		<polygon class="st9" points="623.6,365.1 620.7,363.3 620.7,359.6 623.6,361.5 		"/>
		<polygon class="st9" points="618.7,368.1 608.5,362.2 608.5,358.5 618.7,364.4 		"/>
		<polygon class="st7" points="634.1,376.9 620.7,369.2 620.7,365.5 634.1,373.2 		"/>
		<polygon class="st9" points="618.7,350.4 608.5,344.5 608.5,340.8 618.7,346.7 		"/>
		<polygon class="st8" points="639.3,362.2 620.7,351.5 620.7,347.8 639.3,358.5 		"/>
		<polygon class="st9" points="552.6,248.5 542.3,242.6 542.3,238.9 552.6,244.8 		"/>
		<polygon class="st8" points="598,274.7 554.5,249.6 554.5,245.9 598,271 		"/>
		<polygon class="st9" points="552.6,260.3 542.3,254.4 542.3,250.7 552.6,256.6 		"/>
		<polygon class="st7" points="583.2,278 554.5,261.4 554.5,257.7 583.2,274.3 		"/>
		<polygon class="st9" points="552.6,266.2 542.3,260.3 542.3,256.6 552.6,262.5 		"/>
		<polygon class="st7" points="590.3,288 554.5,267.3 554.5,263.6 590.3,284.3 		"/>
		<polygon class="st9" points="552.6,272.1 542.3,266.2 542.3,262.5 552.6,268.4 		"/>
		<polygon class="st9" points="579.4,287.6 554.5,273.2 554.5,269.5 579.4,283.9 		"/>
		<polygon class="st9" points="552.6,254.4 542.3,248.5 542.3,244.8 552.6,250.7 		"/>
		<polygon class="st8" points="576.2,268.1 554.5,255.5 554.5,251.8 576.2,264.4 		"/>
		<polygon class="st9" points="552.6,278 542.3,272.1 542.3,268.4 552.6,274.3 		"/>
		<polygon class="st8" points="567.3,286.5 554.5,279.1 554.5,275.4 567.3,282.8 		"/>
		<polygon class="st9" points="552.6,289.8 542.3,283.9 542.3,280.2 552.6,286.1 		"/>
		<polygon class="st7" points="594.8,314.2 554.5,290.9 554.5,287.3 594.8,310.5 		"/>
		<polygon class="st9" points="552.6,295.7 542.3,289.8 542.3,286.1 552.6,292.1 		"/>
		<polygon class="st8" points="566.6,303.9 554.5,296.9 554.5,293.2 566.6,300.2 		"/>
		<polygon class="st9" points="552.6,301.7 542.3,295.7 542.3,292.1 552.6,298 		"/>
		<polygon class="st9" points="590.3,323.4 554.5,302.8 554.5,299.1 590.3,319.7 		"/>
		<polygon class="st9" points="552.6,283.9 542.3,278 542.3,274.3 552.6,280.2 		"/>
		<polygon class="st8" points="588.4,304.6 554.5,285 554.5,281.3 588.4,300.9 		"/>
		<polygon class="st9" points="552.6,307.6 542.3,301.6 542.3,298 552.6,303.9 		"/>
		<polygon class="st8" points="558.9,311.2 554.5,308.7 554.5,305 558.9,307.6 		"/>
		<polygon class="st9" points="552.6,319.4 542.3,313.5 542.3,309.8 552.6,315.7 		"/>
		<polygon class="st7" points="562.8,325.3 554.5,320.5 554.5,316.8 562.8,321.6 		"/>
		<polygon class="st9" points="552.6,325.3 542.3,319.4 542.3,315.7 552.6,321.6 		"/>
		<polygon class="st7" points="576.2,338.9 554.5,326.4 554.5,322.7 576.2,335.2 		"/>
		<polygon class="st9" points="552.6,331.2 542.3,325.3 542.3,321.6 552.6,327.5 		"/>
		<polygon class="st9" points="589,352.2 554.5,332.3 554.5,328.6 589,348.5 		"/>
		<polygon class="st9" points="552.6,313.5 542.3,307.6 542.3,303.9 552.6,309.8 		"/>
		<polygon class="st8" points="598,339.7 554.5,314.6 554.5,310.9 598,336 		"/>
	</g>
</g>
<g id="Calque_9">
	<g id="Calque_3_-_copie">
		<path class="st8" d="M116.3,111.7l-81.6,44.4c-31.2,17-31.2,59.2,0.1,76.1l9.4,5.1c57.1,30.8,127.5,30.7,184.5-0.3l56.6-30.8
			c38.9-21.1,38.8-73.7-0.2-94.7l0,0C232.9,83.3,168.5,83.4,116.3,111.7z"/>
	</g>
	<g id="Calque_10_-_copie">
		<g id="Calque_6_-_copie_3_2_">
			<path class="st9" d="M74.8,167.7c-2.3,5.8,1.8,10.7,1.8,10.7l0.1,8.2c0,0,1.6,4.4,4.8,8c3.6,3.9,3.4,3.4,3.4,3.4
				c-0.1,0.2,4,1.7-0.4,1.2c-0.1,0-4.4-1.4-6.6-3.7c-2.2-2.3-2.7-1.6-4.6-0.1s-1,2.4-2.9,4.7c-1.9,2.3-7.6,2.6-7.6,2.6
				s-3.8,0.2-0.4-2.1c3.4-2.3,4.6-4.1,5.4-6c0.7-1.8,3.8-12.3,1.8-15.7c-0.7-1.2-1.1-7.1-1.2-7.3c-0.5-0.9-0.8-1.3-0.4-2.1
				c1.3-2.8,1.6-1.9,2.4-3.3c1.7-3.2,1.9-8.6,3.1-7.5c1.2,1.1,1.9,1.6,0.5,4.5C73.7,163.2,74.8,167.8,74.8,167.7z"/>
			<path class="st10" d="M92.1,158.7c0,0-8.4,2.2-11.1,8.7c-2.7,6.4-2.4,12.3-2.4,12.3l-0.3,9.3c0,0,0.8,7.2,4.3,11.2
				c3.4,4,3.4,4,3.4,4c0.1,0.6,5,3.3-0.4,1.3c-0.1,0-4.6-1.8-6.9-4.5c-2.2-2.7-2.3-3.9-4.4-2.2c-2.1,1.6-1.2,2.7-3.3,5.2
				c-2.1,2.5-8.2,2.5-8.2,2.5s-4,0-0.3-2.4c3.7-2.4,6.1-4.2,6-6.6s4.8-13.2,1.8-15.6c-3-2.4-2.2-10.6-3.1-11.4s-4.2-1.3-6-6.4
				c-1.8-5.1,0.6-5.8,0.6-5.8s4.6,7,5.7,7.5s6.9,3,8.8-0.6c1.9-3.6,2.4-9.7,3.6-8.4c1.2,1.3,1.9,1.9,0.3,5.1
				c-1.6,3.1,1.5-1.5,6.4-2.8C91.5,157.8,92.8,156.6,92.1,158.7z"/>
			<path class="st7" d="M108.2,145.2c0-4.7-3.8-8.6-8.6-8.6c-2.4,0-4.6,1-6.2,2.6c-1.6-2.2-4.1-3.6-7-3.6c-3.6,0-6.7,2.2-7.9,5.3
				c-1.2-3.2-4.3-5.5-8-5.5c-1.6,0-3,0.4-4.3,1.2c-1.6-1.7-3.8-2.8-6.3-2.8c-4.7,0-8.6,3.8-8.6,8.6c0,0.1,0,0.3,0,0.4
				c-4.4,0.4-7.8,4.1-7.8,8.5c0,4.7,3.8,8.6,8.6,8.6c1,0,1.9-0.2,2.8-0.5c1.6,1.9,3.9,3.1,6.6,3.1c2.2,0,4.2-0.8,5.7-2.2
				c1.5,1.3,3.5,2.2,5.7,2.2c1.6,0,3.1-0.5,4.4-1.2c1.5,1.3,3.4,2,5.5,2c2.8,0,5.2-1.3,6.8-3.4c1.1,0.5,2.3,0.8,3.6,0.8
				c4.3,0,7.8-3.1,8.5-7.2C105.4,152.6,108.2,149.2,108.2,145.2z M78.3,147.4c0-0.1,0-0.1,0.1-0.2c0,0.1,0,0.1,0.1,0.2
				C78.4,147.4,78.4,147.4,78.3,147.4C78.4,147.4,78.3,147.4,78.3,147.4z"/>
			<path class="st11" d="M107,134c0-4.7-3.8-8.6-8.6-8.6c-2.3,0-4.3,0.9-5.9,2.3c-1.5,0.7-2.8,1.8-3.7,3.1c-0.4,0.5-0.7,1-1,1.5
				c-0.3,0.2-0.7,0.4-1,0.6c-1.1-0.5-2.3-0.8-3.6-0.8c-1.3,0-2.5,0.3-3.7,0.8c-1.4-0.9-3-1.4-4.7-1.4c-2.2,0-4.2,0.8-5.7,2.2
				c-1.1-0.5-2.3-0.8-3.5-0.8c-1.3,0-2.5,0.3-3.6,0.8c-1.5-2.5-4.2-4.2-7.4-4.2c-1.5,0-3,0.4-4.2,1.1c-0.9-0.3-1.9-0.5-2.9-0.5
				c-4.7,0-8.6,3.8-8.6,8.6c0,3.6,2.3,6.7,5.5,8c-0.2,0.7-0.3,1.4-0.3,2.2c0,4.7,3.8,8.6,8.6,8.6c0.6,0,1.2-0.1,1.8-0.2
				c0.8,0.6,1.7,1.1,2.7,1.4c1.5,2.6,4.3,4.4,7.5,4.4c2.7,0,5.1-1.3,6.7-3.2c0.1,0,0.2,0,0.3,0c2.5,0,4.8-1.1,6.3-2.8
				c1.2,0.6,2.6,1,4,1c4.7,0,8.6-3.8,8.6-8.6c0-0.4,0-0.7-0.1-1.1c0.4,0.1,0.8,0.1,1.3,0.1c3.3,0,6.2-1.9,7.6-4.6
				c1.1-0.6,2-1.3,2.7-2.3C105,140.4,107,137.4,107,134z"/>
			<path class="st12" d="M103.2,123.1c0-2.7-1.2-5-3.1-6.6c-1.5-2.6-4.3-4.4-7.5-4.4c-0.7,0-1.5,0.1-2.2,0.3
				c-1.4-2.5-4.1-4.1-7.1-4.3c-1.6-1.8-3.9-3-6.5-3c-1.7,0-3.4,0.5-4.7,1.4c-0.1,0-0.2,0-0.3,0c-3.2,0-5.9,1.7-7.4,4.3
				c-0.5,0.4-1,0.8-1.5,1.3c-1.3-0.9-2.9-1.4-4.7-1.4c-4.7,0-8.5,3.7-8.6,8.4c-4.6,0.1-8.4,3.9-8.4,8.6c0,4.3,3.1,7.8,7.2,8.5
				c1.4,1.1,3.2,1.7,5.1,1.7c1.2,0,2.3-0.2,3.4-0.7c1.4,0.9,3,1.5,4.8,1.5c0.4,0,0.8,0,1.2-0.1c1.5,1.5,3.7,2.5,6,2.5
				c1.5,0,3-0.4,4.2-1.1c1.6,2,4,3.3,6.8,3.3c2.4,0,4.6-1,6.2-2.7c1.1,0.6,2.4,0.9,3.8,0.9c4.7,0,8.6-3.8,8.6-8.6
				c0-0.7-0.1-1.4-0.3-2.1C101.2,129.4,103.2,126.5,103.2,123.1z"/>
		</g>
		<g id="Calque_6_-_copie_3_1_">
			<path class="st9" d="M144.2,125.8c-2.3,5.8,1.8,10.7,1.8,10.7l0.1,8.2c0,0,1.6,4.4,4.8,8c3.6,3.9,3.4,3.4,3.4,3.4
				c-0.1,0.2,4,1.7-0.4,1.2c-0.1,0-4.4-1.4-6.6-3.7c-2.2-2.3-2.7-1.6-4.6-0.1s-1,2.4-2.9,4.7s-7.6,2.6-7.6,2.6s-3.8,0.2-0.4-2.1
				c3.4-2.3,4.6-4.1,5.4-6c0.7-1.8,3.8-12.3,1.8-15.7c-0.7-1.2-1.1-7.1-1.2-7.3c-0.5-0.9-0.8-1.3-0.4-2.1c1.3-2.8,1.6-1.9,2.4-3.3
				c1.7-3.2,1.9-8.6,3.1-7.5s1.9,1.6,0.5,4.5C143.1,121.3,144.2,125.9,144.2,125.8z"/>
			<path class="st10" d="M161.5,116.8c0,0-8.4,2.2-11.1,8.7c-2.7,6.4-2.4,12.3-2.4,12.3l-0.3,9.3c0,0,0.8,7.2,4.3,11.2
				c3.4,4,3.4,4,3.4,4c0.1,0.6,5,3.3-0.4,1.3c-0.1,0-4.6-1.8-6.9-4.5c-2.2-2.7-2.3-3.9-4.4-2.2c-2.1,1.6-1.2,2.7-3.3,5.2
				s-8.2,2.5-8.2,2.5s-4,0-0.3-2.4c3.7-2.4,6.1-4.2,6-6.6s4.8-13.2,1.8-15.6c-3-2.4-2.2-10.6-3.1-11.4c-0.9-0.7-4.2-1.3-6-6.4
				s0.6-5.8,0.6-5.8s4.6,7,5.7,7.5s6.9,3,8.8-0.6c1.9-3.6,2.4-9.7,3.6-8.4c1.2,1.3,1.9,1.9,0.3,5.1c-1.6,3.1,1.5-1.5,6.4-2.8
				C160.9,115.9,162.3,114.7,161.5,116.8z"/>
			<path class="st7" d="M177.6,103.3c0-4.7-3.8-8.6-8.6-8.6c-2.4,0-4.6,1-6.2,2.6c-1.6-2.2-4.1-3.6-7-3.6c-3.6,0-6.7,2.2-7.9,5.3
				c-1.2-3.2-4.3-5.5-8-5.5c-1.6,0-3,0.4-4.3,1.2c-1.6-1.7-3.8-2.8-6.3-2.8c-4.7,0-8.6,3.8-8.6,8.6c0,0.1,0,0.3,0,0.4
				c-4.4,0.4-7.8,4.1-7.8,8.5c0,4.7,3.8,8.6,8.6,8.6c1,0,1.9-0.2,2.8-0.5c1.6,1.9,3.9,3.1,6.6,3.1c2.2,0,4.2-0.8,5.7-2.2
				c1.5,1.3,3.5,2.2,5.7,2.2c1.6,0,3.1-0.5,4.4-1.2c1.5,1.3,3.4,2,5.5,2c2.8,0,5.2-1.3,6.8-3.4c1.1,0.5,2.3,0.8,3.6,0.8
				c4.3,0,7.8-3.1,8.5-7.2C174.8,110.7,177.6,107.3,177.6,103.3z M147.8,105.5c0-0.1,0-0.1,0.1-0.2c0,0.1,0,0.1,0.1,0.2
				C147.9,105.5,147.8,105.5,147.8,105.5C147.8,105.5,147.8,105.5,147.8,105.5z"/>
			<path class="st11" d="M176.4,92.1c0-4.7-3.8-8.6-8.6-8.6c-2.3,0-4.3,0.9-5.9,2.3c-1.5,0.7-2.8,1.8-3.7,3.1c-0.4,0.5-0.7,1-1,1.5
				c-0.3,0.2-0.7,0.4-1,0.6c-1.1-0.5-2.3-0.8-3.6-0.8c-1.3,0-2.5,0.3-3.7,0.8c-1.4-0.9-3-1.4-4.7-1.4c-2.2,0-4.2,0.8-5.7,2.2
				c-1.1-0.5-2.3-0.8-3.5-0.8c-1.3,0-2.5,0.3-3.6,0.8c-1.5-2.5-4.2-4.2-7.4-4.2c-1.5,0-3,0.4-4.2,1.1c-0.9-0.3-1.9-0.5-2.9-0.5
				c-4.7,0-8.6,3.8-8.6,8.6c0,3.6,2.3,6.7,5.5,8c-0.2,0.7-0.3,1.4-0.3,2.2c0,4.7,3.8,8.6,8.6,8.6c0.6,0,1.2-0.1,1.8-0.2
				c0.8,0.6,1.7,1.1,2.7,1.4c1.5,2.6,4.3,4.4,7.5,4.4c2.7,0,5.1-1.3,6.7-3.2c0.1,0,0.2,0,0.3,0c2.5,0,4.8-1.1,6.3-2.8
				c1.2,0.6,2.6,1,4,1c4.7,0,8.6-3.8,8.6-8.6c0-0.4,0-0.7-0.1-1.1c0.4,0.1,0.8,0.1,1.3,0.1c3.3,0,6.2-1.9,7.6-4.6
				c1.1-0.6,2-1.3,2.7-2.3C174.4,98.5,176.4,95.5,176.4,92.1z"/>
			<path class="st12" d="M172.6,81.2c0-2.7-1.2-5-3.1-6.6c-1.5-2.6-4.3-4.4-7.5-4.4c-0.7,0-1.5,0.1-2.2,0.3
				c-1.4-2.5-4.1-4.1-7.1-4.3c-1.6-1.8-3.9-3-6.5-3c-1.7,0-3.4,0.5-4.7,1.4c-0.1,0-0.2,0-0.3,0c-3.2,0-5.9,1.7-7.4,4.3
				c-0.5,0.4-1,0.8-1.5,1.3c-1.3-0.9-2.9-1.4-4.7-1.4c-4.7,0-8.5,3.7-8.6,8.4c-4.6,0.1-8.4,3.9-8.4,8.6c0,4.3,3.1,7.8,7.2,8.5
				c1.4,1.1,3.2,1.7,5.1,1.7c1.2,0,2.3-0.2,3.4-0.7c1.4,0.9,3,1.5,4.8,1.5c0.4,0,0.8,0,1.2-0.1c1.5,1.5,3.7,2.5,6,2.5
				c1.5,0,3-0.4,4.2-1.1c1.6,2,4,3.3,6.8,3.3c2.4,0,4.6-1,6.2-2.7c1.1,0.6,2.4,0.9,3.8,0.9c4.7,0,8.6-3.8,8.6-8.6
				c0-0.7-0.1-1.4-0.3-2.1C170.6,87.5,172.6,84.6,172.6,81.2z"/>
		</g>
		<g id="Calque_6_-_copie_3">
			<path class="st9" d="M211.5,87.5c-2.3,5.8,1.8,10.7,1.8,10.7l0.1,8.2c0,0,1.6,4.4,4.8,8c3.6,3.9,3.4,3.4,3.4,3.4
				c-0.1,0.2,4,1.7-0.4,1.2c-0.1,0-4.4-1.4-6.6-3.7s-2.7-1.6-4.6-0.1s-1,2.4-2.9,4.7c-1.9,2.3-7.6,2.6-7.6,2.6s-3.8,0.2-0.4-2.1
				c3.4-2.3,4.6-4.1,5.4-6c0.7-1.8,3.8-12.3,1.8-15.7c-0.7-1.2-1.1-7.1-1.2-7.3c-0.5-0.9-0.8-1.3-0.4-2.1c1.3-2.8,1.6-1.9,2.4-3.3
				c1.7-3.2,1.9-8.6,3.1-7.5c1.2,1.1,1.9,1.6,0.5,4.5C210.5,83,211.6,87.6,211.5,87.5z"/>
			<path class="st10" d="M228.9,78.5c0,0-8.4,2.2-11.1,8.7c-2.7,6.4-2.4,12.3-2.4,12.3l-0.3,9.3c0,0,0.8,7.2,4.3,11.2
				c3.4,4,3.4,4,3.4,4c0.1,0.6,5,3.3-0.4,1.3c-0.1,0-4.6-1.8-6.9-4.5c-2.2-2.7-2.3-3.9-4.4-2.2c-2.1,1.6-1.2,2.7-3.3,5.2
				c-2.1,2.5-8.2,2.5-8.2,2.5s-4,0-0.3-2.4c3.7-2.4,6.1-4.2,6-6.6c-0.1-2.4,4.8-13.2,1.8-15.6c-3-2.4-2.2-10.6-3.1-11.4
				s-4.2-1.3-6-6.4c-1.8-5.1,0.6-5.8,0.6-5.8s4.6,7,5.7,7.5s6.9,3,8.8-0.6s2.4-9.7,3.6-8.4c1.2,1.3,1.9,1.9,0.3,5.1
				c-1.6,3.1,1.5-1.5,6.4-2.8C228.3,77.6,229.6,76.4,228.9,78.5z"/>
			<path class="st7" d="M244.9,65c0-4.7-3.8-8.6-8.6-8.6c-2.4,0-4.6,1-6.2,2.6c-1.6-2.2-4.1-3.6-7-3.6c-3.6,0-6.7,2.2-7.9,5.3
				c-1.2-3.2-4.3-5.5-8-5.5c-1.6,0-3,0.4-4.3,1.2c-1.6-1.7-3.8-2.8-6.3-2.8c-4.7,0-8.6,3.8-8.6,8.6c0,0.1,0,0.3,0,0.4
				c-4.4,0.4-7.8,4.1-7.8,8.5c0,4.7,3.8,8.6,8.6,8.6c1,0,1.9-0.2,2.8-0.5c1.6,1.9,3.9,3.1,6.6,3.1c2.2,0,4.2-0.8,5.7-2.2
				c1.5,1.3,3.5,2.2,5.7,2.2c1.6,0,3.1-0.5,4.4-1.2c1.5,1.3,3.4,2,5.5,2c2.8,0,5.2-1.3,6.8-3.4c1.1,0.5,2.3,0.8,3.6,0.8
				c4.3,0,7.8-3.1,8.5-7.2C242.1,72.4,244.9,69,244.9,65z M215.1,67.2c0-0.1,0-0.1,0.1-0.2c0,0.1,0,0.1,0.1,0.2
				C215.2,67.2,215.2,67.2,215.1,67.2C215.1,67.2,215.1,67.2,215.1,67.2z"/>
			<path class="st11" d="M243.7,53.8c0-4.7-3.8-8.6-8.6-8.6c-2.3,0-4.3,0.9-5.9,2.3c-1.5,0.7-2.8,1.8-3.7,3.1c-0.4,0.5-0.7,1-1,1.5
				c-0.3,0.2-0.7,0.4-1,0.6c-1.1-0.5-2.3-0.8-3.6-0.8c-1.3,0-2.5,0.3-3.7,0.8c-1.4-0.9-3-1.4-4.7-1.4c-2.2,0-4.2,0.8-5.7,2.2
				c-1.1-0.5-2.3-0.8-3.5-0.8c-1.3,0-2.5,0.3-3.6,0.8c-1.5-2.5-4.2-4.2-7.4-4.2c-1.5,0-3,0.4-4.2,1.1c-0.9-0.3-1.9-0.5-2.9-0.5
				c-4.7,0-8.6,3.8-8.6,8.6c0,3.6,2.3,6.7,5.5,8c-0.2,0.7-0.3,1.4-0.3,2.2c0,4.7,3.8,8.6,8.6,8.6c0.6,0,1.2-0.1,1.8-0.2
				c0.8,0.6,1.7,1.1,2.7,1.4c1.5,2.6,4.3,4.4,7.5,4.4c2.7,0,5.1-1.3,6.7-3.2c0.1,0,0.2,0,0.3,0c2.5,0,4.8-1.1,6.3-2.8
				c1.2,0.6,2.6,1,4,1c4.7,0,8.6-3.8,8.6-8.6c0-0.4,0-0.7-0.1-1.1c0.4,0.1,0.8,0.1,1.3,0.1c3.3,0,6.2-1.9,7.6-4.6
				c1.1-0.6,2-1.3,2.7-2.3C241.7,60.2,243.7,57.2,243.7,53.8z"/>
			<path class="st12" d="M239.9,42.9c0-2.7-1.2-5-3.1-6.6c-1.5-2.6-4.3-4.4-7.5-4.4c-0.7,0-1.5,0.1-2.2,0.3
				c-1.4-2.5-4.1-4.1-7.1-4.3c-1.6-1.8-3.9-3-6.5-3c-1.7,0-3.4,0.5-4.7,1.4c-0.1,0-0.2,0-0.3,0c-3.2,0-5.9,1.7-7.4,4.3
				c-0.5,0.4-1,0.8-1.5,1.3c-1.3-0.9-2.9-1.4-4.7-1.4c-4.7,0-8.5,3.7-8.6,8.4c-4.6,0.1-8.4,3.9-8.4,8.6c0,4.3,3.1,7.8,7.2,8.5
				c1.4,1.1,3.2,1.7,5.1,1.7c1.2,0,2.3-0.2,3.4-0.7c1.4,0.9,3,1.5,4.8,1.5c0.4,0,0.8,0,1.2-0.1c1.5,1.5,3.7,2.5,6,2.5
				c1.5,0,3-0.4,4.2-1.1c1.6,2,4,3.3,6.8,3.3c2.4,0,4.6-1,6.2-2.7c1.1,0.6,2.4,0.9,3.8,0.9c4.7,0,8.6-3.8,8.6-8.6
				c0-0.7-0.1-1.4-0.3-2.1C237.9,49.2,239.9,46.3,239.9,42.9z"/>
		</g>
	</g>
	<g id="Calque_10">
		<g id="Calque_6">
			<path class="st9" d="M148.1,214.7c-2.3,5.8,1.8,10.7,1.8,10.7l0.1,8.2c0,0,1.6,4.4,4.8,8c3.6,3.9,3.4,3.4,3.4,3.4
				c-0.1,0.2,4,1.7-0.4,1.2c-0.1,0-4.4-1.4-6.6-3.7c-2.2-2.3-2.7-1.6-4.6-0.1s-1,2.4-2.9,4.7s-7.6,2.6-7.6,2.6s-3.8,0.2-0.4-2.1
				c3.4-2.3,4.6-4.1,5.4-6c0.7-1.8,3.8-12.3,1.8-15.7c-0.7-1.2-1.1-7.1-1.2-7.3c-0.5-0.9-0.8-1.3-0.4-2.1c1.3-2.8,1.6-1.9,2.4-3.3
				c1.7-3.2,1.9-8.6,3.1-7.5c1.2,1.1,1.9,1.6,0.5,4.5C147,210.2,148.1,214.8,148.1,214.7z"/>
			<path class="st10" d="M165.4,205.6c0,0-8.4,2.2-11.1,8.7c-2.7,6.4-2.4,12.3-2.4,12.3l-0.3,9.3c0,0,0.8,7.2,4.3,11.2
				c3.4,4,3.4,4,3.4,4c0.1,0.6,5,3.3-0.4,1.3c-0.1,0-4.6-1.8-6.9-4.5s-2.3-3.9-4.4-2.2s-1.2,2.7-3.3,5.2c-2.1,2.5-8.2,2.5-8.2,2.5
				s-4,0-0.3-2.4c3.7-2.4,6.1-4.2,6-6.6s4.8-13.2,1.8-15.6c-3-2.4-2.2-10.6-3.1-11.4s-4.2-1.3-6-6.4c-1.8-5.1,0.6-5.8,0.6-5.8
				s4.6,7,5.7,7.5s6.9,3,8.8-0.6c1.9-3.6,2.4-9.7,3.6-8.4s1.9,1.9,0.3,5.1c-1.6,3.1,1.5-1.5,6.4-2.8
				C164.8,204.8,166.2,203.6,165.4,205.6z"/>
			<path class="st7" d="M181.5,192.2c0-4.7-3.8-8.6-8.6-8.6c-2.4,0-4.6,1-6.2,2.6c-1.6-2.2-4.1-3.6-7-3.6c-3.6,0-6.7,2.2-7.9,5.3
				c-1.2-3.2-4.3-5.5-8-5.5c-1.6,0-3,0.4-4.3,1.2c-1.6-1.7-3.8-2.8-6.3-2.8c-4.7,0-8.6,3.8-8.6,8.6c0,0.1,0,0.3,0,0.4
				c-4.4,0.4-7.8,4.1-7.8,8.5c0,4.7,3.8,8.6,8.6,8.6c1,0,1.9-0.2,2.8-0.5c1.6,1.9,3.9,3.1,6.6,3.1c2.2,0,4.2-0.8,5.7-2.2
				c1.5,1.3,3.5,2.2,5.7,2.2c1.6,0,3.1-0.5,4.4-1.2c1.5,1.3,3.4,2,5.5,2c2.8,0,5.2-1.3,6.8-3.4c1.1,0.5,2.3,0.8,3.6,0.8
				c4.3,0,7.8-3.1,8.5-7.2C178.7,199.6,181.5,196.2,181.5,192.2z M151.6,194.4c0-0.1,0-0.1,0.1-0.2c0,0.1,0,0.1,0.1,0.2
				C151.7,194.4,151.7,194.4,151.6,194.4C151.7,194.4,151.7,194.4,151.6,194.4z"/>
			<path class="st11" d="M180.3,181c0-4.7-3.8-8.6-8.6-8.6c-2.3,0-4.3,0.9-5.9,2.3c-1.5,0.7-2.8,1.8-3.7,3.1c-0.4,0.5-0.7,1-1,1.5
				c-0.3,0.2-0.7,0.4-1,0.6c-1.1-0.5-2.3-0.8-3.6-0.8c-1.3,0-2.5,0.3-3.7,0.8c-1.4-0.9-3-1.4-4.7-1.4c-2.2,0-4.2,0.8-5.7,2.2
				c-1.1-0.5-2.3-0.8-3.5-0.8c-1.3,0-2.5,0.3-3.6,0.8c-1.5-2.5-4.2-4.2-7.4-4.2c-1.5,0-3,0.4-4.2,1.1c-0.9-0.3-1.9-0.5-2.9-0.5
				c-4.7,0-8.6,3.8-8.6,8.6c0,3.6,2.3,6.7,5.5,8c-0.2,0.7-0.3,1.4-0.3,2.2c0,4.7,3.8,8.6,8.6,8.6c0.6,0,1.2-0.1,1.8-0.2
				c0.8,0.6,1.7,1.1,2.7,1.4c1.5,2.6,4.3,4.4,7.5,4.4c2.7,0,5.1-1.3,6.7-3.2c0.1,0,0.2,0,0.3,0c2.5,0,4.8-1.1,6.3-2.8
				c1.2,0.6,2.6,1,4,1c4.7,0,8.6-3.8,8.6-8.6c0-0.4,0-0.7-0.1-1.1c0.4,0.1,0.8,0.1,1.3,0.1c3.3,0,6.2-1.9,7.6-4.6
				c1.1-0.6,2-1.3,2.7-2.3C178.3,187.3,180.3,184.4,180.3,181z"/>
			<path class="st12" d="M176.5,170c0-2.7-1.2-5-3.1-6.6c-1.5-2.6-4.3-4.4-7.5-4.4c-0.7,0-1.5,0.1-2.2,0.3c-1.4-2.5-4.1-4.1-7.1-4.3
				c-1.6-1.8-3.9-3-6.5-3c-1.7,0-3.4,0.5-4.7,1.4c-0.1,0-0.2,0-0.3,0c-3.2,0-5.9,1.7-7.4,4.3c-0.5,0.4-1,0.8-1.5,1.3
				c-1.3-0.9-2.9-1.4-4.7-1.4c-4.7,0-8.5,3.7-8.6,8.4c-4.6,0.1-8.4,3.9-8.4,8.6c0,4.3,3.1,7.8,7.2,8.5c1.4,1.1,3.2,1.7,5.1,1.7
				c1.2,0,2.3-0.2,3.4-0.7c1.4,0.9,3,1.5,4.8,1.5c0.4,0,0.8,0,1.2-0.1c1.5,1.5,3.7,2.5,6,2.5c1.5,0,3-0.4,4.2-1.1
				c1.6,2,4,3.3,6.8,3.3c2.4,0,4.6-1,6.2-2.7c1.1,0.6,2.4,0.9,3.8,0.9c4.7,0,8.6-3.8,8.6-8.6c0-0.7-0.1-1.4-0.3-2.1
				C174.5,176.4,176.5,173.4,176.5,170z"/>
		</g>
		<g id="Calque_6_-_copie">
			<path class="st9" d="M217.5,172.8c-2.3,5.8,1.8,10.7,1.8,10.7l0.1,8.2c0,0,1.6,4.4,4.8,8c3.6,3.9,3.4,3.4,3.4,3.4
				c-0.1,0.2,4,1.7-0.4,1.2c-0.1,0-4.4-1.4-6.6-3.7c-2.2-2.3-2.7-1.6-4.6-0.1s-1,2.4-2.9,4.7s-7.6,2.6-7.6,2.6s-3.8,0.2-0.4-2.1
				c3.4-2.3,4.6-4.1,5.4-6c0.7-1.8,3.8-12.3,1.8-15.7c-0.7-1.2-1.1-7.1-1.2-7.3c-0.5-0.9-0.8-1.3-0.4-2.1c1.3-2.8,1.6-1.9,2.4-3.3
				c1.7-3.2,1.9-8.6,3.1-7.5c1.2,1.1,1.9,1.6,0.5,4.5C216.5,168.3,217.6,172.9,217.5,172.8z"/>
			<path class="st10" d="M234.8,163.8c0,0-8.4,2.2-11.1,8.7c-2.7,6.4-2.4,12.3-2.4,12.3l-0.3,9.3c0,0,0.8,7.2,4.3,11.2s3.4,4,3.4,4
				c0.1,0.6,5,3.3-0.4,1.3c-0.1,0-4.6-1.8-6.9-4.5c-2.2-2.7-2.3-3.9-4.4-2.2c-2.1,1.6-1.2,2.7-3.3,5.2c-2.1,2.5-8.2,2.5-8.2,2.5
				s-4,0-0.3-2.4c3.7-2.4,6.1-4.2,6-6.6s4.8-13.2,1.8-15.6s-2.2-10.6-3.1-11.4s-4.2-1.3-6-6.4c-1.8-5.1,0.6-5.8,0.6-5.8
				s4.6,7,5.7,7.5s6.9,3,8.8-0.6c1.9-3.6,2.4-9.7,3.6-8.4s1.9,1.9,0.3,5.1c-1.6,3.1,1.5-1.5,6.4-2.8
				C234.2,162.9,235.6,161.7,234.8,163.8z"/>
			<path class="st7" d="M250.9,150.3c0-4.7-3.8-8.6-8.6-8.6c-2.4,0-4.6,1-6.2,2.6c-1.6-2.2-4.1-3.6-7-3.6c-3.6,0-6.7,2.2-7.9,5.3
				c-1.2-3.2-4.3-5.5-8-5.5c-1.6,0-3,0.4-4.3,1.2c-1.6-1.7-3.8-2.8-6.3-2.8c-4.7,0-8.6,3.8-8.6,8.6c0,0.1,0,0.3,0,0.4
				c-4.4,0.4-7.8,4.1-7.8,8.5c0,4.7,3.8,8.6,8.6,8.6c1,0,1.9-0.2,2.8-0.5c1.6,1.9,3.9,3.1,6.6,3.1c2.2,0,4.2-0.8,5.7-2.2
				c1.5,1.3,3.5,2.2,5.7,2.2c1.6,0,3.1-0.5,4.4-1.2c1.5,1.3,3.4,2,5.5,2c2.8,0,5.2-1.3,6.8-3.4c1.1,0.5,2.3,0.8,3.6,0.8
				c4.3,0,7.8-3.1,8.5-7.2C248.1,157.7,250.9,154.3,250.9,150.3z M221.1,152.5c0-0.1,0-0.1,0.1-0.2c0,0.1,0,0.1,0.1,0.2
				C221.2,152.5,221.2,152.5,221.1,152.5C221.1,152.5,221.1,152.5,221.1,152.5z"/>
			<path class="st11" d="M249.7,139.1c0-4.7-3.8-8.6-8.6-8.6c-2.3,0-4.3,0.9-5.9,2.3c-1.5,0.7-2.8,1.8-3.7,3.1c-0.4,0.5-0.7,1-1,1.5
				c-0.3,0.2-0.7,0.4-1,0.6c-1.1-0.5-2.3-0.8-3.6-0.8c-1.3,0-2.5,0.3-3.7,0.8c-1.4-0.9-3-1.4-4.7-1.4c-2.2,0-4.2,0.8-5.7,2.2
				c-1.1-0.5-2.3-0.8-3.5-0.8c-1.3,0-2.5,0.3-3.6,0.8c-1.5-2.5-4.2-4.2-7.4-4.2c-1.5,0-3,0.4-4.2,1.1c-0.9-0.3-1.9-0.5-2.9-0.5
				c-4.7,0-8.6,3.8-8.6,8.6c0,3.6,2.3,6.7,5.5,8c-0.2,0.7-0.3,1.4-0.3,2.2c0,4.7,3.8,8.6,8.6,8.6c0.6,0,1.2-0.1,1.8-0.2
				c0.8,0.6,1.7,1.1,2.7,1.4c1.5,2.6,4.3,4.4,7.5,4.4c2.7,0,5.1-1.3,6.7-3.2c0.1,0,0.2,0,0.3,0c2.5,0,4.8-1.1,6.3-2.8
				c1.2,0.6,2.6,1,4,1c4.7,0,8.6-3.8,8.6-8.6c0-0.4,0-0.7-0.1-1.1c0.4,0.1,0.8,0.1,1.3,0.1c3.3,0,6.2-1.9,7.6-4.6
				c1.1-0.6,2-1.3,2.7-2.3C247.7,145.4,249.7,142.5,249.7,139.1z"/>
			<path class="st12" d="M245.9,128.1c0-2.7-1.2-5-3.1-6.6c-1.5-2.6-4.3-4.4-7.5-4.4c-0.7,0-1.5,0.1-2.2,0.3
				c-1.4-2.5-4.1-4.1-7.1-4.3c-1.6-1.8-3.9-3-6.5-3c-1.7,0-3.4,0.5-4.7,1.4c-0.1,0-0.2,0-0.3,0c-3.2,0-5.9,1.7-7.4,4.3
				c-0.5,0.4-1,0.8-1.5,1.3c-1.3-0.9-2.9-1.4-4.7-1.4c-4.7,0-8.5,3.7-8.6,8.4c-4.6,0.1-8.4,3.9-8.4,8.6c0,4.3,3.1,7.8,7.2,8.5
				c1.4,1.1,3.2,1.7,5.1,1.7c1.2,0,2.3-0.2,3.4-0.7c1.4,0.9,3,1.5,4.8,1.5c0.4,0,0.8,0,1.2-0.1c1.5,1.5,3.7,2.5,6,2.5
				c1.5,0,3-0.4,4.2-1.1c1.6,2,4,3.3,6.8,3.3c2.4,0,4.6-1,6.2-2.7c1.1,0.6,2.4,0.9,3.8,0.9c4.7,0,8.6-3.8,8.6-8.6
				c0-0.7-0.1-1.4-0.3-2.1C243.9,134.5,245.9,131.5,245.9,128.1z"/>
		</g>
		<g id="Calque_6_-_copie_2">
			<path class="st9" d="M284.9,134.5c-2.3,5.8,1.8,10.7,1.8,10.7l0.1,8.2c0,0,1.6,4.4,4.8,8c3.6,3.9,3.4,3.4,3.4,3.4
				c-0.1,0.2,4,1.7-0.4,1.2c-0.1,0-4.4-1.4-6.6-3.7c-2.2-2.3-2.7-1.6-4.6-0.1s-1,2.4-2.9,4.7c-1.9,2.3-7.6,2.6-7.6,2.6
				s-3.8,0.2-0.4-2.1s4.6-4.1,5.4-6c0.7-1.8,3.8-12.3,1.8-15.7c-0.7-1.2-1.1-7.1-1.2-7.3c-0.5-0.9-0.8-1.3-0.4-2.1
				c1.3-2.8,1.6-1.9,2.4-3.3c1.7-3.2,1.9-8.6,3.1-7.5s1.9,1.6,0.5,4.5C283.8,130,284.9,134.6,284.9,134.5z"/>
			<path class="st10" d="M302.2,125.4c0,0-8.4,2.2-11.1,8.7c-2.7,6.4-2.4,12.3-2.4,12.3l-0.3,9.3c0,0,0.8,7.2,4.3,11.2
				c3.4,4,3.4,4,3.4,4c0.1,0.6,5,3.3-0.4,1.3c-0.1,0-4.6-1.8-6.9-4.5c-2.2-2.7-2.3-3.9-4.4-2.2s-1.2,2.7-3.3,5.2
				c-2.1,2.5-8.2,2.5-8.2,2.5s-4,0-0.3-2.4c3.7-2.4,6.1-4.2,6-6.6s4.8-13.2,1.8-15.6c-3-2.4-2.2-10.6-3.1-11.4
				c-0.9-0.7-4.2-1.3-6-6.4c-1.8-5.1,0.6-5.8,0.6-5.8s4.6,7,5.7,7.5s6.9,3,8.8-0.6s2.4-9.7,3.6-8.4c1.2,1.3,1.9,1.9,0.3,5.1
				c-1.6,3.1,1.5-1.5,6.4-2.8C301.6,124.6,302.9,123.4,302.2,125.4z"/>
			<path class="st7" d="M318.2,112c0-4.7-3.8-8.6-8.6-8.6c-2.4,0-4.6,1-6.2,2.6c-1.6-2.2-4.1-3.6-7-3.6c-3.6,0-6.7,2.2-7.9,5.3
				c-1.2-3.2-4.3-5.5-8-5.5c-1.6,0-3,0.4-4.3,1.2c-1.6-1.7-3.8-2.8-6.3-2.8c-4.7,0-8.6,3.8-8.6,8.6c0,0.1,0,0.3,0,0.4
				c-4.4,0.4-7.8,4.1-7.8,8.5c0,4.7,3.8,8.6,8.6,8.6c1,0,1.9-0.2,2.8-0.5c1.6,1.9,3.9,3.1,6.6,3.1c2.2,0,4.2-0.8,5.7-2.2
				c1.5,1.3,3.5,2.2,5.7,2.2c1.6,0,3.1-0.5,4.4-1.2c1.5,1.3,3.4,2,5.5,2c2.8,0,5.2-1.3,6.8-3.4c1.1,0.5,2.3,0.8,3.6,0.8
				c4.3,0,7.8-3.1,8.5-7.2C315.5,119.4,318.2,116,318.2,112z M288.4,114.2c0-0.1,0-0.1,0.1-0.2c0,0.1,0,0.1,0.1,0.2
				C288.5,114.2,288.5,114.2,288.4,114.2C288.4,114.2,288.4,114.2,288.4,114.2z"/>
			<path class="st11" d="M317,100.8c0-4.7-3.8-8.6-8.6-8.6c-2.3,0-4.3,0.9-5.9,2.3c-1.5,0.7-2.8,1.8-3.7,3.1c-0.4,0.5-0.7,1-1,1.5
				c-0.3,0.2-0.7,0.4-1,0.6c-1.1-0.5-2.3-0.8-3.6-0.8c-1.3,0-2.5,0.3-3.7,0.8c-1.4-0.9-3-1.4-4.7-1.4c-2.2,0-4.2,0.8-5.7,2.2
				c-1.1-0.5-2.3-0.8-3.5-0.8c-1.3,0-2.5,0.3-3.6,0.8c-1.5-2.5-4.2-4.2-7.4-4.2c-1.5,0-3,0.4-4.2,1.1c-0.9-0.3-1.9-0.5-2.9-0.5
				c-4.7,0-8.6,3.8-8.6,8.6c0,3.6,2.3,6.7,5.5,8c-0.2,0.7-0.3,1.4-0.3,2.2c0,4.7,3.8,8.6,8.6,8.6c0.6,0,1.2-0.1,1.8-0.2
				c0.8,0.6,1.7,1.1,2.7,1.4c1.5,2.6,4.3,4.4,7.5,4.4c2.7,0,5.1-1.3,6.7-3.2c0.1,0,0.2,0,0.3,0c2.5,0,4.8-1.1,6.3-2.8
				c1.2,0.6,2.6,1,4,1c4.7,0,8.6-3.8,8.6-8.6c0-0.4,0-0.7-0.1-1.1c0.4,0.1,0.8,0.1,1.3,0.1c3.3,0,6.2-1.9,7.6-4.6
				c1.1-0.6,2-1.3,2.7-2.3C315,107.1,317,104.2,317,100.8z"/>
			<path class="st12" d="M313.2,89.8c0-2.7-1.2-5-3.1-6.6c-1.5-2.6-4.3-4.4-7.5-4.4c-0.7,0-1.5,0.1-2.2,0.3
				c-1.4-2.5-4.1-4.1-7.1-4.3c-1.6-1.8-3.9-3-6.5-3c-1.7,0-3.4,0.5-4.7,1.4c-0.1,0-0.2,0-0.3,0c-3.2,0-5.9,1.7-7.4,4.3
				c-0.5,0.4-1,0.8-1.5,1.3c-1.3-0.9-2.9-1.4-4.7-1.4c-4.7,0-8.5,3.7-8.6,8.4c-4.6,0.1-8.4,3.9-8.4,8.6c0,4.3,3.1,7.8,7.2,8.5
				c1.4,1.1,3.2,1.7,5.1,1.7c1.2,0,2.3-0.2,3.4-0.7c1.4,0.9,3,1.5,4.8,1.5c0.4,0,0.8,0,1.2-0.1c1.5,1.5,3.7,2.5,6,2.5
				c1.5,0,3-0.4,4.2-1.1c1.6,2,4,3.3,6.8,3.3c2.4,0,4.6-1,6.2-2.7c1.1,0.6,2.4,0.9,3.8,0.9c4.7,0,8.6-3.8,8.6-8.6
				c0-0.7-0.1-1.4-0.3-2.1C311.3,96.2,313.2,93.2,313.2,89.8z"/>
		</g>
	</g>
</g>
<g id="Calque_15">
	<polygon class="st0" points="262.9,228.3 254.2,233.3 280.7,248.6 289.4,243.6 	"/>
	<polygon class="st9" points="401.9,330.9 417.9,279.4 426.9,280.4 411.4,332.4 	"/>
	<polygon class="st9" points="478.4,351.9 473.7,354.6 455,343.8 454.7,343.6 447.2,339.3 417,338.6 406.6,331.8 450.1,331.2 
		463.2,338.7 463.4,338.8 477.1,346.6 477.5,348.3 	"/>
	<polygon class="st0" points="412.9,277.4 341.1,301.9 340.4,294.2 408,270.3 	"/>
	<polygon class="st0" points="325.6,283.4 333.1,237.4 340.9,238.1 333.4,289.4 	"/>
	<polygon class="st0" points="327.6,237.6 280.7,248.6 282.8,239.9 325.6,229.9 	"/>
	<g id="Calque_14">
		<path class="st9" d="M422.4,348.2c0,0.3,0,0.6-0.1,1v0c-0.9,7.1-11.8,12.7-25.1,12.7c-13.3,0-24.1-5.5-25.1-12.6
			c0-0.3-0.1-0.6-0.1-0.8c0-0.1,0-0.2,0-0.2c0-0.1,0-0.2,0-0.2c0-0.8,0.2-1.6,0.4-2.4c0.2-0.6,0.5-1.2,0.9-1.8
			c1.6-2.5,4.5-4.7,8.2-6.3c1.1-0.5,2.2-0.9,3.5-1.3c-0.2,0.1-0.4,0.2-0.6,0.3c-3.2,1.9-5,4.3-5.2,6.8c0.3,2.5,2,4.9,5.2,6.7
			c7,4.1,18.5,4.1,25.5,0c3.3-1.8,5-4.3,5.3-6.7c-0.3-2.5-2-4.9-5.3-6.8c-0.2-0.1-0.4-0.2-0.6-0.3c1.2,0.4,2.4,0.8,3.5,1.3
			c3.7,1.6,6.5,3.7,8.1,6.1c0.5,0.7,0.8,1.3,1,2C422.2,346.5,422.4,347.3,422.4,348.2z"/>
		<polygon class="st9" points="372,349.4 372,342.7 377,347.2 		"/>
		<polygon class="st9" points="422.4,342.9 422.4,349.1 419.9,351.8 418.6,344.7 		"/>
		<path class="st10" d="M421.3,338.7c-1.4-2.8-4.3-5.2-8-7h0c-0.5-0.2-0.9-0.5-1.5-0.7c-2.7-1.1-5.8-1.9-9.2-2.4
			c-1.7-0.2-3.5-0.3-5.4-0.3c-13.8,0-25,6.4-25.2,14.4c0,0.1,0,0.1,0,0.2c0,0.1,0,0.2,0,0.3c0,0.8,0.2,1.7,0.4,2.5
			c0.3,1,0.8,1.9,1.5,2.8c3.8,5.3,12.8,9,23.3,9c9.7,0,18.1-3.1,22.3-7.7c1.1-1.3,2-2.6,2.5-4.1c0.3-0.9,0.5-1.8,0.5-2.8
			C422.4,341.4,422,340.1,421.3,338.7z M409.9,350.1c-7,4.1-18.5,4.1-25.5,0c-3.3-1.9-5-4.3-5.2-6.7c0.3-2.5,2-4.9,5.2-6.8
			c0.2-0.1,0.4-0.2,0.6-0.3c6.9-3.7,17.5-3.7,24.4,0c0.2,0.1,0.4,0.2,0.6,0.3c3.3,1.9,5,4.3,5.3,6.8
			C414.9,345.8,413.2,348.2,409.9,350.1z"/>
		<path class="st9" d="M415.2,343.3c-0.3-2.5-2-4.9-5.3-6.8c-0.2-0.1-0.4-0.2-0.6-0.3c-6.9-3.6-17.5-3.6-24.4,0
			c-0.2,0.1-0.4,0.2-0.6,0.3c-3.2,1.9-5,4.3-5.2,6.8c-0.2-2,0.6-4,2.4-5.8c0.8-0.8,1.7-1.5,2.9-2.2c7-4.1,18.5-4.1,25.5,0
			c1.2,0.7,2.1,1.4,2.9,2.2C414.6,339.3,415.4,341.3,415.2,343.3z"/>
	</g>
	<g id="Calque_14_-_copie_2">
		<path class="st0" d="M346.4,301.7c0,0.3,0,0.6-0.1,1c-0.9,7.1-11.8,12.7-25.1,12.7c-13.3,0-24.1-5.5-25.1-12.6
			c0-0.3-0.1-0.6-0.1-0.8c0-0.1,0-0.2,0-0.2c0-0.1,0-0.2,0-0.2c0-0.8,0.2-1.6,0.4-2.4c0.2-0.6,0.5-1.2,0.9-1.8
			c1.6-2.5,4.5-4.7,8.2-6.3c1.1-0.5,2.2-0.9,3.5-1.3c-0.2,0.1-0.4,0.2-0.6,0.3c-3.2,1.9-5,4.3-5.2,6.8c0.3,2.5,2,4.9,5.2,6.7
			c7,4.1,18.5,4.1,25.5,0c3.3-1.8,5-4.3,5.3-6.7c-0.3-2.5-2-4.9-5.3-6.8c-0.2-0.1-0.4-0.2-0.6-0.3c1.2,0.4,2.4,0.8,3.5,1.3
			c1.8,0.8,3.5,1.7,4.8,2.8c1.3,1,2.4,2.1,3.2,3.3c0.5,0.7,0.8,1.3,1,2c0.1,0.3,0.2,0.7,0.3,1C346.3,300.7,346.4,301.2,346.4,301.7z
			"/>
		<polygon class="st0" points="296,302.9 296,296.2 301,300.7 		"/>
		<polygon class="st0" points="346.4,296.4 346.4,302.6 343.9,305.3 342.6,298.2 		"/>
		<path class="st2" d="M345.4,292.4c-1.8-3.6-5.8-6.6-11.3-8.5c-2.5-0.9-5.3-1.5-8.3-1.8c-1.5-0.2-3.1-0.3-4.7-0.3
			c-13.8,0-25,6.4-25.2,14.4c0,0.1,0,0.1,0,0.2c0,0.1,0,0.2,0,0.3c0,0.8,0.2,1.7,0.4,2.5c0.3,1,0.8,1.9,1.5,2.8
			c3.8,5.3,12.8,9,23.3,9c9.7,0,18.1-3.1,22.3-7.7c0.8-0.9,1.5-1.8,2-2.8c0.2-0.4,0.4-0.8,0.5-1.3c0.3-0.9,0.5-1.8,0.5-2.8
			C346.4,295,346.1,293.7,345.4,292.4z M333.9,303.6c-7,4.1-18.5,4.1-25.5,0c-3.3-1.9-5-4.3-5.2-6.7c0.3-2.5,2-4.9,5.2-6.8
			c0.2-0.1,0.4-0.2,0.6-0.3c6.9-3.7,17.5-3.7,24.4,0c0.2,0.1,0.4,0.2,0.6,0.3c3.3,1.9,5,4.3,5.3,6.8
			C338.9,299.3,337.2,301.7,333.9,303.6z"/>
		<path class="st0" d="M339.2,296.8c-0.3-2.5-2-4.9-5.3-6.8c-0.2-0.1-0.4-0.2-0.6-0.3c-6.9-3.6-17.5-3.6-24.4,0
			c-0.2,0.1-0.4,0.2-0.6,0.3c-3.2,1.9-5,4.3-5.2,6.8c-0.2-2,0.6-4,2.4-5.8c0.8-0.8,1.7-1.5,2.9-2.2c6.1-3.5,15.4-4,22.4-1.4
			c0.9,0.3,1.8,0.7,2.7,1.2c0.2,0.1,0.3,0.2,0.4,0.2c1.2,0.7,2.1,1.4,2.9,2.2C338.6,292.8,339.4,294.8,339.2,296.8z"/>
	</g>
	<g id="Calque_14_-_copie">
		<path class="st9" d="M450,271.6c0,0.3,0,0.5-0.1,0.8c-0.8,6.1-10.2,11-21.7,11c-0.8,0-1.5,0-2.2-0.1c-3.2-0.2-6.2-0.7-8.9-1.6
			c-2.7-0.9-5.1-2.1-6.8-3.5c-2.1-1.7-3.5-3.6-3.8-5.8c0-0.3-0.1-0.5-0.1-0.7c0-0.1,0-0.1,0-0.2s0-0.1,0-0.2c0-0.2,0-0.4,0-0.6
			c0-0.5,0.2-1,0.3-1.5c0.2-0.5,0.4-1,0.7-1.5c1.4-2.2,3.9-4.1,7.1-5.5c1-0.4,2-0.8,3-1.1c-0.2,0.1-0.4,0.2-0.5,0.3
			c-2.8,1.6-4.3,3.7-4.5,5.8c0.2,2.1,1.7,4.2,4.5,5.8c6.1,3.5,16,3.5,22.1,0c2.8-1.6,4.3-3.7,4.5-5.8c-0.2-2.1-1.7-4.2-4.5-5.8
			c-0.2-0.1-0.4-0.2-0.5-0.3c1.1,0.3,2.1,0.7,3,1.1c3.1,1.3,5.6,3.2,7,5.3c0.4,0.6,0.7,1.2,0.9,1.8C449.9,270.1,450,270.8,450,271.6
			z"/>
		<polygon class="st9" points="406.5,272.6 406.5,266.8 410.8,270.7 		"/>
		<polygon class="st9" points="450,267 450,272.4 447.8,274.7 446.8,268.5 		"/>
		<path class="st10" d="M428.3,254.4c-11.9,0-21.6,5.6-21.8,12.4c0,0,0,0.1,0,0.2c0,0.1,0,0.1,0,0.2c0,0.7,0.2,1.5,0.4,2.2
			c0.1,0.4,0.3,0.8,0.5,1.2c0.2,0.4,0.5,0.9,0.8,1.3c0.7,1,1.6,1.9,2.8,2.8h0l0,0c4,3,10.3,5,17.3,5c8.4,0,15.6-2.7,19.3-6.7
			c1-1.1,1.7-2.3,2.1-3.5c0.3-0.8,0.4-1.6,0.4-2.4C450,260,440.3,254.4,428.3,254.4z M439.3,273.2c-6.1,3.5-16,3.5-22.1,0
			c-2.8-1.6-4.3-3.7-4.5-5.8c0.2-2.1,1.7-4.2,4.5-5.8c0.2-0.1,0.3-0.2,0.5-0.3c5.9-3.1,15.1-3.1,21,0c0.2,0.1,0.4,0.2,0.5,0.3
			c2.8,1.6,4.3,3.7,4.5,5.8C443.6,269.5,442.1,271.6,439.3,273.2z"/>
		<path class="st9" d="M443.8,267.4c-0.2-2.1-1.7-4.2-4.5-5.8c-0.2-0.1-0.4-0.2-0.5-0.3c-5.9-3.1-15.1-3.1-21,0
			c-0.2,0.1-0.4,0.2-0.5,0.3c-2.8,1.6-4.3,3.7-4.5,5.8c-0.2-1.7,0.5-3.5,2-5c0.7-0.7,1.5-1.3,2.5-1.9c6.1-3.5,16-3.5,22.1,0
			c1,0.6,1.8,1.2,2.5,1.9C443.3,263.9,444,265.6,443.8,267.4z"/>
	</g>
	<g id="Calque_14_-_copie_3">
		<path class="st0" d="M363.5,230.1c0,0.3,0,0.5-0.1,0.8c-0.8,6.1-10.2,11-21.7,11c-0.5,0-0.9,0-1.4,0c-2.8-0.1-5.4-0.5-7.8-1.1
			c-2.6-0.7-4.9-1.6-6.8-2.7c-3.1-1.8-5.2-4.3-5.7-6.9c0-0.1,0-0.1,0-0.2c0-0.3-0.1-0.5-0.1-0.7c0-0.1,0-0.1,0-0.2s0-0.1,0-0.2
			c0-0.7,0.2-1.4,0.4-2c0.2-0.5,0.4-1,0.7-1.5c1.4-2.2,3.9-4.1,7.1-5.5c1-0.4,2-0.8,3-1.1c-0.2,0.1-0.4,0.2-0.5,0.3
			c-2.8,1.6-4.3,3.7-4.5,5.8c0.2,2.1,1.7,4.2,4.5,5.8c6.1,3.5,16,3.5,22.1,0c2.8-1.6,4.3-3.7,4.5-5.8c-0.2-2.1-1.7-4.2-4.5-5.8
			c-0.2-0.1-0.4-0.2-0.5-0.3c1.1,0.3,2.1,0.7,3,1.1c3.1,1.3,5.6,3.2,7,5.3c0.4,0.6,0.7,1.2,0.9,1.8
			C363.4,228.6,363.5,229.3,363.5,230.1z"/>
		<polygon class="st0" points="320,231.1 320,225.3 324.3,229.2 		"/>
		<polygon class="st0" points="363.5,225.5 363.5,230.9 361.3,233.2 360.3,227 		"/>
		<path class="st2" d="M341.8,212.9c-11.9,0-21.6,5.5-21.8,12.4c0,0,0,0.1,0,0.2c0,0.1,0,0.1,0,0.2c0,0.7,0.2,1.5,0.4,2.2
			c0.3,0.9,0.7,1.7,1.3,2.5c0.1,0.1,0.2,0.3,0.3,0.4c1.2,1.5,2.8,2.8,4.9,3.9c3.1,1.7,7.1,2.9,11.6,3.3c1.1,0.1,2.2,0.1,3.3,0.1
			c8.4,0,15.6-2.7,19.3-6.7c1-1.1,1.7-2.3,2.1-3.5c0.3-0.8,0.4-1.6,0.4-2.4C363.5,218.5,353.8,212.9,341.8,212.9z M352.8,231.7
			c-6.1,3.5-16,3.5-22.1,0c-2.8-1.6-4.3-3.7-4.5-5.8c0.2-2.1,1.7-4.2,4.5-5.8c0.2-0.1,0.3-0.2,0.5-0.3c5.9-3.1,15.1-3.1,21,0
			c0.2,0.1,0.4,0.2,0.5,0.3c2.8,1.6,4.3,3.7,4.5,5.8C357.1,228,355.6,230.1,352.8,231.7z"/>
		<path class="st0" d="M357.3,225.9c-0.2-2.1-1.7-4.2-4.5-5.8c-0.2-0.1-0.4-0.2-0.5-0.3c-5.9-3.1-15.1-3.1-21,0
			c-0.2,0.1-0.4,0.2-0.5,0.3c-2.8,1.6-4.3,3.7-4.5,5.8c-0.2-1.7,0.5-3.5,2-5c0.7-0.7,1.5-1.3,2.5-1.9c6.1-3.5,16-3.5,22.1,0
			c1,0.6,1.8,1.2,2.5,1.9C356.8,222.4,357.5,224.1,357.3,225.9z"/>
		<polygon class="st9" points="479.7,357.8 444.4,349.9 453.7,344.5 455,343.8 462.2,339.5 463.4,338.8 474,332.7 477.1,346.6 
			477.5,348.3 478.4,351.9 478.4,352.2 		"/>
	</g>
</g>
</svg>
