<?xml version="1.0" encoding="utf-8"?>
<!-- Generator: Adobe Illustrator 21.0.0, SVG Export Plug-In . SVG Version: 6.00 Build 0)  -->
<svg version="1.1" id="Calque_1" xmlns="http://www.w3.org/2000/svg" xmlns:xlink="http://www.w3.org/1999/xlink" x="0px" y="0px"
	 viewBox="0 0 506 498" style="enable-background:new 0 0 506 498;" xml:space="preserve">
<style type="text/css">
	.st0{opacity:0.4;fill:#D6D8E5;enable-background:new    ;}
	.st1{fill:#B1B4C4;}
	.st2{fill:#616E84;}
	.st3{fill:#757B89;}
	.st4{fill:#20232D;}
	.st5{fill:#2B303F;}
	.st6{opacity:0.5;fill:url(#SVGID_1_);enable-background:new    ;}
	.st7{opacity:0.1;fill:#FFFFFF;enable-background:new    ;}
	.st8{fill:#D6D8E5;}
	.st9{fill:#B91EBD;}
	.st10{opacity:0.5;fill:url(#SVGID_2_);enable-background:new    ;}
	.st11{fill:#2FA5FA;}
	.st12{fill:#5B43A1;}
	.st13{fill:#9EA1AF;}
	.st14{fill:#C4C7D6;}
	.st15{fill:#E4E7F2;}
	.st16{fill:#FFFFFF;}
	.st17{fill:#F5F6FF;}
	.st18{fill:none;stroke:#E9EAF2;stroke-width:0.31;stroke-miterlimit:10;}
	.st19{fill:none;stroke:#B91EBD;stroke-width:1.53;stroke-miterlimit:10;}
	.st20{fill:#B91EBD;enable-background:new    ;}
	.st21{fill:#333A47;}
	.st22{fill:#EBEEFC;}
	.st23{fill:#414854;}
</style>
<g id="Calque_6">
	<path class="st0" d="M145.8,487.3l-95.1-54.9c-3.9-2.2-4.3-5.6-0.9-7.5l39.4-22.7c3.3-1.9,9.1-1.7,13,0.5l95.1,54.9
		c3.9,2.2,4.3,5.6,0.9,7.5l-39.4,22.7C155.4,489.7,149.6,489.5,145.8,487.3z"/>
	<path class="st1" d="M140.8,484.3l-95.1-54.9c-3.9-2.2-4.3-5.6-0.9-7.5l39.4-22.7c3.3-1.9,9.1-1.7,13,0.5l95.1,54.9
		c3.9,2.2,4.3,5.6,0.9,7.5l-39.4,22.7C150.4,486.7,144.6,486.5,140.8,484.3z"/>
	<polygon class="st1" points="191.1,456.8 195.4,455.1 195.4,458.8 	"/>
	<polygon class="st1" points="45.9,423.7 42.5,421.5 42.5,425 	"/>
	<path class="st2" d="M140.8,481.2l-95.1-54.9c-3.9-2.2-4.3-5.6-0.9-7.5l39.4-22.7c3.3-1.9,9.1-1.7,13,0.5l95.1,54.9
		c3.9,2.2,4.3,5.6,0.9,7.5l-39.4,22.7C150.4,483.7,144.6,483.4,140.8,481.2z"/>
	<ellipse transform="matrix(0.5 -0.866 0.866 0.5 -306.6284 394.9879)" class="st3" cx="188.8" cy="463" rx="0.7" ry="0.4"/>
	<ellipse transform="matrix(0.5 -0.866 0.866 0.5 -308.531 393.9076)" class="st3" cx="186.9" cy="464.1" rx="0.7" ry="0.4"/>
	<ellipse transform="matrix(0.5 -0.866 0.866 0.5 -310.42 392.8038)" class="st3" cx="185" cy="465.2" rx="0.7" ry="0.4"/>
	<ellipse transform="matrix(0.5 -0.866 0.866 0.5 -312.3176 391.715)" class="st3" cx="183.1" cy="466.3" rx="0.7" ry="0.4"/>
	<ellipse transform="matrix(0.4983 -0.867 0.867 0.4983 -331.1058 382.925)" class="st3" cx="165.3" cy="477.6" rx="0.7" ry="0.4"/>
	<ellipse transform="matrix(0.5 -0.866 0.866 0.5 -330.4785 381.2185)" class="st3" cx="164.9" cy="476.8" rx="0.7" ry="0.4"/>
	<ellipse transform="matrix(0.5 -0.866 0.866 0.5 -332.3712 380.1383)" class="st3" cx="163" cy="477.9" rx="0.7" ry="0.4"/>
	<ellipse transform="matrix(0.5 -0.866 0.866 0.5 -334.2701 379.0444)" class="st3" cx="161.1" cy="479" rx="0.7" ry="0.4"/>
	<path class="st3" d="M171.7,472.9L171.7,472.9c0-0.5,0.2-0.9,0.6-1.1l5.2-3c0.3-0.2,0.6,0,0.6,0.5l0,0c0,0.5-0.2,0.9-0.6,1.1
		l-5.2,3C172,473.5,171.7,473.3,171.7,472.9z"/>
	<path class="st3" d="M53.9,432.6L53.9,432.6c0-0.4,0.3-0.6,0.5-0.4l4.8,2.8c0.3,0.2,0.6,0.6,0.6,1.1l0,0c0,0.4-0.3,0.6-0.6,0.4
		l-4.8-2.8C54.1,433.4,53.9,433,53.9,432.6z"/>
	<path class="st3" d="M61.3,436.8L61.3,436.8c0-0.4,0.3-0.6,0.6-0.4l4.8,2.8c0.3,0.2,0.5,0.6,0.5,1.1l0,0c0,0.4-0.2,0.6-0.5,0.4
		l-4.8-2.8C61.5,437.7,61.3,437.3,61.3,436.8z"/>
	<path class="st4" d="M140.8,480.6l-95.1-54.9c-3.9-2.2-4.3-5.6-0.9-7.5l39.4-22.7c3.3-1.9,9.1-1.7,13,0.5l95.1,54.9
		c3.9,2.2,4.3,5.6,0.9,7.5l-39.4,22.7C150.4,483.1,144.6,482.9,140.8,480.6z"/>
	<path class="st5" d="M49,424l92.6,53.5c2.7,1.4,5.8,1.4,8.5,0l37.3-21.5c2.3-1.3,2.3-3.5,0-4.9l-92.6-53.5c-2.7-1.4-5.8-1.4-8.5,0
		l-15.4,8.9l0,0c1.8,1,1.8,2.8,0,3.8c-2.1,1-4.5,1-6.6,0l0,0L49,419.1C46.6,420.5,46.6,422.7,49,424z"/>
	
		<linearGradient id="SVGID_1_" gradientUnits="userSpaceOnUse" x1="-1849.714" y1="-2326.9822" x2="-1849.714" y2="-2225.9224" gradientTransform="matrix(-0.87 0.5 -1 -0.58 -3756.6648 48.3667)">
		<stop  offset="0.21" style="stop-color:#FFFFFF;stop-opacity:0"/>
		<stop  offset="1" style="stop-color:#FFFFFF;stop-opacity:0.2"/>
	</linearGradient>
	<path class="st6" d="M49,424l92.6,53.5c2.7,1.4,5.8,1.4,8.5,0l37.3-21.5c2.3-1.3,2.3-3.5,0-4.9l-92.6-53.5c-2.7-1.4-5.8-1.4-8.5,0
		l-15.4,8.9l0,0c1.8,1,1.8,2.8,0,3.8c-2.1,1-4.5,1-6.6,0l0,0L49,419.1C46.6,420.5,46.6,422.7,49,424z"/>
	<ellipse class="st5" cx="68.7" cy="409" rx="1.8" ry="1"/>
	<path class="st7" d="M68.2,409.3c-0.1,0-0.2-0.1-0.2-0.2c-0.1-0.2,0-0.3,0.2-0.4c0.3-0.2,0.7-0.2,1,0c0.3,0.2,0.3,0.4,0,0.6
		C68.9,409.4,68.5,409.4,68.2,409.3z"/>
</g>
<g id="Calque_5">
	<path class="st1" d="M401.1,256.7l-12.6-7.3c-3.9-2.2-4.3-5.6-0.9-7.5l10.7-6.2c3.3-1.9,9.2-1.7,13,0.5l12.6,7.3
		c3.8,2.2,4.3,5.6,0.9,7.5l-10.7,6.2C410.8,259.2,405,258.9,401.1,256.7z"/>
	<path class="st1" d="M388.9,243.3l-3.6-2c0,0,0,3.4,0,3.5L388.9,243.3z"/>
	<polygon class="st1" points="355.9,219.7 353.4,218.9 353.4,220.4 	"/>
	<path class="st0" d="M409.3,258.6c0,0,3.2-0.1,4.5,0.7h0.1l41,21.7c3.7,2.1,9.5,2.3,12.8,0l0,0c3.7-2.2,2.8-6.2-0.9-8.3l-39.4-21.3
		c-0.9-0.6-1.4-1.6-1.4-2.7l-7,0.9l1.9,1.9l-7.4,6c-0.6,0.2-1.1,0.5-1.7,0.6C411,258.4,410.2,258.5,409.3,258.6z M432,260.6
		c0.2,0.1,0.4,0.2,0.5,0.5c0.1,0.4-0.1,0.8-0.5,0.9c-0.7,0.4-1.6,0.4-2.3,0c-0.2-0.1-0.4-0.2-0.4-0.4c-0.1-0.4,0.1-0.8,0.4-0.9
		C430.4,260.2,431.3,260.2,432,260.6z M433.4,262.7c0.7-0.4,1.6-0.4,2.3,0c0.2,0.1,0.4,0.2,0.5,0.5c0.1,0.4-0.1,0.8-0.5,0.9
		c-0.7,0.4-1.6,0.4-2.3,0c-0.2-0.1-0.4-0.2-0.4-0.4C432.8,263.2,433,262.8,433.4,262.7L433.4,262.7z M437,264.8
		c0.7-0.4,1.6-0.4,2.3,0c0.2,0.1,0.4,0.2,0.4,0.4c0.1,0.4-0.1,0.8-0.4,0.9c-0.7,0.4-1.6,0.4-2.3,0c-0.2-0.1-0.4-0.2-0.4-0.4
		C436.5,265.3,436.6,264.9,437,264.8L437,264.8z M440.6,266.9c0.7-0.4,1.6-0.4,2.3,0c0.2,0.1,0.4,0.2,0.4,0.4
		c0.1,0.4-0.1,0.8-0.4,0.9c-0.7,0.4-1.6,0.4-2.3,0c-0.2-0.1-0.4-0.2-0.4-0.4C440.1,267.4,440.3,267,440.6,266.9L440.6,266.9z
		 M444.3,269c0.7-0.4,1.6-0.4,2.3,0c0.2,0.1,0.4,0.2,0.4,0.4c0.1,0.4-0.1,0.8-0.4,0.9c-0.7,0.4-1.6,0.4-2.3,0
		c-0.2-0.1-0.4-0.2-0.4-0.4C443.7,269.5,443.9,269.1,444.3,269L444.3,269z M453.7,274.6c-0.7,0.3-1.6,0.3-2.3-0.1
		c-0.6-0.4-0.5-1,0.2-1.3c0.7-0.3,1.6-0.3,2.3,0.1C454.5,273.7,454.4,274.3,453.7,274.6L453.7,274.6z M450.1,272.5
		c-0.7,0.3-1.6,0.3-2.3-0.1c-0.6-0.4-0.5-1,0.2-1.3c0.7-0.3,1.6-0.3,2.3,0.1C450.9,271.6,450.8,272.2,450.1,272.5L450.1,272.5z"/>
	<path class="st1" d="M409.2,256.9c0,0,3.3,0,4.6,0.8h0.1l38.6,22.3c4.3,2.1,9.3,2.1,13.5,0l0,0c3.7-2.2,3.7-5.6,0-7.8l-38.6-22.3
		c-0.9-0.6-1.4-1.6-1.4-2.7l-7,0.9l1.9,1.9l-7,4l-3.2-1.1L409.2,256.9z M431.9,259c0.2,0.1,0.4,0.2,0.4,0.4c0.1,0.4-0.1,0.8-0.4,0.9
		c-0.7,0.4-1.6,0.4-2.3,0c-0.2-0.1-0.4-0.2-0.4-0.4c-0.1-0.4,0.1-0.8,0.4-0.9C430.4,258.6,431.2,258.6,431.9,259z M433.3,261.1
		c0.7-0.4,1.6-0.4,2.3,0c0.2,0.1,0.4,0.2,0.4,0.4c0.1,0.4-0.1,0.8-0.4,0.9c-0.7,0.4-1.6,0.4-2.3,0c-0.2-0.1-0.4-0.2-0.4-0.4
		C432.7,261.6,432.9,261.2,433.3,261.1L433.3,261.1z M436.9,263.2c0.7-0.4,1.6-0.4,2.3,0c0.2,0.1,0.4,0.2,0.4,0.4
		c0.1,0.4-0.1,0.8-0.4,0.9c-0.7,0.4-1.6,0.4-2.3,0c-0.2-0.1-0.4-0.2-0.4-0.4C436.4,263.7,436.6,263.3,436.9,263.2L436.9,263.2z
		 M440.6,265.3c0.7-0.4,1.6-0.4,2.3,0c0.2,0.1,0.4,0.2,0.4,0.4c0.1,0.4-0.1,0.8-0.4,0.9c-0.7,0.4-1.6,0.4-2.3,0
		c-0.2-0.1-0.4-0.2-0.4-0.4C440,265.8,440.2,265.4,440.6,265.3L440.6,265.3z M446.5,267.3c0.2,0.1,0.4,0.2,0.4,0.4
		c0.1,0.4-0.1,0.8-0.4,0.9c-0.7,0.4-1.6,0.4-2.3,0c-0.6-0.3-0.6-1,0-1.3C444.9,267,445.7,267,446.5,267.3z M453.7,273
		c-0.8,0.3-1.6,0.3-2.3-0.2c-0.6-0.4-0.5-1,0.2-1.3c0.7-0.3,1.6-0.3,2.3,0.1C454.4,272,454.3,272.6,453.7,273L453.7,273z M450,270.9
		c-0.8,0.3-1.6,0.3-2.3-0.2c-0.6-0.4-0.5-1,0.2-1.3c0.7-0.3,1.6-0.3,2.3,0.1C450.8,269.9,450.7,270.5,450,270.9L450,270.9z"/>
	<path class="st8" d="M409.2,255.3c0,0,3.3,0.2,4.6,1h0.1l38.6,22.3c4.2,2.2,9.3,2.2,13.5,0l0,0c3.7-2.2,3.7-5.7,0-7.8l-38.7-22.3
		c-1.4-0.8-0.5-2.7-0.5-2.7l-7.8,0.9l1.9,1.9l-7,4l-3.2-1.1L409.2,255.3z M429.6,257.6c0.7-0.4,1.6-0.4,2.3,0
		c0.2,0.1,0.4,0.2,0.4,0.4c0.1,0.4-0.1,0.8-0.4,0.9c-0.7,0.4-1.6,0.4-2.3,0c-0.2-0.1-0.4-0.2-0.4-0.4
		C429.1,258.1,429.3,257.7,429.6,257.6L429.6,257.6z M433.3,259.7c0.7-0.4,1.6-0.4,2.3,0c0.2,0.1,0.4,0.2,0.4,0.4
		c0.1,0.4-0.1,0.8-0.4,0.9c-0.7,0.4-1.6,0.4-2.3,0c-0.2-0.1-0.4-0.2-0.4-0.4C432.7,260.2,432.9,259.8,433.3,259.7L433.3,259.7z
		 M436.9,261.8c0.7-0.4,1.6-0.4,2.3,0c0.2,0.1,0.4,0.2,0.4,0.4c0.1,0.4-0.1,0.8-0.4,0.9c-0.7,0.4-1.6,0.4-2.3,0
		c-0.2-0.1-0.4-0.2-0.4-0.4C436.4,262.3,436.6,261.9,436.9,261.8L436.9,261.8z M440.6,263.9c0.7-0.4,1.6-0.4,2.3,0
		c0.2,0.1,0.4,0.2,0.4,0.4c0.1,0.4-0.1,0.8-0.4,0.9c-0.7,0.4-1.6,0.4-2.3,0c-0.2-0.1-0.4-0.2-0.5-0.5
		C440,264.4,440.2,264,440.6,263.9L440.6,263.9z M446.5,266c0.2,0.1,0.4,0.2,0.4,0.4c0.1,0.4-0.1,0.8-0.4,0.9
		c-0.7,0.4-1.6,0.4-2.3,0c-0.3-0.1-0.5-0.3-0.5-0.5c-0.1-0.4,0.1-0.8,0.5-0.8C444.9,265.6,445.7,265.6,446.5,266z M453.7,271.6
		c-0.7,0.3-1.6,0.3-2.3-0.1c-0.6-0.4-0.5-1,0.2-1.3c0.7-0.3,1.6-0.3,2.3,0.1C454.4,270.6,454.3,271.2,453.7,271.6L453.7,271.6z
		 M450,269.5c-0.7,0.3-1.6,0.3-2.3-0.1c-0.6-0.4-0.5-1,0.2-1.3c0.7-0.3,1.6-0.3,2.3,0.1C450.8,268.5,450.7,269.1,450,269.5
		L450,269.5z"/>
	<path class="st0" d="M385.3,244v-1.7l3.9-0.6l7-4l3.2,1.1l1.6-4c0,0-3.3,0-4.6-0.8l-26.6-15.3c-4.3-2.1-9.3-2.1-13.5,0l0,0
		c-0.4,1.7-0.7,3.5-0.8,5.3l27.4,17.6c0,0,0,0,0.1,0C383.8,242.1,384.7,243,385.3,244z M366.8,228.5c-0.8,0.4-1.7,0.4-2.5,0
		c-0.2-0.1-0.4-0.2-0.5-0.5c-0.1-0.4,0.1-0.8,0.5-1l6.6-3.8c0.8-0.4,1.7-0.4,2.5,0c0.2,0.1,0.4,0.3,0.5,0.5c0.1,0.4-0.1,0.8-0.5,1
		L366.8,228.5L366.8,228.5z"/>
	<path class="st1" d="M385.3,242.3l5.9-0.8l-1.9-1.9l7-4l3.2,1.1l1.6-4c0,0-3.3,0-4.6-0.8l-26.6-15.4c-4.3-2.2-9.3-2.2-13.5,0l0,0
		c-3.7,2.2-3.7,5.6,0,7.8l26.5,15.3c0,0,0,0,0.1,0.1C383.8,240.4,384.7,241.3,385.3,242.3z M364.3,226.5c-0.2-0.1-0.4-0.3-0.5-0.5
		c-0.1-0.4,0.1-0.8,0.5-1l6.6-3.8c0.8-0.4,1.7-0.4,2.5,0c0.2,0.1,0.4,0.3,0.5,0.5c0.1,0.4-0.1,0.8-0.5,1l-6.6,3.8
		C366,226.9,365.1,226.9,364.3,226.5z"/>
	<path class="st8" d="M385.5,240.7l5.7-0.6l-1.9-1.9l7-4l3.2,1.1l1.6-4c0,0-3.3,0-4.6-0.8l-26.6-15.4c-4.3-2.2-9.3-2.2-13.5,0l0,0
		c-3.7,2.2-3.7,5.7,0,7.8l26.5,15.3h0.1C383.9,239,384.7,239.8,385.5,240.7z M366.8,225.1c-0.8,0.4-1.7,0.4-2.5,0.1
		c-0.2-0.1-0.4-0.3-0.5-0.5c-0.1-0.4,0.1-0.8,0.5-1l6.6-3.8c0.8-0.4,1.7-0.4,2.5,0c0.2,0.1,0.4,0.3,0.5,0.5c0.1,0.4-0.1,0.8-0.5,1
		L366.8,225.1L366.8,225.1z"/>
	<path class="st9" d="M401.1,253.3l-12.6-7.2c-3.9-2.2-4.3-5.6-0.9-7.5l10.7-6.2c3.3-1.9,9.2-1.7,13,0.5l12.6,7.3
		c3.8,2.2,4.3,5.6,0.9,7.5l-10.7,6.2C410.8,255.8,405,255.6,401.1,253.3z"/>
	<path class="st5" d="M423.9,247.2l-10.7,6.2c-2.8,1.6-7.7,1.4-10.9-0.5l-12.9-7.5c-3.2-1.9-3.6-4.7-0.8-6.3l10.7-6.2
		c2.8-1.6,7.7-1.4,10.9,0.4l12.9,7.5C426.3,242.7,426.7,245.6,423.9,247.2z"/>
	
		<linearGradient id="SVGID_2_" gradientUnits="userSpaceOnUse" x1="-2255.1179" y1="-2070.606" x2="-2232.7979" y2="-2051.2759" gradientTransform="matrix(-0.87 0.5 -1 -0.58 -3600.0046 169.7967)">
		<stop  offset="0.21" style="stop-color:#FFFFFF;stop-opacity:0"/>
		<stop  offset="1" style="stop-color:#FFFFFF;stop-opacity:0.2"/>
	</linearGradient>
	<path class="st10" d="M423.9,247.2l-10.7,6.2c-2.8,1.6-7.7,1.4-10.9-0.5l-12.9-7.5c-3.2-1.9-3.6-4.7-0.8-6.3l10.7-6.2
		c2.8-1.6,7.7-1.4,10.9,0.4l12.9,7.5C426.3,242.7,426.7,245.6,423.9,247.2z"/>
	<ellipse transform="matrix(0.866 -0.5 0.5 0.866 -71.953 228.01)" class="st11" cx="389.5" cy="248.3" rx="1.5" ry="2.6"/>
	<polygon class="st11" points="388.5,247.2 387.4,246.5 388.3,246 	"/>
	<polygon class="st11" points="389.6,249.8 390.8,250.5 389.8,251.1 	"/>
	<ellipse transform="matrix(0.866 -0.5 0.5 0.866 -72.3289 227.6283)" class="st12" cx="388.6" cy="248.8" rx="1.5" ry="2.6"/>
</g>
<g id="Calque_4">
	<path class="st0" d="M156.7,345.8l-33.3-19.2l64.8-37.4l33.3,19.2c4.3,2.5,4.8,6.2,1,8.4l-51.4,29.7
		C167.5,348.5,161,348.2,156.7,345.8z"/>
	<path class="st1" d="M152.9,343.5l-33.3-19.2l64.8-37.4l33.3,19.2c4.3,2.5,4.7,6.2,1,8.3l-51.4,29.7
		C163.7,346.3,157.2,346,152.9,343.5z"/>
	<polygon class="st1" points="122.6,324.1 119.6,322.4 119.6,324.3 	"/>
	<polygon class="st1" points="218.3,310.2 221.3,308.9 221.3,310.9 	"/>
	<path class="st8" d="M152.9,341.6l-33.3-19.2l64.8-37.4l33.3,19.2c4.3,2.5,4.7,6.2,1,8.3l-51.4,29.7
		C163.7,344.3,157.2,344.1,152.9,341.6z"/>
	<polygon class="st13" points="119.6,322.4 126.8,296 192.3,258.4 184.3,285 	"/>
	<path class="st13" d="M122.5,320.1l-2.8,2.3l1.9,1.1L122.5,320.1z"/>
	<polygon class="st1" points="121.5,323.4 128.8,297 194.4,259.4 186.4,286 	"/>
	<path class="st14" d="M13.5,363.4V167.2c0-4.7,2.9-10.3,6.4-12.3L273.7,8.4c3.6-2.1,6.4,0.1,6.4,4.9v196.3c0,4.7-2.9,10.3-6.4,12.3
		L19.9,368.4C16.4,370.4,13.5,368.2,13.5,363.4z"/>
	<polygon class="st14" points="17.1,360.4 15.9,368.7 18.7,370.3 	"/>
	<path class="st1" d="M278.2,10.9c-0.1,0-4.3-0.6-4.3-0.6l4-2.3l2.8,1.6C280.6,9.6,278.3,10.9,278.2,10.9z"/>
	<path class="st15" d="M15.9,364.8V168.5c0-4.7,2.9-10.3,6.4-12.3L276,9.7c3.6-2.1,6.4,0.1,6.4,4.9v196.3c0,4.8-2.9,10.3-6.4,12.3
		L22.3,369.7C18.7,371.7,15.9,369.5,15.9,364.8z"/>
	<path class="st8" d="M16.3,365V168.8c0-4.8,2.9-10.3,6.4-12.3L276.5,10c3.6-2.1,6.4,0.1,6.4,4.9v196.3c0,4.7-2.9,10.3-6.4,12.3
		L22.7,369.9C19.2,372,16.3,369.8,16.3,365z"/>
	<path class="st16" d="M19.7,165.7c0.1-2.2,1.3-4.1,3.1-5.3L276.5,13.9c1.7-1,3.1-0.2,3.1,1.8l0.1,192.3L19.8,358L19.7,165.7z"/>
	<g id="Calque_8">
		<path class="st11" d="M124.9,273.4v5.8c0,1-0.5,1.9-1.3,2.4l-83.2,48.1c-0.7,0.4-1.3-0.1-1.3-1v-5.8c0-1,0.5-1.9,1.3-2.4
			l83.2-48.1C124.4,272.1,124.9,272.5,124.9,273.4z"/>
		<path class="st11" d="M103.5,272v2.9c0,1-0.5,1.8-1.2,2.4l-61.5,35.5c-0.7,0.4-1.3-0.1-1.3-1V309c0-1,0.5-1.9,1.3-2.4l61.5-35.5
			C103,270.7,103.5,271.1,103.5,272z"/>
		<path class="st9" d="M103.5,261v2.9c0,1-0.5,1.9-1.3,2.4l-61.5,35.5c-0.7,0.4-1.3-0.1-1.3-1V298c0-1,0.5-1.9,1.3-2.4l61.5-35.5
			C103,259.7,103.5,260.1,103.5,261z"/>
		<path class="st12" d="M91.9,256.8v2.9c0,1-0.5,1.9-1.3,2.4l-49.9,28.8c-0.7,0.4-1.3-0.1-1.3-1v-2.9c0-1,0.5-1.9,1.3-2.4l49.9-28.8
			C91.4,255.5,91.9,255.9,91.9,256.8z"/>
		<path class="st11" d="M124.9,158.4v5.8c0,1-0.5,1.9-1.3,2.4l-83.2,48.1c-0.7,0.4-1.3,0-1.3-1v-5.8c0-1,0.5-1.9,1.3-2.4l83.2-48.1
			C124.4,157,124.9,157.5,124.9,158.4z"/>
		<path class="st9" d="M103.5,157v2.9c0,1-0.5,1.9-1.3,2.4l-61.5,35.5c-0.7,0.4-1.3,0-1.3-0.9v-2.9c0-1,0.5-1.9,1.3-2.4l61.5-35.5
			C103,155.7,103.5,156.1,103.5,157z"/>
		<path class="st11" d="M103.5,146.1v2.9c0,1-0.5,1.9-1.3,2.4l-61.5,35.5c-0.7,0.4-1.3-0.1-1.3-0.9V183c0-1,0.5-1.9,1.3-2.4
			l61.5-35.5C103,144.7,103.5,145.1,103.5,146.1z"/>
		<path class="st12" d="M91.9,141.8v2.9c0,1-0.5,1.9-1.3,2.4l-49.9,28.8c-0.7,0.4-1.3,0-1.3-0.9v-2.9c0-1,0.5-1.9,1.3-2.4l49.9-28.8
			C91.4,140.5,91.9,140.9,91.9,141.8z"/>
		<path class="st11" d="M121.9,179.3v46c0,1-0.5,1.9-1.3,2.4l-79.8,46.1c-0.7,0.4-1.3-0.1-1.3-1v-46c0-1,0.5-1.9,1.3-2.4l79.8-46.1
			C121.3,178,121.9,178.4,121.9,179.3z"/>
	</g>
	<g id="Calque_7">
		<path class="st17" d="M262.4,166.8v34.3l-116.6,67.2v-83c10.1-6,13.7,3.2,19.1,11.4c5.5,8.3,8.8,10.2,15.8,6.2
			s11.2-11.4,11.2-11.4c13-23.4,19.8-25,24.5-27.7c4.7-2.7,13.2-7.1,22.6,0.7c13.3,10.5,22.4,2.8,22.4,2.8L262.4,166.8z"/>
		<polyline class="st18" points="145.8,185.4 145.8,268.4 262.4,201.1 262.4,165.4 		"/>
		<line class="st18" x1="216.6" y1="227.5" x2="216.6" y2="164.3"/>
		<line class="st18" x1="180.9" y1="248" x2="180.9" y2="204.2"/>
		<path class="st19" d="M145.8,185.4c17.4-10,17.7,27.5,34.4,17.9s13.5-26.6,36.1-39.6s25.5,16,46.2,3.2"/>
		<ellipse transform="matrix(0.5 -0.866 0.866 0.5 -34.0161 269.6984)" class="st12" cx="216.6" cy="164.3" rx="3.9" ry="2.2"/>
		
			<ellipse transform="matrix(0.4983 -0.867 0.867 0.4983 -89.2157 218.4559)" class="st12" cx="144.1" cy="186.3" rx="3.9" ry="2.3"/>
		
			<ellipse transform="matrix(0.4983 -0.867 0.867 0.4983 -87.2961 258.1393)" class="st12" cx="179.4" cy="204.5" rx="3.9" ry="2.3"/>
		<ellipse transform="matrix(0.5 -0.866 0.866 0.5 -13.2994 310.6453)" class="st12" cx="262.4" cy="166.8" rx="3.9" ry="2.2"/>
		<path class="st11" d="M257.8,104.6V81.5c0-0.9,0.5-1.8,1.3-2.4l4.8-2.8c0.7-0.4,1.3,0,1.3,1v23c0,1-0.5,1.9-1.3,2.4l-4.8,2.8
			C258.4,106,257.8,105.6,257.8,104.6z"/>
		<path class="st12" d="M246.8,111V64c0-1,0.5-1.9,1.3-2.4l4.8-2.8c0.7-0.4,1.3,0.1,1.3,1v47c0,1-0.5,1.9-1.3,2.4l-4.8,2.8
			C247.4,112.3,246.8,111.9,246.8,111z"/>
		<path class="st11" d="M224.8,123.7V81.3c0-1,0.5-1.9,1.3-2.4l4.8-2.8c0.7-0.4,1.3,0,1.3,1v42.4c0,1-0.5,1.9-1.3,2.4l-4.8,2.8
			C225.4,125,224.8,124.6,224.8,123.7z"/>
		<path class="st12" d="M213.8,130V94.9c0-1,0.5-1.9,1.3-2.4l4.8-2.8c0.7-0.4,1.3,0.1,1.3,1v35.1c0,1-0.5,1.9-1.3,2.4l-4.8,2.8
			C214.4,131.4,213.8,131,213.8,130z"/>
		<path class="st11" d="M191.9,142.7v-17.4c0-1,0.5-1.9,1.3-2.4l4.8-2.8c0.7-0.4,1.3,0,1.3,1v17.4c0,1-0.5,1.9-1.3,2.4l-4.8,2.8
			C192.5,144.1,191.9,143.6,191.9,142.7z"/>
		<path class="st12" d="M180.8,149.1V90c0-1,0.5-1.9,1.3-2.4l4.8-2.8c0.7-0.4,1.3,0,1.3,1v59.1c0,1-0.5,1.9-1.3,2.4l-4.7,2.8
			C181.4,150.4,180.9,150,180.8,149.1z"/>
		<path class="st11" d="M154,164.6v-17.4c0-1,0.5-1.9,1.3-2.4l4.8-2.8c0.7-0.4,1.3,0,1.3,1v17.4c0,1-0.5,1.9-1.3,2.4l-4.8,2.8
			C154.6,165.9,154,165.5,154,164.6z"/>
		<path class="st12" d="M143,170.9v-23.1c0-1,0.5-1.9,1.3-2.4l4.8-2.8c0.7-0.4,1.3,0,1.3,1v23c0,1-0.5,1.9-1.3,2.4l-4.8,2.8
			C143.6,172.3,143,171.9,143,170.9z"/>
	</g>
</g>
<g id="Calque_2">
	<polygon class="st12" points="125.9,455 119,459.5 116.5,458 123.4,453.6 	"/>
	<polygon class="st11" points="141.9,444.7 127.2,454.2 124.7,452.8 139.4,443.3 	"/>
	<polygon class="st12" points="118,450.5 111,455 108.5,453.6 115.5,449.1 	"/>
	<polygon class="st11" points="124.1,446.5 119.2,449.7 116.8,448.3 121.6,445.1 	"/>
	<polygon class="st12" points="114,448.3 107.1,452.7 104.6,451.3 111.5,446.9 	"/>
	<polygon class="st11" points="123.5,442.2 115.3,447.4 112.8,446 121,440.8 	"/>
	<polygon class="st12" points="110,446 103.1,450.5 100.6,449.1 107.5,444.6 	"/>
	<polygon class="st9" points="133,431.3 111.3,445.2 108.8,443.8 130.5,429.9 	"/>
	<polygon class="st12" points="121.9,452.8 115,457.2 112.5,455.8 119.4,451.4 	"/>
	<polygon class="st12" points="150.2,434.6 123.2,451.9 120.7,450.5 147.7,433.2 	"/>
	<polygon class="st12" points="106,443.8 99.1,448.2 96.6,446.8 103.5,442.4 	"/>
	<polygon class="st9" points="130.4,427.8 107.3,442.9 104.8,441.5 127.9,426.4 	"/>
	<polygon class="st12" points="98,439.3 91.1,443.7 88.6,442.3 95.5,437.9 	"/>
	<polygon class="st12" points="126.5,420.9 99.3,438.4 96.8,437 124,419.5 	"/>
	<polygon class="st12" points="94,437 87.1,441.5 84.6,440.1 91.5,435.6 	"/>
	<polygon class="st9" points="103.5,430.9 95.3,436.2 92.8,434.8 101,429.5 	"/>
	<polygon class="st12" points="90.1,434.8 83.1,439.2 80.6,437.8 87.6,433.4 	"/>
	<polygon class="st11" points="108.1,423.1 91.3,433.9 88.9,432.5 105.6,421.7 	"/>
	<polygon class="st12" points="102,441.5 95.1,446 92.6,444.6 99.5,440.1 	"/>
	<polygon class="st11" points="106.3,438.7 103.3,440.7 100.8,439.3 103.8,437.3 	"/>
	<polygon class="st12" points="86.1,432.5 79.2,437 76.7,435.6 83.6,431.1 	"/>
	<polygon class="st9" points="98.2,424.7 87.4,431.7 84.9,430.3 95.7,423.3 	"/>
	<polygon class="st12" points="78.1,428 71.2,432.5 68.7,431.1 75.6,426.6 	"/>
	<polygon class="st11" points="95.3,417.1 79.4,427.2 76.9,425.8 92.8,415.7 	"/>
	<polygon class="st12" points="74.1,425.8 67.2,430.2 64.7,428.8 71.6,424.4 	"/>
	<polygon class="st12" points="77.3,423.6 75.4,425 72.9,423.5 74.8,422.2 	"/>
	<polygon class="st12" points="70.1,423.5 63.2,428 60.7,426.6 67.6,422.1 	"/>
	<polygon class="st11" points="80.5,416.9 71.4,422.7 68.9,421.3 78,415.5 	"/>
	<polygon class="st12" points="82.1,430.3 75.2,434.7 72.7,433.3 79.6,428.9 	"/>
	<polygon class="st11" points="96,421.4 83.4,429.4 80.9,428 93.5,420 	"/>
</g>
<g id="Calque_3">
	<path class="st0" d="M371.1,485.6l-41.1-23.7c-4.6-2.7-5.1-6.7-1.1-9L430.5,396c4-2.3,11-2,15.6,0.7l41.1,23.7
		c4.6,2.7,5.1,6.7,1.1,9l-101.6,56.8C382.7,488.5,375.7,488.2,371.1,485.6z"/>
	<path class="st20" d="M284.9,430.3c-18.2-10.5-28.2-24.6-28.2-39.6c0-15,10-29.1,28.2-39.6c37-21.4,97.2-21.4,134.3,0
		c18.2,10.5,28.2,24.6,28.2,39.6c0,15-10,29.1-28.2,39.6c-18.5,10.7-42.8,16-67.1,16C327.7,446.3,303.4,441,284.9,430.3z M352,337.9
		c-23.8,0-47.6,5.2-65.7,15.7c-17.3,10-26.8,23.1-26.8,37.1s9.5,27.1,26.8,37.1c36.2,20.9,95.1,20.9,131.3,0
		c17.3-10,26.8-23.1,26.8-37.1s-9.5-27.1-26.8-37.1C399.5,343.2,375.8,337.9,352,337.9L352,337.9z"/>
	<path class="st5" d="M453,377.1c6.9-19-2.5-39.6-28-54.3c-40.3-23.3-105.6-23.3-145.9,0c-25.5,14.7-34.9,35.3-28,54.3
		c4-11,13.3-21.4,28-29.9c40.3-23.3,105.6-23.3,145.9,0C439.7,355.7,449,366.1,453,377.1z"/>
	<path class="st21" d="M248.9,347.8L248.9,347.8L248.9,347.8L248.9,347.8z"/>
	<path class="st21" d="M248.9,364.9v7.5c-0.2,15.4,9.9,30.7,30.2,42.4c40.3,23.3,105.6,23.3,145.9,0c21.9-12.6,31.9-29.5,30-46
		c-0.3-2.8-1-5.6-2-8.3c-1.1,2.9-2.5,5.7-4.1,8.3c-5,7.9-13,15.2-23.9,21.5c-40.3,23.3-105.6,23.3-145.9,0
		c-10.9-6.3-18.9-13.7-23.9-21.6c-2.4-3.8-4.2-7.9-5.3-12.2L248.9,364.9z"/>
	<path class="st5" d="M289.3,383v50.5c0,5.6,3.4,8.1,7.6,5.7l105.4-60.8c4.2-2.4,7.6-8.9,7.6-14.5v-50.5c0-5.6-3.4-8.1-7.6-5.7
		l-4.9,2.8c-8.1,5.3-12.2,27.3-31.4,38.4c-19.2,11.1-42.5,9.2-67.8,18.9l-1.3,0.8C292.7,371,289.3,377.4,289.3,383z"/>
	<polygon class="st5" points="334.2,408.2 291.4,439.2 323.4,458.1 	"/>
	<polygon class="st5" points="399.5,359.6 406.8,307.1 441.3,327.4 	"/>
	<path class="st22" d="M318.6,450.7v-50.5c0-5.6,3.4-12.1,7.6-14.5l105.4-60.8c4.2-2.4,7.6,0.1,7.6,5.7v50.5
		c0,5.6-3.4,12.1-7.6,14.5l-105.4,60.8C322,458.8,318.6,456.3,318.6,450.7z"/>
	<path class="st22" d="M399.5,417.1l36.7-92.6c0,0,39.9,23.1,40.5,23.3L399.5,417.1z"/>
	<polygon class="st22" points="399.5,436.7 384.3,399.3 367.4,380.3 320.9,456.7 366.7,482.9 	"/>
	<path class="st5" d="M358.7,473.7v-50.5c0-5.6,3.4-12.1,7.6-14.5l105.4-60.8c4.2-2.4,7.6,0.2,7.6,5.7v50.5c0,5.6-3.4,12.1-7.6,14.5
		l-105.4,60.8C362.1,481.8,358.7,479.2,358.7,473.7z"/>
	<polygon class="st5" points="476.4,367.6 476.4,347.4 485.4,352.8 	"/>
	<polygon class="st5" points="370.3,468.5 361.2,479.7 370.6,485.4 	"/>
	<path class="st11" d="M368,479.2v-50.5c0-5.6,3.4-12.1,7.6-14.5l105.4-60.8c4.2-2.4,7.6,0.2,7.6,5.7v50.5c0,5.6-3.4,12.1-7.6,14.5
		l-105.4,60.8C371.4,487.4,368,484.8,368,479.2z"/>
	<path class="st23" d="M372.6,475.3v-46.8c0-4.2,2.5-9,5.7-10.8l102.1-58.9c3.1-1.8,5.7,0.1,5.7,4.3v46.8c0,4.2-2.5,9-5.7,10.9
		l-102.1,58.9C375.2,481.4,372.6,479.5,372.6,475.3z"/>
	<path class="st12" d="M326.2,441.3v-17.2c0-3.5,2.1-5.1,4.7-3.6l16.3,9.4c2.6,1.5,4.7,5.6,4.7,9v17.2c0,3.5-2.1,5.1-4.7,3.6
		l-16.3-9.4C328.3,448.8,326.2,444.7,326.2,441.3z"/>
</g>
</svg>
