<?xml version="1.0" encoding="utf-8"?>
<!-- Generator: Adobe Illustrator 21.0.0, SVG Export Plug-In . SVG Version: 6.00 Build 0)  -->
<svg version="1.1" id="Calque_1" xmlns="http://www.w3.org/2000/svg" xmlns:xlink="http://www.w3.org/1999/xlink" x="0px" y="0px"
	 viewBox="0 0 706.5 706.5" style="enable-background:new 0 0 706.5 706.5;" xml:space="preserve">
<style type="text/css">
	.st0{fill:#B1B4C4;}
	.st1{fill:#E4E7F2;}
	.st2{fill:#D6D8E5;}
	.st3{fill:#1E212D;}
	.st4{opacity:0.5;fill:url(#SVGID_1_);enable-background:new    ;}
	.st5{opacity:0.4;fill:#D6D8E5;enable-background:new    ;}
	.st6{fill:#2B303F;}
	.st7{fill:#B91EBD;}
	.st8{fill:#2FA5FA;}
	.st9{fill:#5B43A1;}
	.st10{fill:#FFFFFF;}
	.st11{fill:#5B57A1;}
	.st12{fill:#B944BD;}
	.st13{fill:#B965BD;}
</style>
<g id="Calque_2">
	<path class="st0" d="M685.7,610.4L485.2,494.6c-2.8-1.6-5.1-6-5.1-9.7V329.8c0-3.8,2.3-5.5,5.1-3.8l200.5,115.8
		c2.8,1.6,5.1,6,5.1,9.7v155.1C690.8,610.3,688.5,612,685.7,610.4z"/>
	<polygon class="st0" points="686.7,612 689,610.7 688,604.1 	"/>
	<path class="st0" d="M479.8,326.9l2.2-1.3l3.1,1.8c0,0-3.3,0.5-3.4,0.5C481.6,327.8,479.8,326.9,479.8,326.9z"/>
	<path class="st1" d="M683.9,611.4L483.4,495.7c-2.8-1.6-5.1-6-5.1-9.7V330.8c0-3.8,2.3-5.5,5.1-3.9l200.5,115.8
		c2.8,1.6,5.1,6,5.1,9.7v155.1C689,611.3,686.7,613,683.9,611.4z"/>
	<path class="st2" d="M683.5,611.6L483,495.9c-2.8-1.6-5.1-6-5.1-9.7V331c0-3.7,2.3-5.5,5.1-3.8L683.5,443c2.8,1.6,5.1,6,5.1,9.7
		v155.1C688.6,611.5,686.3,613.3,683.5,611.6z"/>
	<path class="st3" d="M685.9,602.2L480.5,483.6l0.1-152c0-1.6,1.1-2.2,2.4-1.4L683.6,446c1.4,0.9,2.3,2.5,2.4,4.2L685.9,602.2z"/>
	
		<linearGradient id="SVGID_1_" gradientUnits="userSpaceOnUse" x1="280.4122" y1="2176.2451" x2="280.4122" y2="2042.1578" gradientTransform="matrix(0.87 0.5 0 1.15 339.1914 -2109.0203)">
		<stop  offset="0.21" style="stop-color:#FFFFFF;stop-opacity:0"/>
		<stop  offset="1" style="stop-color:#FFFFFF;stop-opacity:0.2"/>
	</linearGradient>
	<path class="st4" d="M685.8,602.2L480.4,483.6l0.1-152c0-1.6,1.1-2.2,2.4-1.4L683.5,446c1.4,0.9,2.4,2.5,2.4,4.2L685.8,602.2z"/>
	<path class="st5" d="M532.3,701.8L331.8,586c-2.8-1.6-2.5-4.5,0.8-6.3l134.3-77.5c3.3-1.9,8.2-2.1,11-0.4l200.5,115.8
		c2.8,1.6,2.5,4.5-0.8,6.3l-134.3,77.5C540,703.2,535.1,703.4,532.3,701.8z"/>
	<path class="st0" d="M536.7,699.1L336.2,583.4c-2.8-1.6-2.5-4.5,0.8-6.3l134.3-77.5c3.2-1.9,8.2-2.1,11-0.5l200.5,115.8
		c2.8,1.6,2.5,4.5-0.8,6.3l-134.3,77.5C544.4,700.5,539.5,700.7,536.7,699.1z"/>
	<polygon class="st0" points="334.3,580.7 334.3,577 338.5,578.7 	"/>
	<polygon class="st0" points="684.7,617.6 684.7,613.9 681.5,615 683.6,618.1 	"/>
	<path class="st1" d="M536.7,695.9L336.2,580.2c-2.8-1.6-2.5-4.5,0.8-6.3l134.3-77.5c3.2-1.9,8.2-2.1,11-0.5l200.5,115.8
		c2.8,1.6,2.5,4.5-0.8,6.3l-134.3,77.5C544.4,697.4,539.5,697.6,536.7,695.9z"/>
	<path class="st2" d="M536.7,695.4L336.2,579.7c-2.8-1.6-2.5-4.5,0.8-6.3l134.3-77.6c3.2-1.9,8.2-2.1,11-0.5l200.5,115.8
		c2.8,1.6,2.5,4.5-0.8,6.3L547.7,695C544.4,696.9,539.5,697.1,536.7,695.4z"/>
	<path class="st6" d="M467.6,522l-9.3-5.4c-0.8-0.4-0.7-1.2,0.2-1.7l8.9-5.1c0.9-0.5,2-0.6,3-0.1l9.3,5.4c0.8,0.4,0.7,1.2-0.2,1.8
		l-8.9,5.1C469.6,522.4,468.5,522.4,467.6,522z"/>
	<path class="st6" d="M480.8,529.6l-9.3-5.4c-0.8-0.4-0.7-1.2,0.2-1.8l8.9-5.1c0.9-0.5,2-0.6,3-0.1l9.3,5.4c0.8,0.4,0.7,1.2-0.2,1.7
		l-8.9,5.1C482.8,529.9,481.7,530,480.8,529.6z"/>
	<path class="st6" d="M494.1,537.3l-9.3-5.4c-0.8-0.4-0.7-1.2,0.2-1.7l8.9-5.1c0.9-0.5,2-0.6,3-0.1l9.3,5.4c0.8,0.4,0.7,1.2-0.2,1.7
		l-8.9,5.1C496.2,537.7,495.1,537.7,494.1,537.3z"/>
	<path class="st6" d="M507.2,544.8l-9.3-5.4c-0.8-0.4-0.7-1.2,0.2-1.7l8.9-5.1c0.9-0.5,2-0.6,3-0.1l9.3,5.4c0.8,0.4,0.7,1.2-0.2,1.8
		l-8.9,5.1C509.3,545.3,508.2,545.3,507.2,544.8z"/>
	<path class="st6" d="M520.4,552.5l-9.3-5.4c-0.8-0.4-0.7-1.2,0.2-1.7l8.9-5.1c0.9-0.5,2-0.6,3-0.1l9.3,5.4c0.8,0.4,0.7,1.2-0.2,1.8
		l-8.9,5.1C522.5,552.9,521.4,552.9,520.4,552.5z"/>
	<path class="st6" d="M533.6,560.1l-9.3-5.4c-0.8-0.4-0.7-1.2,0.2-1.8l8.9-5.1c0.9-0.5,2-0.6,3-0.1l9.3,5.4c0.8,0.4,0.7,1.2-0.2,1.8
		l-8.9,5.1C535.7,560.5,534.6,560.5,533.6,560.1z"/>
	<path class="st6" d="M546.9,567.7l-9.3-5.4c-0.8-0.4-0.7-1.2,0.2-1.7l8.9-5.1c0.9-0.5,2-0.6,3-0.1l9.3,5.4c0.8,0.4,0.7,1.2-0.2,1.7
		l-8.9,5.1C548.9,568.1,547.8,568.2,546.9,567.7z"/>
	<path class="st6" d="M560.1,575.4l-9.3-5.4c-0.8-0.4-0.7-1.2,0.2-1.7l8.9-5.1c0.9-0.5,2-0.6,3-0.1l9.3,5.4c0.8,0.4,0.7,1.2-0.2,1.8
		l-8.9,5.1C562.2,575.8,561,575.8,560.1,575.4z"/>
	<path class="st6" d="M573.3,583l-9.3-5.4c-0.8-0.4-0.7-1.2,0.2-1.7l8.9-5.1c0.9-0.5,2-0.6,3-0.1l9.3,5.4c0.8,0.4,0.7,1.2-0.2,1.8
		l-8.9,5.1C575.4,583.4,574.2,583.4,573.3,583z"/>
	<path class="st6" d="M586.5,590.7l-9.4-5.4c-0.8-0.4-0.7-1.2,0.2-1.7l8.9-5.2c0.9-0.5,2-0.6,3-0.1l9.3,5.4c0.8,0.4,0.7,1.2-0.2,1.8
		l-8.9,5.1C588.5,591,587.5,591.1,586.5,590.7z"/>
	<path class="st6" d="M599.7,598.3l-9.3-5.4c-0.8-0.4-0.7-1.2,0.2-1.7l8.9-5.1c0.9-0.5,2-0.6,3-0.1l9.3,5.4c0.8,0.4,0.7,1.2-0.2,1.8
		l-8.9,5.1C601.8,598.7,600.7,598.7,599.7,598.3z"/>
	<path class="st6" d="M612.9,605.9l-9.3-5.4c-0.8-0.4-0.7-1.2,0.2-1.7l8.9-5.1c0.9-0.5,2-0.6,3-0.1l9.3,5.4c0.8,0.4,0.7,1.2-0.2,1.7
		l-8.9,5.1C615,606.3,613.9,606.3,612.9,605.9z"/>
	<path class="st6" d="M626.2,613.5l-9.3-5.4c-0.8-0.4-0.7-1.2,0.2-1.8l8.9-5.1c0.9-0.5,2-0.6,3-0.1l9.3,5.4c0.8,0.4,0.7,1.2-0.2,1.8
		l-8.9,5.1C628.2,613.9,627.1,613.9,626.2,613.5z"/>
	<path class="st6" d="M645.7,624.8l-15.7-9.1c-0.8-0.4-0.7-1.2,0.2-1.7l8.9-5.1c0.9-0.5,2-0.6,3-0.1l15.7,9.1
		c0.8,0.4,0.7,1.2-0.2,1.7l-8.9,5.1C647.8,625.2,646.7,625.3,645.7,624.8z"/>
	<path class="st6" d="M474.4,540.7l-9.3-5.4c-0.8-0.4-0.7-1.2,0.2-1.7l8.9-5.1c0.9-0.5,2-0.6,3-0.1l9.3,5.4c0.8,0.4,0.7,1.2-0.2,1.8
		l-8.9,5.1C476.4,541.1,475.3,541.1,474.4,540.7z"/>
	<path class="st6" d="M487.6,548.3l-9.3-5.4c-0.8-0.4-0.7-1.2,0.2-1.7l8.9-5.1c0.9-0.5,2-0.6,3-0.1l9.3,5.4c0.8,0.4,0.7,1.2-0.2,1.7
		l-8.9,5.1C489.7,548.7,488.5,548.8,487.6,548.3z"/>
	<path class="st6" d="M500.8,556l-9.3-5.4c-0.8-0.4-0.7-1.2,0.2-1.8l8.9-5.1c0.9-0.5,2-0.6,3-0.1l9.3,5.4c0.8,0.4,0.7,1.2-0.2,1.7
		l-8.9,5.1C502.9,556.3,501.8,556.4,500.8,556z"/>
	<path class="st6" d="M514.1,563.6l-9.3-5.4c-0.8-0.4-0.7-1.2,0.2-1.7l8.9-5.1c0.9-0.5,2-0.6,3-0.1l9.3,5.4c0.8,0.4,0.7,1.2-0.2,1.7
		l-8.9,5.1C516.1,564,515,564,514.1,563.6z"/>
	<path class="st6" d="M527.2,571.2l-9.3-5.4c-0.8-0.4-0.7-1.2,0.2-1.7l8.9-5.1c0.9-0.5,2-0.6,3-0.1l9.3,5.4c0.8,0.4,0.7,1.2-0.2,1.7
		l-8.9,5.1C529.3,571.6,528.2,571.6,527.2,571.2z"/>
	<path class="st6" d="M540.4,578.8l-9.3-5.4c-0.8-0.4-0.7-1.2,0.2-1.7l8.9-5.1c0.9-0.5,2-0.6,3-0.1l9.3,5.4c0.8,0.4,0.7,1.2-0.2,1.8
		l-8.9,5.1C542.5,579.2,541.4,579.3,540.4,578.8z"/>
	<path class="st6" d="M553.7,586.5l-9.3-5.4c-0.8-0.4-0.7-1.2,0.2-1.8l8.9-5.1c0.9-0.5,2-0.6,3-0.1l9.3,5.4c0.8,0.4,0.7,1.2-0.2,1.7
		l-8.9,5.1C555.7,586.8,554.6,586.9,553.7,586.5z"/>
	<path class="st6" d="M566.9,594.1l-9.3-5.4c-0.8-0.4-0.7-1.2,0.2-1.7l8.9-5.1c0.9-0.5,2-0.6,3-0.1l9.3,5.4c0.8,0.4,0.7,1.2-0.2,1.7
		l-8.9,5.1C569,594.5,567.9,594.5,566.9,594.1z"/>
	<path class="st6" d="M580.2,601.8l-9.3-5.4c-0.8-0.4-0.7-1.2,0.2-1.7l8.9-5.1c0.9-0.5,2-0.6,3-0.1l9.3,5.4c0.8,0.4,0.7,1.2-0.2,1.7
		l-8.9,5.1C582.2,602.1,581.1,602.2,580.2,601.8z"/>
	<path class="st6" d="M593.4,609.4l-9.3-5.4c-0.8-0.4-0.7-1.2,0.2-1.8l8.9-5.1c0.9-0.5,2-0.6,3-0.1l9.3,5.4c0.8,0.4,0.7,1.2-0.2,1.7
		l-8.9,5.1C595.5,609.8,594.4,609.8,593.4,609.4z"/>
	<path class="st6" d="M606.6,617l-9.3-5.4c-0.8-0.4-0.7-1.2,0.2-1.8l8.9-5.1c0.9-0.5,2-0.6,3-0.1l9.3,5.4c0.8,0.4,0.7,1.2-0.2,1.8
		l-8.9,5.1C608.7,617.4,607.6,617.5,606.6,617z"/>
	<path class="st6" d="M619.9,624.7l-9.3-5.4c-0.8-0.4-0.7-1.2,0.2-1.8l8.9-5.1c0.9-0.5,2-0.6,3-0.1l9.3,5.4c0.8,0.4,0.7,1.2-0.2,1.8
		l-8.9,5.1C621.9,625.1,620.8,625.1,619.9,624.7z"/>
	<path class="st6" d="M461.1,533l-15.7-9.1c-0.8-0.4-0.7-1.2,0.2-1.8l8.9-5.1c0.9-0.5,2-0.6,3-0.1l15.7,9.1c0.8,0.4,0.7,1.2-0.2,1.8
		l-8.9,5.1C463.2,533.4,462.1,533.5,461.1,533z"/>
	<path class="st6" d="M645.1,625.3l-9.3-5.4c-0.9-0.4-1.9-0.4-2.8,0l-9.4,5.4c-0.4,0.2-0.6,0.7-0.4,1.2c0.1,0.2,0.2,0.3,0.4,0.4
		l0.7,0.4c0.4,0.1,0.6,0.6,0.5,1c-0.1,0.2-0.3,0.4-0.5,0.5l-10,5.7c-0.8,0.4-0.8,1.2,0,1.6l5.9,3.4c0.9,0.4,1.9,0.4,2.8,0l9.3-5.4
		l1.9-1.1l1.4-0.8l1.4-0.8l8-4.6C645.8,626.5,645.9,625.8,645.1,625.3z"/>
	<path class="st6" d="M416.4,551.6l-9.3-5.4c-0.8-0.4-0.7-1.2,0.2-1.7l8.9-5.1c0.9-0.5,2-0.6,3-0.1l9.3,5.4c0.8,0.4,0.7,1.2-0.2,1.8
		l-8.9,5.1C418.4,552,417.3,552,416.4,551.6z"/>
	<path class="st6" d="M429.5,559.2l-9.3-5.4c-0.8-0.4-0.7-1.2,0.2-1.8l8.9-5.1c0.9-0.5,2-0.6,3-0.1l9.3,5.4c0.8,0.4,0.7,1.2-0.2,1.7
		l-8.9,5.2C431.6,559.6,430.5,559.6,429.5,559.2z"/>
	<path class="st6" d="M442.7,566.8l-9.3-5.4c-0.8-0.4-0.7-1.2,0.2-1.7l8.9-5.1c0.9-0.5,2-0.6,3-0.1l9.3,5.4c0.8,0.4,0.7,1.2-0.2,1.7
		l-8.9,5.1C444.8,567.2,443.7,567.2,442.7,566.8z"/>
	<path class="st6" d="M555,631.6l-9.3-5.4c-0.8-0.4-0.7-1.2,0.2-1.7l8.9-5.1c0.9-0.5,2-0.6,3-0.1l9.3,5.4c0.8,0.4,0.7,1.2-0.2,1.7
		l-8.9,5.1C557,632,555.9,632,555,631.6z"/>
	<path class="st6" d="M568.1,639.2l-9.3-5.4c-0.8-0.4-0.7-1.2,0.2-1.8l8.9-5.1c0.9-0.5,2-0.6,3-0.1l9.3,5.4c0.8,0.4,0.7,1.2-0.2,1.7
		l-8.9,5.1C570.2,639.6,569.1,639.6,568.1,639.2z"/>
	<path class="st6" d="M581.3,646.8l-9.3-5.4c-0.8-0.4-0.7-1.2,0.2-1.7l8.9-5.1c0.9-0.5,2-0.6,3-0.1l9.3,5.4c0.8,0.4,0.7,1.2-0.2,1.7
		l-8.9,5.1C583.4,647.2,582.3,647.2,581.3,646.8z"/>
	<path class="st6" d="M594.5,654.4l-9.3-5.4c-0.8-0.4-0.7-1.2,0.2-1.7l8.9-5.1c0.9-0.5,2-0.6,3-0.1l9.3,5.4c0.8,0.4,0.7,1.2-0.2,1.7
		l-8.9,5.1C596.5,654.8,595.4,654.8,594.5,654.4z"/>
	<path class="st6" d="M459.3,576.4l-12.7-7.3c-0.8-0.4-0.7-1.2,0.2-1.8l8.9-5.1c0.9-0.5,2-0.6,3-0.1l12.7,7.4
		c0.8,0.4,0.7,1.2-0.2,1.8l-8.9,5.1C461.4,576.8,460.3,576.8,459.3,576.4z"/>
	<path class="st6" d="M541.8,624l-12.7-7.4c-0.8-0.4-0.7-1.2,0.2-1.7l8.9-5.1c0.9-0.5,2-0.6,3-0.1l12.7,7.4c0.8,0.4,0.7,1.2-0.2,1.7
		l-8.9,5.1C543.8,624.4,542.7,624.4,541.8,624z"/>
	<path class="st7" d="M525.2,614.4l-62.1-35.8c-0.8-0.4-0.7-1.2,0.2-1.7l8.9-5.1c0.9-0.5,2-0.6,3-0.1l62.1,35.8
		c0.8,0.4,0.7,1.2-0.2,1.7l-8.9,5.1C527.3,614.8,526.2,614.8,525.2,614.4z"/>
	<path class="st6" d="M465.1,550.1l-9.3-5.4c-0.8-0.4-0.7-1.2,0.2-1.7l8.9-5.1c0.9-0.5,2-0.6,3-0.1l9.3,5.4c0.8,0.4,0.7,1.2-0.2,1.7
		l-8.9,5.1C467.2,550.6,466.1,550.6,465.1,550.1z"/>
	<path class="st6" d="M478.3,557.8l-9.3-5.4c-0.8-0.4-0.7-1.2,0.2-1.7l8.9-5.1c0.9-0.5,2-0.6,3-0.1l9.3,5.4c0.8,0.4,0.7,1.2-0.2,1.7
		l-8.9,5.1C480.4,558.2,479.3,558.2,478.3,557.8z"/>
	<path class="st6" d="M491.5,565.4l-9.3-5.4c-0.8-0.4-0.7-1.2,0.2-1.8l8.9-5.1c0.9-0.5,2-0.6,3-0.1l9.3,5.4c0.8,0.4,0.7,1.2-0.2,1.7
		l-8.9,5.2C493.6,565.8,492.5,565.8,491.5,565.4z"/>
	<path class="st6" d="M504.7,573l-9.3-5.4c-0.8-0.4-0.7-1.2,0.2-1.7l8.9-5.1c0.9-0.5,2-0.6,3-0.1l9.3,5.4c0.8,0.4,0.7,1.2-0.2,1.7
		l-8.9,5.1C506.8,573.4,505.7,573.4,504.7,573z"/>
	<path class="st6" d="M517.9,580.6l-9.3-5.4c-0.8-0.4-0.7-1.2,0.2-1.7l8.9-5.1c0.9-0.5,2-0.6,3-0.1l9.3,5.4c0.8,0.4,0.7,1.2-0.2,1.7
		l-8.9,5.1C520,581,518.9,581.1,517.9,580.6z"/>
	<path class="st6" d="M531.1,588.3l-9.3-5.4c-0.8-0.4-0.7-1.2,0.2-1.8l8.9-5.1c0.9-0.5,2-0.6,3-0.1l9.3,5.4c0.8,0.4,0.7,1.2-0.2,1.8
		l-8.9,5.1C533.2,588.6,532.1,588.7,531.1,588.3z"/>
	<path class="st6" d="M544.4,595.9l-9.4-5.4c-0.8-0.4-0.7-1.2,0.2-1.7l8.9-5.1c0.9-0.5,2-0.6,3-0.1l9.3,5.4c0.8,0.4,0.7,1.2-0.2,1.7
		l-8.9,5.1C546.4,596.3,545.3,596.3,544.4,595.9z"/>
	<path class="st6" d="M557.5,603.5l-9.3-5.4c-0.8-0.4-0.7-1.2,0.2-1.8l8.9-5.1c0.9-0.5,2-0.6,3-0.1l9.3,5.4c0.8,0.4,0.7,1.2-0.2,1.8
		l-8.9,5.1C559.6,603.9,558.5,603.9,557.5,603.5z"/>
	<path class="st6" d="M570.8,611.1l-9.3-5.4c-0.8-0.4-0.7-1.2,0.2-1.7l8.9-5.1c0.9-0.5,2-0.6,3-0.1l9.3,5.4c0.8,0.4,0.7,1.2-0.2,1.8
		l-8.9,5.1C572.8,611.5,571.7,611.6,570.8,611.1z"/>
	<path class="st6" d="M583.9,618.8l-9.3-5.4c-0.8-0.4-0.7-1.2,0.2-1.8l8.9-5.2c0.9-0.5,2-0.6,3-0.1l9.3,5.4c0.8,0.4,0.7,1.2-0.2,1.8
		l-8.9,5.1C586,619.2,584.9,619.2,583.9,618.8z"/>
	<path class="st6" d="M597.2,626.4l-9.3-5.4c-0.8-0.4-0.7-1.2,0.2-1.7l8.9-5.1c0.9-0.5,2-0.6,3-0.1l9.3,5.4c0.8,0.4,0.7,1.2-0.2,1.7
		l-8.9,5.1C599.2,626.7,598.1,626.8,597.2,626.4z"/>
	<path class="st6" d="M610.4,634l-9.3-5.4c-0.8-0.4-0.7-1.2,0.2-1.7l8.9-5.1c0.9-0.5,2-0.6,3-0.1l9.3,5.4c0.8,0.4,0.7,1.2-0.2,1.7
		l-8.9,5.1C612.4,634.4,611.3,634.4,610.4,634z"/>
	<path class="st6" d="M451.9,542.5l-19.3-11.1c-0.8-0.4-0.7-1.2,0.2-1.8l8.9-5.1c0.9-0.5,2-0.6,3-0.1l19.3,11.1
		c0.8,0.4,0.7,1.2-0.2,1.7l-8.9,5.1C454,542.9,452.9,542.9,451.9,542.5z"/>
	<path class="st6" d="M445.8,553.8l-9.3-5.4c-0.8-0.4-0.7-1.2,0.2-1.8l8.9-5.1c0.9-0.5,2-0.6,3-0.1l9.3,5.4c0.8,0.4,0.7,1.2-0.2,1.8
		l-8.9,5.1C447.8,554.1,446.7,554.2,445.8,553.8z"/>
	<path class="st6" d="M459,561.4l-9.3-5.4c-0.8-0.4-0.7-1.2,0.2-1.8l8.9-5.1c0.9-0.5,2-0.6,3-0.1l9.3,5.4c0.8,0.4,0.7,1.2-0.2,1.7
		l-8.9,5.1C461,561.7,459.9,561.8,459,561.4z"/>
	<path class="st6" d="M472.2,569l-9.3-5.4c-0.8-0.4-0.7-1.2,0.2-1.7l8.9-5.1c0.9-0.5,2-0.6,3-0.1l9.3,5.4c0.8,0.4,0.7,1.2-0.2,1.8
		l-8.9,5.1C474.2,569.4,473.1,569.4,472.2,569z"/>
	<path class="st6" d="M485.4,576.6l-9.3-5.4c-0.8-0.4-0.7-1.2,0.2-1.7l8.9-5.1c0.9-0.5,2-0.6,3-0.1l9.3,5.4c0.8,0.4,0.7,1.2-0.2,1.8
		l-8.9,5.1C487.4,577,486.3,577,485.4,576.6z"/>
	<path class="st6" d="M498.6,584.2l-9.3-5.4c-0.8-0.4-0.7-1.2,0.2-1.7l8.9-5.1c0.9-0.5,2-0.6,3-0.1l9.3,5.4c0.8,0.4,0.7,1.2-0.2,1.7
		l-8.9,5.1C500.7,584.6,499.5,584.7,498.6,584.2z"/>
	<path class="st6" d="M511.8,591.9l-9.3-5.4c-0.8-0.4-0.7-1.2,0.2-1.8l8.9-5.1c0.9-0.5,2-0.6,3-0.1l9.3,5.4c0.8,0.4,0.7,1.2-0.2,1.7
		l-8.9,5.2C513.8,592.3,512.7,592.3,511.8,591.9z"/>
	<path class="st6" d="M525,599.4l-9.3-5.4c-0.8-0.4-0.7-1.2,0.2-1.7l8.9-5.1c0.9-0.5,2-0.6,3-0.1l9.3,5.4c0.8,0.4,0.7,1.2-0.2,1.8
		l-8.9,5.1C527,599.9,525.9,599.9,525,599.4z"/>
	<path class="st6" d="M538.2,607.1l-9.3-5.4c-0.8-0.4-0.7-1.2,0.2-1.8l8.9-5.1c0.9-0.5,2-0.6,3-0.1l9.3,5.4c0.8,0.4,0.7,1.2-0.2,1.8
		l-8.9,5.1C540.2,607.5,539.1,607.5,538.2,607.1z"/>
	<path class="st6" d="M551.4,614.7l-9.4-5.4c-0.8-0.4-0.7-1.2,0.2-1.7l8.9-5.1c0.9-0.5,2-0.6,3-0.1l9.3,5.4c0.8,0.4,0.7,1.2-0.2,1.7
		l-8.9,5.1C553.4,615.1,552.3,615.1,551.4,614.7z"/>
	<path class="st6" d="M564.6,622.3l-9.3-5.4c-0.8-0.4-0.7-1.2,0.2-1.7l8.9-5.1c0.9-0.5,2-0.6,3-0.1l9.3,5.4c0.8,0.4,0.7,1.2-0.2,1.7
		l-8.9,5.1C566.6,622.7,565.5,622.8,564.6,622.3z"/>
	<path class="st6" d="M577.8,630l-9.3-5.4c-0.8-0.4-0.7-1.2,0.2-1.8l8.9-5.1c0.9-0.5,2-0.6,3-0.1l9.3,5.4c0.8,0.4,0.7,1.2-0.2,1.8
		l-8.9,5.1C579.8,630.3,578.7,630.4,577.8,630z"/>
	<path class="st6" d="M607.3,647l-25.7-14.8c-0.8-0.4-0.7-1.2,0.2-1.7l8.9-5.1c0.9-0.5,2-0.6,3-0.1l25.7,14.8
		c0.8,0.4,0.7,1.2-0.2,1.8l-8.9,5.1C609.4,647.4,608.3,647.4,607.3,647z"/>
	<path class="st6" d="M432.6,546.1l-12.7-7.3c-0.8-0.4-0.7-1.2,0.2-1.8l8.9-5.1c0.9-0.5,2-0.6,3-0.1l12.7,7.4
		c0.8,0.4,0.7,1.2-0.2,1.8l-8.9,5.1C434.6,546.6,433.5,546.6,432.6,546.1z"/>
	<path class="st8" d="M659,617.2L471.5,508.9c-0.8-0.4-0.7-1.2,0.2-1.8l4.5-2.6c0.9-0.5,2-0.6,3-0.1l187.5,108.3
		c0.8,0.4,0.7,1.2-0.2,1.7L662,617C661.1,617.5,660,617.6,659,617.2z"/>
	<path class="st0" d="M542.9,629.5c-0.3,0.6-0.7,1.1-1.3,1.3L490,660.6c-1.8,1-3.9,1.1-5.7,0.2L396.2,610c-0.4-0.2-0.7-0.5-0.9-0.9
		c-0.3-0.8,0.1-1.7,1.3-2.4l51.6-29.8c1.8-1,3.9-1.1,5.7-0.2l88.1,50.9C542.8,627.9,543.1,628.7,542.9,629.5z"/>
	<path class="st9" d="M542.9,629.5c-0.3,0.6-0.7,1.1-1.3,1.3L490,660.6c-1.8,1-3.9,1.1-5.7,0.2L396.2,610c-0.4-0.2-0.7-0.5-0.9-0.9
		c0.3-0.6,0.7-1.1,1.3-1.3l51.6-29.8c1.8-1,3.9-1.1,5.7-0.2l88.1,50.9C542.4,628.8,542.7,629.1,542.9,629.5z"/>
	<path class="st6" d="M673.3,609L485.8,500.7c-0.9-0.6-1.4-1.6-1.4-2.6v-2.2c0-1,0.6-1.5,1.4-1l187.5,108.2c0.9,0.6,1.4,1.6,1.4,2.6
		v2.2C674.7,608.9,674,609.4,673.3,609z"/>
	<g id="Calque_13">
		<polygon class="st9" points="604,423.8 590.4,416 590.4,411 604,418.9 		"/>
		<polygon class="st7" points="635.5,442 606.5,425.3 606.5,420.4 635.5,437.1 		"/>
		<polygon class="st9" points="604,439.5 590.4,431.7 590.4,426.8 604,434.6 		"/>
		<polygon class="st8" points="616.1,446.7 606.5,441 606.5,436.1 616.1,441.7 		"/>
		<polygon class="st9" points="604,447.4 590.4,439.5 590.4,434.6 604,442.5 		"/>
		<polygon class="st8" points="622.7,458.2 606.5,448.9 606.5,444 622.7,453.3 		"/>
		<polygon class="st9" points="604,455.2 590.4,447.4 590.4,442.5 604,450.3 		"/>
		<polygon class="st7" points="649.2,481.3 606.5,456.7 606.5,451.8 649.2,476.4 		"/>
		<polygon class="st9" points="604,431.7 590.4,423.8 590.4,418.9 604,426.8 		"/>
		<polygon class="st9" points="659.7,463.8 606.5,433.1 606.5,428.2 659.7,458.9 		"/>
		<polygon class="st9" points="604,463.1 590.4,455.2 590.4,450.3 604,458.2 		"/>
		<polygon class="st7" points="652.5,491.6 606.5,464.6 606.5,459.7 652.5,486.7 		"/>
		<polygon class="st9" points="604,478.8 590.4,471 590.4,466.1 604,473.9 		"/>
		<polygon class="st9" points="660.2,511.3 606.5,480.3 606.5,475.4 660.2,506.3 		"/>
		<polygon class="st9" points="604,486.7 590.4,478.8 590.4,473.9 604,481.8 		"/>
		<polygon class="st7" points="622.7,497.5 606.5,488.2 606.5,483.3 622.7,492.6 		"/>
		<polygon class="st9" points="604,494.6 590.4,486.7 590.4,481.8 604,489.6 		"/>
		<polygon class="st8" points="639.6,515.2 606.5,496 606.5,491.1 639.6,510.3 		"/>
		<polygon class="st9" points="604,471 590.4,463.1 590.4,458.2 604,466.1 		"/>
		<polygon class="st8" points="612.5,475.9 606.5,472.4 606.5,467.5 612.5,471 		"/>
		<polygon class="st9" points="604,502.4 590.4,494.6 590.4,489.6 604,497.5 		"/>
		<polygon class="st7" points="627.9,516.2 606.5,503.9 606.5,499 627.9,511.3 		"/>
		<polygon class="st9" points="604,518.1 590.4,510.3 590.4,505.4 604,513.2 		"/>
		<polygon class="st7" points="637.7,537.3 606.5,519.6 606.5,514.7 637.7,532.4 		"/>
		<polygon class="st9" points="604,526 590.4,518.1 590.4,513.2 604,521.1 		"/>
		<polygon class="st9" points="610.4,529.9 606.5,527.5 606.5,522.6 610.4,525 		"/>
		<polygon class="st9" points="604,533.9 590.4,526 590.4,521.1 604,528.9 		"/>
		<polygon class="st7" points="624.4,545.6 606.5,535.3 606.5,530.4 624.4,540.7 		"/>
		<polygon class="st9" points="604,510.3 590.4,502.4 590.4,497.5 604,505.4 		"/>
		<polygon class="st8" points="631.4,526 606.5,511.7 606.5,506.8 631.4,521.1 		"/>
		<polygon class="st9" points="515.9,374.7 502.3,366.8 502.3,361.9 515.9,369.8 		"/>
		<polygon class="st8" points="576.3,409.6 518.5,376.2 518.5,371.2 576.3,404.7 		"/>
		<polygon class="st9" points="515.9,390.4 502.3,382.5 502.3,377.6 515.9,385.5 		"/>
		<polygon class="st7" points="556.8,414 518.5,391.9 518.5,387 556.8,409.1 		"/>
		<polygon class="st9" points="515.9,398.3 502.3,390.4 502.3,385.5 515.9,393.4 		"/>
		<polygon class="st7" points="566.1,427.2 518.5,399.7 518.5,394.8 566.1,422.3 		"/>
		<polygon class="st9" points="515.9,406.1 502.3,398.3 502.3,393.4 515.9,401.2 		"/>
		<polygon class="st9" points="551.7,426.8 518.5,407.6 518.5,402.7 551.7,421.8 		"/>
		<polygon class="st9" points="515.9,382.5 502.3,374.7 502.3,369.8 515.9,377.6 		"/>
		<polygon class="st8" points="547.4,400.7 518.5,384 518.5,379.1 547.4,395.8 		"/>
		<polygon class="st9" points="515.9,414 502.3,406.1 502.3,401.2 515.9,409.1 		"/>
		<polygon class="st8" points="535.5,425.3 518.5,415.5 518.5,410.5 535.5,420.4 		"/>
		<polygon class="st9" points="515.9,429.7 502.3,421.8 502.3,416.9 515.9,424.8 		"/>
		<polygon class="st7" points="572.1,462.1 518.5,431.2 518.5,426.3 572.1,457.2 		"/>
		<polygon class="st9" points="515.9,437.6 502.3,429.7 502.3,424.8 515.9,432.7 		"/>
		<polygon class="st8" points="534.6,448.4 518.5,439 518.5,434.1 534.6,443.5 		"/>
		<polygon class="st9" points="515.9,445.4 502.3,437.6 502.3,432.7 515.9,440.5 		"/>
		<polygon class="st9" points="566.1,474.4 518.5,446.9 518.5,442 566.1,469.5 		"/>
		<polygon class="st9" points="515.9,421.8 502.3,414 502.3,409.1 515.9,416.9 		"/>
		<polygon class="st8" points="563.6,449.4 518.5,423.3 518.5,418.4 563.6,444.4 		"/>
		<polygon class="st9" points="515.9,453.3 502.3,445.4 502.3,440.5 515.9,448.4 		"/>
		<polygon class="st8" points="524.4,458.2 518.5,454.8 518.5,449.9 524.4,453.3 		"/>
		<polygon class="st9" points="515.9,469 502.3,461.1 502.3,456.2 515.9,464.1 		"/>
		<polygon class="st7" points="529.5,476.9 518.5,470.5 518.5,465.6 529.5,472 		"/>
		<polygon class="st9" points="515.9,476.9 502.3,469 502.3,464.1 515.9,472 		"/>
		<polygon class="st7" points="547.4,495 518.5,478.3 518.5,473.4 547.4,490.1 		"/>
		<polygon class="st9" points="515.9,484.7 502.3,476.9 502.3,472 515.9,479.8 		"/>
		<polygon class="st9" points="564.4,512.7 518.5,486.2 518.5,481.3 564.4,507.8 		"/>
		<polygon class="st9" points="515.9,461.1 502.3,453.3 502.3,448.4 515.9,456.2 		"/>
		<polygon class="st8" points="576.3,496 518.5,462.6 518.5,457.7 576.3,491.1 		"/>
	</g>
</g>
<g id="Calque_9">
	<g id="Calque_3_-_copie">
		<path class="st10" d="M156.7,123.3L53.1,179.6c-39.7,21.6-39.6,75.2,0.2,96.7l11.9,6.4c72.6,39.2,162,39,234.4-0.3l71.9-39.1
			c49.4-26.9,49.3-93.6-0.2-120.3l0,0C304.9,87.1,223,87.2,156.7,123.3z"/>
	</g>
	<g id="Calque_10_-_copie">
		<g id="Calque_6_-_copie_3_2_">
			<path class="st9" d="M104,194.4c-2.9,7.3,2.3,13.6,2.3,13.6l0.1,10.4c0,0,2,5.6,6.1,10.1c4.5,5,4.3,4.3,4.3,4.3
				c-0.1,0.3,5.1,2.2-0.5,1.5c-0.2,0-5.6-1.8-8.4-4.6s-3.4-2.1-5.8-0.1c-2.4,1.9-1.3,3.1-3.7,6c-2.4,2.9-9.7,3.3-9.7,3.3
				s-4.8,0.2-0.5-2.7c4.4-2.9,5.8-5.2,6.8-7.7c0.9-2.3,4.8-15.6,2.2-20c-0.9-1.5-1.4-9-1.6-9.3c-0.7-1.1-1-1.7-0.5-2.7
				c1.7-3.6,2-2.4,3-4.2c2.1-4.1,2.4-11,3.9-9.5c1.5,1.4,2.4,2.1,0.6,5.7C102.6,188.6,104,194.5,104,194.4z"/>
			<path class="st11" d="M126,182.9c0,0-10.6,2.9-14.1,11c-3.4,8.2-3,15.6-3,15.6l-0.4,11.8c0,0,1.1,9.1,5.5,14.3
				c4.4,5.1,4.4,5.1,4.4,5.1c0.1,0.8,6.3,4.2-0.6,1.7c-0.2,0-5.9-2.3-8.7-5.7c-2.9-3.4-3-4.9-5.6-2.9c-2.7,2.1-1.5,3.4-4.2,6.7
				c-2.7,3.2-10.5,3.2-10.5,3.2s-5.1,0-0.4-3c4.8-3,7.8-5.3,7.6-8.4c-0.2-3,6.1-16.7,2.3-19.8c-3.8-3-2.9-13.5-4-14.5
				s-5.3-1.7-7.6-8.2c-2.3-6.5,0.8-7.4,0.8-7.4s5.9,8.9,7.2,9.5s8.7,3.8,11.2-0.8s3-12.4,4.6-10.6c1.5,1.7,2.5,2.5,0.4,6.5
				s1.9-1.9,8.2-3.6C125.2,181.7,126.9,180.2,126,182.9z"/>
			<path class="st7" d="M146.4,165.8c0-6-4.9-10.9-10.9-10.9c-3.1,0-5.9,1.3-7.8,3.3c-2-2.8-5.2-4.6-8.9-4.6
				c-4.6,0-8.5,2.8-10.1,6.8c-1.6-4.1-5.5-7-10.2-7c-2,0-3.8,0.5-5.5,1.5c-2-2.1-4.8-3.5-8-3.5c-6,0-10.9,4.9-10.9,10.9
				c0,0.2,0,0.4,0,0.6c-5.6,0.5-9.9,5.2-9.9,10.9c0,6,4.9,10.9,10.9,10.9c1.2,0,2.4-0.2,3.6-0.6c2,2.4,5,3.9,8.4,3.9
				c2.8,0,5.3-1,7.2-2.8c1.9,1.7,4.4,2.8,7.2,2.8c2.1,0,4-0.6,5.6-1.6c1.9,1.6,4.4,2.6,7,2.6c3.5,0,6.7-1.7,8.7-4.3
				c1.4,0.6,2.9,1,4.5,1c5.4,0,9.9-4,10.8-9.2C142.8,175.2,146.4,170.9,146.4,165.8z M108.5,168.6c0-0.1,0.1-0.1,0.1-0.2
				c0,0.1,0,0.1,0.1,0.2C108.6,168.6,108.6,168.6,108.5,168.6L108.5,168.6z"/>
			<path class="st12" d="M144.8,151.6c0-6-4.9-10.9-10.9-10.9c-2.9,0-5.5,1.1-7.5,3c-1.9,0.8-3.5,2.2-4.7,3.9
				c-0.5,0.6-0.9,1.2-1.3,1.9c-0.4,0.2-0.8,0.5-1.2,0.8c-1.4-0.6-2.9-1-4.6-1s-3.2,0.4-4.6,1c-1.7-1.1-3.8-1.8-6-1.8
				c-2.8,0-5.3,1-7.2,2.7c-1.4-0.6-2.9-1-4.5-1s-3.2,0.4-4.6,1c-1.9-3.2-5.4-5.3-9.4-5.3c-2,0-3.8,0.5-5.4,1.4
				c-1.2-0.4-2.4-0.7-3.7-0.7c-6,0-10.9,4.9-10.9,10.9c0,4.6,2.9,8.6,7,10.2c-0.2,0.9-0.4,1.8-0.4,2.8c0,6,4.9,10.9,10.9,10.9
				c0.8,0,1.5-0.1,2.2-0.2c1,0.8,2.2,1.4,3.5,1.8c1.9,3.3,5.4,5.5,9.5,5.5c3.4,0,6.5-1.6,8.5-4.1c0.1,0,0.3,0,0.4,0
				c3.2,0,6.1-1.4,8-3.6c1.5,0.8,3.3,1.3,5.1,1.3c6,0,10.9-4.9,10.9-10.9c0-0.5,0-0.9-0.1-1.4c0.5,0.1,1.1,0.1,1.6,0.1
				c4.2,0,7.8-2.4,9.6-5.8c1.3-0.7,2.5-1.7,3.5-2.9C142.3,159.6,144.8,155.9,144.8,151.6z"/>
			<path class="st13" d="M140,137.6c0-3.4-1.5-6.4-3.9-8.4c-1.9-3.3-5.4-5.6-9.5-5.6c-1,0-1.9,0.1-2.7,0.4c-1.8-3.1-5.2-5.3-9-5.4
				c-2-2.3-5-3.8-8.3-3.8c-2.2,0-4.3,0.7-6,1.8c-0.1,0-0.2,0-0.4,0c-4,0-7.5,2.2-9.4,5.4c-0.7,0.5-1.3,1-1.9,1.6
				c-1.7-1.1-3.7-1.8-5.9-1.8c-5.9,0-10.8,4.8-10.9,10.7c-5.9,0.1-10.7,5-10.7,10.9c0,5.4,4,9.9,9.2,10.8c1.8,1.4,4.1,2.2,6.5,2.2
				c1.5,0,3-0.3,4.3-0.9c1.7,1.2,3.9,1.9,6.1,1.9c0.5,0,1,0,1.5-0.1c2,1.9,4.7,3.2,7.7,3.2c1.9,0,3.8-0.5,5.4-1.4
				c2,2.6,5.1,4.2,8.6,4.2c3.1,0,5.9-1.3,7.9-3.4c1.4,0.7,3.1,1.1,4.8,1.1c6,0,10.9-4.9,10.9-10.9c0-0.9-0.1-1.8-0.3-2.6
				C137.5,145.7,140,142,140,137.6z"/>
		</g>
		<g id="Calque_6_-_copie_3_1_">
			<path class="st9" d="M192.2,141.2c-2.9,7.3,2.3,13.6,2.3,13.6l0.1,10.4c0,0,2,5.6,6.1,10.1c4.5,5,4.3,4.3,4.3,4.3
				c-0.1,0.3,5.1,2.2-0.5,1.5c-0.2,0-5.6-1.8-8.4-4.6c-2.8-2.9-3.4-2.1-5.8-0.1s-1.3,3.1-3.7,6s-9.7,3.3-9.7,3.3s-4.8,0.2-0.5-2.7
				c4.4-2.9,5.8-5.2,6.8-7.7c0.9-2.3,4.8-15.6,2.2-20c-0.9-1.5-1.4-9-1.6-9.3c-0.7-1.1-1-1.7-0.5-2.7c1.7-3.6,2-2.4,3-4.2
				c2.1-4.1,2.4-11,3.9-9.5c1.5,1.4,2.4,2.1,0.6,5.7C190.8,135.4,192.2,141.3,192.2,141.2z"/>
			<path class="st11" d="M214.2,129.6c0,0-10.6,2.9-14.1,11c-3.4,8.2-3,15.6-3,15.6l-0.4,11.8c0,0,1.1,9.1,5.5,14.3
				c4.4,5.1,4.4,5.1,4.4,5.1c0.1,0.8,6.3,4.2-0.6,1.7c-0.2,0-5.9-2.3-8.7-5.7c-2.9-3.4-3-4.9-5.6-2.9c-2.7,2.1-1.5,3.4-4.2,6.7
				c-2.7,3.2-10.5,3.2-10.5,3.2s-5.1,0-0.4-3c4.8-3,7.8-5.3,7.6-8.4c-0.2-3,6.1-16.7,2.3-19.8s-2.9-13.5-4-14.5s-5.3-1.7-7.6-8.2
				s0.8-7.4,0.8-7.4s5.9,8.9,7.2,9.5s8.7,3.8,11.2-0.8s3-12.4,4.6-10.6c1.5,1.7,2.5,2.5,0.4,6.5s1.9-1.9,8.2-3.6
				C213.4,128.5,215.1,127,214.2,129.6z"/>
			<path class="st7" d="M234.6,112.5c0-6-4.9-10.9-10.9-10.9c-3.1,0-5.9,1.3-7.8,3.3c-2-2.8-5.2-4.6-8.9-4.6
				c-4.6,0-8.5,2.8-10.1,6.8c-1.6-4.1-5.5-7-10.2-7c-2,0-3.8,0.5-5.5,1.5c-2-2.1-4.8-3.5-8-3.5c-6,0-10.9,4.9-10.9,10.9
				c0,0.2,0,0.4,0,0.6c-5.6,0.5-9.9,5.2-9.9,10.9c0,6,4.9,10.9,10.9,10.9c1.2,0,2.4-0.2,3.6-0.6c2,2.4,5,3.9,8.4,3.9
				c2.8,0,5.3-1,7.2-2.8c1.9,1.7,4.4,2.8,7.2,2.8c2.1,0,4-0.6,5.6-1.6c1.9,1.6,4.4,2.6,7,2.6c3.5,0,6.7-1.7,8.7-4.3
				c1.4,0.6,2.9,1,4.5,1c5.4,0,9.9-4,10.8-9.2C231.1,121.9,234.6,117.6,234.6,112.5z M196.7,115.3c0-0.1,0.1-0.1,0.1-0.2
				c0,0.1,0,0.1,0.1,0.2C196.8,115.3,196.8,115.4,196.7,115.3C196.7,115.4,196.7,115.3,196.7,115.3z"/>
			<path class="st12" d="M233.1,98.3c0-6-4.9-10.9-10.9-10.9c-2.9,0-5.5,1.1-7.5,3c-1.9,0.8-3.5,2.2-4.7,3.9
				c-0.5,0.6-0.9,1.2-1.3,1.9c-0.4,0.2-0.8,0.5-1.2,0.8c-1.4-0.6-2.9-1-4.6-1c-1.7,0-3.2,0.4-4.6,1c-1.7-1.1-3.8-1.8-6-1.8
				c-2.8,0-5.3,1-7.2,2.7c-1.4-0.6-2.9-1-4.5-1s-3.2,0.4-4.6,1c-1.9-3.2-5.4-5.3-9.4-5.3c-2,0-3.8,0.5-5.4,1.4
				c-1.2-0.4-2.4-0.7-3.7-0.7c-6,0-10.9,4.9-10.9,10.9c0,4.6,2.9,8.6,7,10.2c-0.2,0.9-0.4,1.8-0.4,2.8c0,6,4.9,10.9,10.9,10.9
				c0.8,0,1.5-0.1,2.2-0.2c1,0.8,2.2,1.4,3.5,1.8c1.9,3.3,5.4,5.5,9.5,5.5c3.4,0,6.5-1.6,8.5-4.1c0.1,0,0.3,0,0.4,0
				c3.2,0,6.1-1.4,8-3.6c1.5,0.8,3.3,1.3,5.1,1.3c6,0,10.9-4.9,10.9-10.9c0-0.5,0-0.9-0.1-1.4c0.5,0.1,1.1,0.1,1.6,0.1
				c4.2,0,7.8-2.4,9.6-5.8c1.3-0.7,2.5-1.7,3.5-2.9C230.5,106.4,233.1,102.7,233.1,98.3z"/>
			<path class="st13" d="M228.2,84.4c0-3.4-1.5-6.4-3.9-8.4c-1.9-3.3-5.4-5.6-9.5-5.6c-1,0-1.9,0.1-2.7,0.4c-1.8-3.1-5.2-5.3-9-5.4
				c-2-2.3-5-3.8-8.3-3.8c-2.2,0-4.3,0.7-6,1.8c-0.1,0-0.2,0-0.4,0c-4,0-7.5,2.2-9.4,5.4c-0.7,0.5-1.3,1-1.9,1.6
				c-1.7-1.1-3.7-1.8-5.9-1.8c-5.9,0-10.8,4.8-10.9,10.7c-5.9,0.1-10.7,5-10.7,10.9c0,5.4,4,9.9,9.2,10.8c1.8,1.4,4.1,2.2,6.5,2.2
				c1.5,0,3-0.3,4.3-0.9c1.7,1.2,3.9,1.9,6.1,1.9c0.5,0,1,0,1.5-0.1c2,1.9,4.7,3.2,7.7,3.2c1.9,0,3.8-0.5,5.4-1.4
				c2,2.6,5.1,4.2,8.6,4.2c3.1,0,5.9-1.3,7.9-3.4c1.4,0.7,3.1,1.1,4.8,1.1c6,0,10.9-4.9,10.9-10.9c0-0.9-0.1-1.8-0.3-2.6
				C225.7,92.4,228.2,88.7,228.2,84.4z"/>
		</g>
		<g id="Calque_6_-_copie_3">
			<path class="st9" d="M277.7,92.5c-2.9,7.3,2.3,13.6,2.3,13.6l0.1,10.4c0,0,2,5.6,6.1,10.1c4.5,5,4.3,4.3,4.3,4.3
				c-0.1,0.3,5.1,2.2-0.5,1.5c-0.2,0-5.6-1.8-8.4-4.6c-2.8-2.9-3.4-2.1-5.8-0.1c-2.4,1.9-1.3,3.1-3.7,6c-2.4,2.9-9.7,3.3-9.7,3.3
				s-4.8,0.2-0.5-2.7c4.4-2.9,5.8-5.2,6.8-7.7c0.9-2.3,4.8-15.6,2.2-20c-0.9-1.5-1.4-9-1.6-9.3c-0.7-1.1-1-1.7-0.5-2.7
				c1.7-3.6,2-2.4,3-4.2c2.1-4.1,2.4-11,3.9-9.5c1.5,1.4,2.4,2.1,0.6,5.7C276.4,86.7,277.8,92.6,277.7,92.5z"/>
			<path class="st11" d="M299.7,81c0,0-10.6,2.9-14.1,11c-3.4,8.2-3,15.6-3,15.6l-0.4,11.8c0,0,1.1,9.1,5.5,14.3
				c4.4,5.1,4.4,5.1,4.4,5.1c0.1,0.8,6.3,4.2-0.6,1.7c-0.2,0-5.9-2.3-8.7-5.7c-2.9-3.4-3-4.9-5.6-2.9c-2.7,2.1-1.5,3.4-4.2,6.7
				c-2.7,3.2-10.5,3.2-10.5,3.2s-5.1,0-0.4-3s7.8-5.3,7.6-8.4c-0.2-3,6.1-16.7,2.3-19.8s-2.9-13.5-4-14.5s-5.3-1.7-7.6-8.2
				s0.8-7.4,0.8-7.4s5.9,8.9,7.2,9.5c1.3,0.6,8.7,3.8,11.2-0.8c2.5-4.6,3-12.4,4.6-10.6c1.5,1.7,2.5,2.5,0.4,6.5s1.9-1.9,8.2-3.6
				C299,79.8,300.7,78.3,299.7,81z"/>
			<path class="st7" d="M320.2,63.9c0-6-4.9-10.9-10.9-10.9c-3.1,0-5.9,1.3-7.8,3.3c-2-2.8-5.2-4.6-8.9-4.6c-4.6,0-8.5,2.8-10.1,6.8
				c-1.6-4.1-5.5-7-10.2-7c-2,0-3.8,0.5-5.5,1.5c-2-2.1-4.8-3.5-8-3.5c-6,0-10.9,4.9-10.9,10.9c0,0.2,0,0.4,0,0.6
				c-5.6,0.5-9.9,5.2-9.9,10.9c0,6,4.9,10.9,10.9,10.9c1.2,0,2.4-0.2,3.6-0.6c2,2.4,5,3.9,8.4,3.9c2.8,0,5.3-1,7.2-2.8
				c1.9,1.7,4.4,2.8,7.2,2.8c2.1,0,4-0.6,5.6-1.6c1.9,1.6,4.4,2.6,7,2.6c3.5,0,6.7-1.7,8.7-4.3c1.4,0.6,2.9,1,4.5,1
				c5.4,0,9.9-4,10.8-9.2C316.6,73.2,320.2,69,320.2,63.9z M282.3,66.6c0-0.1,0.1-0.1,0.1-0.2c0,0.1,0,0.1,0.1,0.2
				C282.4,66.7,282.4,66.7,282.3,66.6C282.3,66.7,282.3,66.7,282.3,66.6z"/>
			<path class="st12" d="M318.6,49.7c0-6-4.9-10.9-10.9-10.9c-2.9,0-5.5,1.1-7.5,3c-1.9,0.8-3.5,2.2-4.7,3.9
				c-0.5,0.6-0.9,1.2-1.3,1.9c-0.4,0.2-0.8,0.5-1.2,0.8c-1.4-0.6-2.9-1-4.6-1s-3.2,0.4-4.6,1c-1.7-1.1-3.8-1.8-6-1.8
				c-2.8,0-5.3,1-7.2,2.7c-1.4-0.6-2.9-1-4.5-1s-3.2,0.4-4.6,1c-1.9-3.2-5.4-5.3-9.4-5.3c-2,0-3.8,0.5-5.4,1.4
				c-1.2-0.4-2.4-0.7-3.7-0.7c-6,0-10.9,4.9-10.9,10.9c0,4.6,2.9,8.6,7,10.2c-0.2,0.9-0.4,1.8-0.4,2.8c0,6,4.9,10.9,10.9,10.9
				c0.8,0,1.5-0.1,2.2-0.2c1,0.8,2.2,1.4,3.5,1.8c1.9,3.3,5.4,5.5,9.5,5.5c3.4,0,6.5-1.6,8.5-4.1c0.1,0,0.3,0,0.4,0
				c3.2,0,6.1-1.4,8-3.6c1.5,0.8,3.3,1.3,5.1,1.3c6,0,10.9-4.9,10.9-10.9c0-0.5,0-0.9-0.1-1.4c0.5,0.1,1.1,0.1,1.6,0.1
				c4.2,0,7.8-2.4,9.6-5.8c1.3-0.7,2.5-1.7,3.5-2.9C316.1,57.7,318.6,54,318.6,49.7z"/>
			<path class="st13" d="M313.8,35.7c0-3.4-1.5-6.4-3.9-8.4c-1.9-3.3-5.4-5.6-9.5-5.6c-1,0-1.9,0.1-2.7,0.4c-1.8-3.1-5.2-5.3-9-5.4
				c-2-2.3-5-3.8-8.3-3.8c-2.2,0-4.3,0.7-6,1.8c-0.1,0-0.2,0-0.4,0c-4,0-7.5,2.2-9.4,5.4c-0.7,0.5-1.3,1-1.9,1.6
				c-1.7-1.1-3.7-1.8-5.9-1.8c-5.9,0-10.8,4.8-10.9,10.7c-5.9,0.1-10.7,5-10.7,10.9c0,5.4,4,9.9,9.2,10.8c1.8,1.4,4.1,2.2,6.5,2.2
				c1.5,0,3-0.3,4.3-0.9c1.7,1.2,3.9,1.9,6.1,1.9c0.5,0,1,0,1.5-0.1c2,1.9,4.7,3.2,7.7,3.2c1.9,0,3.8-0.5,5.4-1.4
				c2,2.6,5.1,4.2,8.6,4.2c3.1,0,5.9-1.3,7.9-3.4c1.4,0.7,3.1,1.1,4.8,1.1c6,0,10.9-4.9,10.9-10.9c0-0.9-0.1-1.8-0.3-2.6
				C311.3,43.8,313.8,40,313.8,35.7z"/>
		</g>
	</g>
	<g id="Calque_10">
		<g id="Calque_6">
			<path class="st9" d="M197.1,254.1c-2.9,7.3,2.3,13.6,2.3,13.6l0.1,10.4c0,0,2,5.6,6.1,10.1c4.5,5,4.3,4.3,4.3,4.3
				c-0.1,0.3,5.1,2.2-0.5,1.5c-0.2,0-5.6-1.8-8.4-4.6c-2.8-2.9-3.4-2.1-5.8-0.1c-2.4,1.9-1.3,3.1-3.7,6s-9.7,3.3-9.7,3.3
				s-4.8,0.2-0.5-2.7c4.4-2.9,5.8-5.2,6.8-7.7c0.9-2.3,4.8-15.6,2.2-20c-0.9-1.5-1.4-9-1.6-9.3c-0.7-1.1-1-1.7-0.5-2.7
				c1.7-3.6,2-2.4,3-4.2c2.1-4.1,2.4-11,3.9-9.5s2.4,2.1,0.6,5.7C195.8,248.3,197.2,254.2,197.1,254.1z"/>
			<path class="st11" d="M219.1,242.6c0,0-10.6,2.9-14.1,11c-3.4,8.2-3,15.6-3,15.6l-0.4,11.8c0,0,1.1,9.1,5.5,14.3
				c4.4,5.1,4.4,5.1,4.4,5.1c0.1,0.8,6.3,4.2-0.6,1.7c-0.2,0-5.9-2.3-8.7-5.7c-2.9-3.4-3-4.9-5.6-2.9c-2.7,2.1-1.5,3.4-4.2,6.7
				c-2.7,3.2-10.5,3.2-10.5,3.2s-5.1,0-0.4-3c4.8-3,7.8-5.3,7.6-8.4c-0.2-3,6.1-16.7,2.3-19.8c-3.8-3-2.9-13.5-4-14.5
				s-5.3-1.7-7.6-8.2s0.8-7.4,0.8-7.4s5.9,8.9,7.2,9.5s8.7,3.8,11.2-0.8s3-12.4,4.6-10.6c1.5,1.7,2.5,2.5,0.4,6.5s1.9-1.9,8.2-3.6
				C218.4,241.5,220.1,239.9,219.1,242.6z"/>
			<path class="st7" d="M239.5,225.5c0-6-4.9-10.9-10.9-10.9c-3.1,0-5.9,1.3-7.8,3.3c-2-2.8-5.2-4.6-8.9-4.6
				c-4.6,0-8.5,2.8-10.1,6.8c-1.6-4.1-5.5-7-10.2-7c-2,0-3.8,0.5-5.5,1.5c-2-2.1-4.8-3.5-8-3.5c-6,0-10.9,4.9-10.9,10.9
				c0,0.2,0,0.4,0,0.6c-5.6,0.5-9.9,5.2-9.9,10.9c0,6,4.9,10.9,10.9,10.9c1.2,0,2.4-0.2,3.6-0.6c2,2.4,5,3.9,8.4,3.9
				c2.8,0,5.3-1,7.2-2.8c1.9,1.7,4.4,2.8,7.2,2.8c2.1,0,4-0.6,5.6-1.6c1.9,1.6,4.4,2.6,7,2.6c3.5,0,6.7-1.7,8.7-4.3
				c1.4,0.6,2.9,1,4.5,1c5.4,0,9.9-4,10.8-9.2C236,234.9,239.5,230.6,239.5,225.5z M201.6,228.3c0-0.1,0.1-0.1,0.1-0.2
				c0,0.1,0,0.1,0.1,0.2C201.8,228.3,201.7,228.3,201.6,228.3C201.7,228.3,201.7,228.3,201.6,228.3z"/>
			<path class="st12" d="M238,211.3c0-6-4.9-10.9-10.9-10.9c-2.9,0-5.5,1.1-7.5,3c-1.9,0.8-3.5,2.2-4.7,3.9
				c-0.5,0.6-0.9,1.2-1.3,1.9c-0.4,0.2-0.8,0.5-1.2,0.8c-1.4-0.6-2.9-1-4.6-1c-1.7,0-3.2,0.4-4.6,1c-1.7-1.1-3.8-1.8-6-1.8
				c-2.8,0-5.3,1-7.2,2.7c-1.4-0.6-2.9-1-4.5-1s-3.2,0.4-4.6,1c-1.9-3.2-5.4-5.3-9.4-5.3c-2,0-3.8,0.5-5.4,1.4
				c-1.2-0.4-2.4-0.7-3.7-0.7c-6,0-10.9,4.9-10.9,10.9c0,4.6,2.9,8.6,7,10.2c-0.2,0.9-0.4,1.8-0.4,2.8c0,6,4.9,10.9,10.9,10.9
				c0.8,0,1.5-0.1,2.2-0.2c1,0.8,2.2,1.4,3.5,1.8c1.9,3.3,5.4,5.5,9.5,5.5c3.4,0,6.5-1.6,8.5-4.1c0.1,0,0.3,0,0.4,0
				c3.2,0,6.1-1.4,8-3.6c1.5,0.8,3.3,1.3,5.1,1.3c6,0,10.9-4.9,10.9-10.9c0-0.5,0-0.9-0.1-1.4c0.5,0.1,1.1,0.1,1.6,0.1
				c4.2,0,7.8-2.4,9.6-5.8c1.3-0.7,2.5-1.7,3.5-2.9C235.5,219.3,238,215.6,238,211.3z"/>
			<path class="st13" d="M233.2,197.3c0-3.4-1.5-6.4-3.9-8.4c-1.9-3.3-5.4-5.6-9.5-5.6c-1,0-1.9,0.1-2.7,0.4c-1.8-3.1-5.2-5.3-9-5.4
				c-2-2.3-5-3.8-8.3-3.8c-2.2,0-4.3,0.7-6,1.8c-0.1,0-0.2,0-0.4,0c-4,0-7.5,2.2-9.4,5.4c-0.7,0.5-1.3,1-1.9,1.6
				c-1.7-1.1-3.7-1.8-5.9-1.8c-5.9,0-10.8,4.8-10.9,10.7c-5.9,0.1-10.7,5-10.7,10.9c0,5.4,4,9.9,9.2,10.8c1.8,1.4,4.1,2.2,6.5,2.2
				c1.5,0,3-0.3,4.3-0.9c1.7,1.2,3.9,1.9,6.1,1.9c0.5,0,1,0,1.5-0.1c2,1.9,4.7,3.2,7.7,3.2c1.9,0,3.8-0.5,5.4-1.4
				c2,2.6,5.1,4.2,8.6,4.2c3.1,0,5.9-1.3,7.9-3.4c1.4,0.7,3.1,1.1,4.8,1.1c6,0,10.9-4.9,10.9-10.9c0-0.9-0.1-1.8-0.3-2.6
				C230.7,205.4,233.2,201.7,233.2,197.3z"/>
		</g>
		<g id="Calque_6_-_copie">
			<path class="st9" d="M285.4,200.9c-2.9,7.3,2.3,13.6,2.3,13.6l0.1,10.4c0,0,2,5.6,6.1,10.1c4.5,5,4.3,4.3,4.3,4.3
				c-0.1,0.3,5.1,2.2-0.5,1.5c-0.2,0-5.6-1.8-8.4-4.6c-2.8-2.9-3.4-2.1-5.8-0.1c-2.4,1.9-1.3,3.1-3.7,6c-2.4,2.9-9.7,3.3-9.7,3.3
				s-4.8,0.2-0.5-2.7c4.4-2.9,5.8-5.2,6.8-7.7c0.9-2.3,4.8-15.6,2.2-20c-0.9-1.5-1.4-9-1.6-9.3c-0.7-1.1-1-1.7-0.5-2.7
				c1.7-3.6,2-2.4,3-4.2c2.1-4.1,2.4-11,3.9-9.5c1.5,1.4,2.4,2.1,0.6,5.7C284,195.1,285.4,201,285.4,200.9z"/>
			<path class="st11" d="M307.3,189.4c0,0-10.6,2.9-14.1,11c-3.4,8.2-3,15.6-3,15.6l-0.4,11.8c0,0,1.1,9.1,5.5,14.3
				c4.4,5.1,4.4,5.1,4.4,5.1c0.1,0.8,6.3,4.2-0.6,1.7c-0.2,0-5.9-2.3-8.7-5.7s-3-4.9-5.6-2.9c-2.7,2.1-1.5,3.4-4.2,6.7
				c-2.7,3.2-10.5,3.2-10.5,3.2s-5.1,0-0.4-3c4.8-3,7.8-5.3,7.6-8.4c-0.2-3,6.1-16.7,2.3-19.8s-2.9-13.5-4-14.5s-5.3-1.7-7.6-8.2
				c-2.3-6.5,0.8-7.4,0.8-7.4s5.9,8.9,7.2,9.5s8.7,3.8,11.2-0.8s3-12.4,4.6-10.6c1.5,1.7,2.5,2.5,0.4,6.5s1.9-1.9,8.2-3.6
				C306.6,188.2,308.3,186.7,307.3,189.4z"/>
			<path class="st7" d="M327.8,172.2c0-6-4.9-10.9-10.9-10.9c-3.1,0-5.9,1.3-7.8,3.3c-2-2.8-5.2-4.6-8.9-4.6
				c-4.6,0-8.5,2.8-10.1,6.8c-1.6-4.1-5.5-7-10.2-7c-2,0-3.8,0.5-5.5,1.5c-2-2.1-4.8-3.5-8-3.5c-6,0-10.9,4.9-10.9,10.9
				c0,0.2,0,0.4,0,0.6c-5.6,0.5-9.9,5.2-9.9,10.9c0,6,4.9,10.9,10.9,10.9c1.2,0,2.4-0.2,3.6-0.6c2,2.4,5,3.9,8.4,3.9
				c2.8,0,5.3-1,7.2-2.8c1.9,1.7,4.4,2.8,7.2,2.8c2.1,0,4-0.6,5.6-1.6c1.9,1.6,4.4,2.6,7,2.6c3.5,0,6.7-1.7,8.7-4.3
				c1.4,0.6,2.9,1,4.5,1c5.4,0,9.9-4,10.8-9.2C324.2,181.6,327.8,177.3,327.8,172.2z M289.9,175c0-0.1,0.1-0.1,0.1-0.2
				c0,0.1,0,0.1,0.1,0.2C290,175.1,290,175.1,289.9,175C289.9,175.1,289.9,175,289.9,175z"/>
			<path class="st12" d="M326.2,158c0-6-4.9-10.9-10.9-10.9c-2.9,0-5.5,1.1-7.5,3c-1.9,0.8-3.5,2.2-4.7,3.9
				c-0.5,0.6-0.9,1.2-1.3,1.9c-0.4,0.2-0.8,0.5-1.2,0.8c-1.4-0.6-2.9-1-4.6-1s-3.2,0.4-4.6,1c-1.7-1.1-3.8-1.8-6-1.8
				c-2.8,0-5.3,1-7.2,2.7c-1.4-0.6-2.9-1-4.5-1s-3.2,0.4-4.6,1c-1.9-3.2-5.4-5.3-9.4-5.3c-2,0-3.8,0.5-5.4,1.4
				c-1.2-0.4-2.4-0.7-3.7-0.7c-6,0-10.9,4.9-10.9,10.9c0,4.6,2.9,8.6,7,10.2c-0.2,0.9-0.4,1.8-0.4,2.8c0,6,4.9,10.9,10.9,10.9
				c0.8,0,1.5-0.1,2.2-0.2c1,0.8,2.2,1.4,3.5,1.8c1.9,3.3,5.4,5.5,9.5,5.5c3.4,0,6.5-1.6,8.5-4.1c0.1,0,0.3,0,0.4,0
				c3.2,0,6.1-1.4,8-3.6c1.5,0.8,3.3,1.3,5.1,1.3c6,0,10.9-4.9,10.9-10.9c0-0.5,0-0.9-0.1-1.4c0.5,0.1,1.1,0.1,1.6,0.1
				c4.2,0,7.8-2.4,9.6-5.8c1.3-0.7,2.5-1.7,3.5-2.9C323.7,166.1,326.2,162.4,326.2,158z"/>
			<path class="st13" d="M321.4,144.1c0-3.4-1.5-6.4-3.9-8.4c-1.9-3.3-5.4-5.6-9.5-5.6c-1,0-1.9,0.1-2.7,0.4c-1.8-3.1-5.2-5.3-9-5.4
				c-2-2.3-5-3.8-8.3-3.8c-2.2,0-4.3,0.7-6,1.8c-0.1,0-0.2,0-0.4,0c-4,0-7.5,2.2-9.4,5.4c-0.7,0.5-1.3,1-1.9,1.6
				c-1.7-1.1-3.7-1.8-5.9-1.8c-5.9,0-10.8,4.8-10.9,10.7c-5.9,0.1-10.7,5-10.7,10.9c0,5.4,4,9.9,9.2,10.8c1.8,1.4,4.1,2.2,6.5,2.2
				c1.5,0,3-0.3,4.3-0.9c1.7,1.2,3.9,1.9,6.1,1.9c0.5,0,1,0,1.5-0.1c2,1.9,4.7,3.2,7.7,3.2c1.9,0,3.8-0.5,5.4-1.4
				c2,2.6,5.1,4.2,8.6,4.2c3.1,0,5.9-1.3,7.9-3.4c1.4,0.7,3.1,1.1,4.8,1.1c6,0,10.9-4.9,10.9-10.9c0-0.9-0.1-1.8-0.3-2.6
				C318.9,152.1,321.4,148.4,321.4,144.1z"/>
		</g>
		<g id="Calque_6_-_copie_2">
			<path class="st9" d="M370.9,152.2c-2.9,7.3,2.3,13.6,2.3,13.6l0.1,10.4c0,0,2,5.6,6.1,10.1c4.5,5,4.3,4.3,4.3,4.3
				c-0.1,0.3,5.1,2.2-0.5,1.5c-0.2,0-5.6-1.8-8.4-4.6c-2.8-2.9-3.4-2.1-5.8-0.1c-2.4,1.9-1.3,3.1-3.7,6c-2.4,2.9-9.7,3.3-9.7,3.3
				s-4.8,0.2-0.5-2.7c4.4-2.9,5.8-5.2,6.8-7.7c0.9-2.3,4.8-15.6,2.2-20c-0.9-1.5-1.4-9-1.6-9.3c-0.7-1.1-1-1.7-0.5-2.7
				c1.7-3.6,2-2.4,3-4.2c2.1-4.1,2.4-11,3.9-9.5c1.5,1.4,2.4,2.1,0.6,5.7C369.6,146.4,371,152.3,370.9,152.2z"/>
			<path class="st11" d="M392.9,140.7c0,0-10.6,2.9-14.1,11c-3.4,8.2-3,15.6-3,15.6l-0.4,11.8c0,0,1.1,9.1,5.5,14.3
				c4.4,5.1,4.4,5.1,4.4,5.1c0.1,0.8,6.3,4.2-0.6,1.7c-0.2,0-5.9-2.3-8.7-5.7c-2.9-3.4-3-4.9-5.6-2.9s-1.5,3.4-4.2,6.7
				c-2.7,3.2-10.5,3.2-10.5,3.2s-5.1,0-0.4-3s7.8-5.3,7.6-8.4c-0.2-3,6.1-16.7,2.3-19.8s-2.9-13.5-4-14.5s-5.3-1.7-7.6-8.2
				c-2.3-6.5,0.8-7.4,0.8-7.4s5.9,8.9,7.2,9.5c1.3,0.6,8.7,3.8,11.2-0.8s3-12.4,4.6-10.6s2.5,2.5,0.4,6.5s1.9-1.9,8.2-3.6
				C392.2,139.5,393.9,138,392.9,140.7z"/>
			<path class="st7" d="M413.3,123.6c0-6-4.9-10.9-10.9-10.9c-3.1,0-5.9,1.3-7.8,3.3c-2-2.8-5.2-4.6-8.9-4.6
				c-4.6,0-8.5,2.8-10.1,6.8c-1.6-4.1-5.5-7-10.2-7c-2,0-3.8,0.5-5.5,1.5c-2-2.1-4.8-3.5-8-3.5c-6,0-10.9,4.9-10.9,10.9
				c0,0.2,0,0.4,0,0.6c-5.6,0.5-9.9,5.2-9.9,10.9c0,6,4.9,10.9,10.9,10.9c1.2,0,2.4-0.2,3.6-0.6c2,2.4,5,3.9,8.4,3.9
				c2.8,0,5.3-1,7.2-2.8c1.9,1.7,4.4,2.8,7.2,2.8c2.1,0,4-0.6,5.6-1.6c1.9,1.6,4.4,2.6,7,2.6c3.5,0,6.7-1.7,8.7-4.3
				c1.4,0.6,2.9,1,4.5,1c5.4,0,9.9-4,10.8-9.2C409.8,132.9,413.3,128.7,413.3,123.6z M375.4,126.3c0-0.1,0.1-0.1,0.1-0.2
				c0,0.1,0,0.1,0.1,0.2C375.6,126.4,375.5,126.4,375.4,126.3C375.5,126.4,375.4,126.4,375.4,126.3z"/>
			<path class="st12" d="M411.8,109.4c0-6-4.9-10.9-10.9-10.9c-2.9,0-5.5,1.1-7.5,3c-1.9,0.8-3.5,2.2-4.7,3.9
				c-0.5,0.6-0.9,1.2-1.3,1.9c-0.4,0.2-0.8,0.5-1.2,0.8c-1.4-0.6-2.9-1-4.6-1s-3.2,0.4-4.6,1c-1.7-1.1-3.8-1.8-6-1.8
				c-2.8,0-5.3,1-7.2,2.7c-1.4-0.6-2.9-1-4.5-1s-3.2,0.4-4.6,1c-1.9-3.2-5.4-5.3-9.4-5.3c-2,0-3.8,0.5-5.4,1.4
				c-1.2-0.4-2.4-0.7-3.7-0.7c-6,0-10.9,4.9-10.9,10.9c0,4.6,2.9,8.6,7,10.2c-0.2,0.9-0.4,1.8-0.4,2.8c0,6,4.9,10.9,10.9,10.9
				c0.8,0,1.5-0.1,2.2-0.2c1,0.8,2.2,1.4,3.5,1.8c1.9,3.3,5.4,5.5,9.5,5.5c3.4,0,6.5-1.6,8.5-4.1c0.1,0,0.3,0,0.4,0
				c3.2,0,6.1-1.4,8-3.6c1.5,0.8,3.3,1.3,5.1,1.3c6,0,10.9-4.9,10.9-10.9c0-0.5,0-0.9-0.1-1.4c0.5,0.1,1.1,0.1,1.6,0.1
				c4.2,0,7.8-2.4,9.6-5.8c1.3-0.7,2.5-1.7,3.5-2.9C409.3,117.4,411.8,113.7,411.8,109.4z"/>
			<path class="st13" d="M407,95.4c0-3.4-1.5-6.4-3.9-8.4c-1.9-3.3-5.4-5.6-9.5-5.6c-1,0-1.9,0.1-2.7,0.4c-1.8-3.1-5.2-5.3-9-5.4
				c-2-2.3-5-3.8-8.3-3.8c-2.2,0-4.3,0.7-6,1.8c-0.1,0-0.2,0-0.4,0c-4,0-7.5,2.2-9.4,5.4c-0.7,0.5-1.3,1-1.9,1.6
				c-1.7-1.1-3.7-1.8-5.9-1.8c-5.9,0-10.8,4.8-10.9,10.7c-5.9,0.1-10.7,5-10.7,10.9c0,5.4,4,9.9,9.2,10.8c1.8,1.4,4.1,2.2,6.5,2.2
				c1.5,0,3-0.3,4.3-0.9c1.7,1.2,3.9,1.9,6.1,1.9c0.5,0,1,0,1.5-0.1c2,1.9,4.7,3.2,7.7,3.2c1.9,0,3.8-0.5,5.4-1.4
				c2,2.6,5.1,4.2,8.6,4.2c3.1,0,5.9-1.3,7.9-3.4c1.4,0.7,3.1,1.1,4.8,1.1c6,0,10.9-4.9,10.9-10.9c0-0.9-0.1-1.8-0.3-2.6
				C404.5,103.5,407,99.7,407,95.4z"/>
		</g>
	</g>
</g>
<g id="Calque_15">
	<polygon class="st0" points="235.9,334.8 227.2,339.8 253.7,355.1 262.4,350.1 	"/>
	<polygon class="st9" points="374.9,437.4 390.9,385.9 399.9,386.9 384.4,438.9 	"/>
	<polygon class="st9" points="451.4,458.4 446.7,461.1 428,450.3 427.7,450.1 420.2,445.8 390,445.1 379.6,438.3 423.1,437.7 
		436.2,445.2 436.4,445.3 450.1,453.1 450.5,454.8 	"/>
	<polygon class="st0" points="385.9,383.9 314.1,408.4 313.4,400.7 381,376.8 	"/>
	<polygon class="st0" points="298.6,389.9 306.1,343.9 313.9,344.6 306.4,395.9 	"/>
	<polygon class="st0" points="300.6,344.1 253.7,355.1 255.8,346.4 298.6,336.4 	"/>
	<g id="Calque_14">
		<path class="st9" d="M395.4,454.7c0,0.3,0,0.6-0.1,1l0,0c-0.9,7.1-11.8,12.7-25.1,12.7c-13.3,0-24.1-5.5-25.1-12.6
			c0-0.3-0.1-0.6-0.1-0.8c0-0.1,0-0.2,0-0.2c0-0.1,0-0.2,0-0.2c0-0.8,0.2-1.6,0.4-2.4c0.2-0.6,0.5-1.2,0.9-1.8
			c1.6-2.5,4.5-4.7,8.2-6.3c1.1-0.5,2.2-0.9,3.5-1.3c-0.2,0.1-0.4,0.2-0.6,0.3c-3.2,1.9-5,4.3-5.2,6.8c0.3,2.5,2,4.9,5.2,6.7
			c7,4.1,18.5,4.1,25.5,0c3.3-1.8,5-4.3,5.3-6.7c-0.3-2.5-2-4.9-5.3-6.8c-0.2-0.1-0.4-0.2-0.6-0.3c1.2,0.4,2.4,0.8,3.5,1.3
			c3.7,1.6,6.5,3.7,8.1,6.1c0.5,0.7,0.8,1.3,1,2C395.2,453,395.4,453.8,395.4,454.7z"/>
		<polygon class="st9" points="345,455.8 345,449.2 350,453.6 		"/>
		<polygon class="st9" points="395.4,449.4 395.4,455.6 392.8,458.3 391.6,451.2 		"/>
		<path class="st11" d="M394.3,445.2c-1.4-2.8-4.3-5.2-8-7l0,0c-0.5-0.2-0.9-0.5-1.5-0.7c-2.7-1.1-5.8-1.9-9.2-2.4
			c-1.7-0.2-3.5-0.3-5.4-0.3c-13.8,0-25,6.4-25.2,14.4c0,0.1,0,0.1,0,0.2s0,0.2,0,0.3c0,0.8,0.2,1.7,0.4,2.5c0.3,1,0.8,1.9,1.5,2.8
			c3.8,5.3,12.8,9,23.3,9c9.7,0,18.1-3.1,22.3-7.7c1.1-1.3,2-2.6,2.5-4.1c0.3-0.9,0.5-1.8,0.5-2.8
			C395.4,447.9,395,446.6,394.3,445.2z M382.9,456.6c-7,4.1-18.5,4.1-25.5,0c-3.3-1.9-5-4.3-5.2-6.7c0.3-2.5,2-4.9,5.2-6.8
			c0.2-0.1,0.4-0.2,0.6-0.3c6.9-3.7,17.5-3.7,24.4,0c0.2,0.1,0.4,0.2,0.6,0.3c3.3,1.9,5,4.3,5.3,6.8
			C387.9,452.3,386.2,454.7,382.9,456.6z"/>
		<path class="st9" d="M388.2,449.8c-0.3-2.5-2-4.9-5.3-6.8c-0.2-0.1-0.4-0.2-0.6-0.3c-6.9-3.6-17.5-3.6-24.4,0
			c-0.2,0.1-0.4,0.2-0.6,0.3c-3.2,1.9-5,4.3-5.2,6.8c-0.2-2,0.6-4,2.4-5.8c0.8-0.8,1.7-1.5,2.9-2.2c7-4.1,18.5-4.1,25.5,0
			c1.2,0.7,2.1,1.4,2.9,2.2C387.6,445.8,388.4,447.8,388.2,449.8z"/>
	</g>
	<g id="Calque_14_-_copie_2">
		<path class="st0" d="M319.4,408.2c0,0.3,0,0.6-0.1,1c-0.9,7.1-11.8,12.7-25.1,12.7c-13.3,0-24.1-5.5-25.1-12.6
			c0-0.3-0.1-0.6-0.1-0.8c0-0.1,0-0.2,0-0.2c0-0.1,0-0.2,0-0.2c0-0.8,0.2-1.6,0.4-2.4c0.2-0.6,0.5-1.2,0.9-1.8
			c1.6-2.5,4.5-4.7,8.2-6.3c1.1-0.5,2.2-0.9,3.5-1.3c-0.2,0.1-0.4,0.2-0.6,0.3c-3.2,1.9-5,4.3-5.2,6.8c0.3,2.5,2,4.9,5.2,6.7
			c7,4.1,18.5,4.1,25.5,0c3.3-1.8,5-4.3,5.3-6.7c-0.3-2.5-2-4.9-5.3-6.8c-0.2-0.1-0.4-0.2-0.6-0.3c1.2,0.4,2.4,0.8,3.5,1.3
			c1.8,0.8,3.5,1.7,4.8,2.8c1.3,1,2.4,2.1,3.2,3.3c0.5,0.7,0.8,1.3,1,2c0.1,0.3,0.2,0.7,0.3,1C319.3,407.2,319.4,407.7,319.4,408.2z
			"/>
		<polygon class="st0" points="269,409.3 269,402.7 274,407.1 		"/>
		<polygon class="st0" points="319.4,402.9 319.4,409.1 316.8,411.8 315.6,404.7 		"/>
		<path class="st2" d="M318.4,398.9c-1.8-3.6-5.8-6.6-11.3-8.5c-2.5-0.9-5.3-1.5-8.3-1.8c-1.5-0.2-3.1-0.3-4.7-0.3
			c-13.8,0-25,6.4-25.2,14.4c0,0.1,0,0.1,0,0.2s0,0.2,0,0.3c0,0.8,0.2,1.7,0.4,2.5c0.3,1,0.8,1.9,1.5,2.8c3.8,5.3,12.8,9,23.3,9
			c9.7,0,18.1-3.1,22.3-7.7c0.8-0.9,1.5-1.8,2-2.8c0.2-0.4,0.4-0.8,0.5-1.3c0.3-0.9,0.5-1.8,0.5-2.8
			C319.4,401.5,319.1,400.2,318.4,398.9z M306.9,410.1c-7,4.1-18.5,4.1-25.5,0c-3.3-1.9-5-4.3-5.2-6.7c0.3-2.5,2-4.9,5.2-6.8
			c0.2-0.1,0.4-0.2,0.6-0.3c6.9-3.7,17.5-3.7,24.4,0c0.2,0.1,0.4,0.2,0.6,0.3c3.3,1.9,5,4.3,5.3,6.8
			C311.9,405.8,310.2,408.2,306.9,410.1z"/>
		<path class="st0" d="M312.2,403.3c-0.3-2.5-2-4.9-5.3-6.8c-0.2-0.1-0.4-0.2-0.6-0.3c-6.9-3.6-17.5-3.6-24.4,0
			c-0.2,0.1-0.4,0.2-0.6,0.3c-3.2,1.9-5,4.3-5.2,6.8c-0.2-2,0.6-4,2.4-5.8c0.8-0.8,1.7-1.5,2.9-2.2c6.1-3.5,15.4-4,22.4-1.4
			c0.9,0.3,1.8,0.7,2.7,1.2c0.2,0.1,0.3,0.2,0.4,0.2c1.2,0.7,2.1,1.4,2.9,2.2C311.6,399.3,312.4,401.3,312.2,403.3z"/>
	</g>
	<g id="Calque_14_-_copie">
		<path class="st9" d="M423,378.1c0,0.3,0,0.5-0.1,0.8c-0.8,6.1-10.2,11-21.7,11c-0.8,0-1.5,0-2.2-0.1c-3.2-0.2-6.2-0.7-8.9-1.6
			c-2.7-0.9-5.1-2.1-6.8-3.5c-2.1-1.7-3.5-3.6-3.8-5.8c0-0.3-0.1-0.5-0.1-0.7c0-0.1,0-0.1,0-0.2s0-0.1,0-0.2c0-0.2,0-0.4,0-0.6
			c0-0.5,0.2-1,0.3-1.5c0.2-0.5,0.4-1,0.7-1.5c1.4-2.2,3.9-4.1,7.1-5.5c1-0.4,2-0.8,3-1.1c-0.2,0.1-0.4,0.2-0.5,0.3
			c-2.8,1.6-4.3,3.7-4.5,5.8c0.2,2.1,1.7,4.2,4.5,5.8c6.1,3.5,16,3.5,22.1,0c2.8-1.6,4.3-3.7,4.5-5.8c-0.2-2.1-1.7-4.2-4.5-5.8
			c-0.2-0.1-0.4-0.2-0.5-0.3c1.1,0.3,2.1,0.7,3,1.1c3.1,1.3,5.6,3.2,7,5.3c0.4,0.6,0.7,1.2,0.9,1.8C422.9,376.6,423,377.3,423,378.1
			z"/>
		<polygon class="st9" points="379.5,379 379.5,373.3 383.8,377.2 		"/>
		<polygon class="st9" points="423,373.5 423,378.9 420.8,381.2 419.8,375 		"/>
		<path class="st11" d="M401.3,360.9c-11.9,0-21.6,5.5-21.8,12.4c0,0,0,0.1,0,0.2s0,0.1,0,0.2c0,0.7,0.2,1.5,0.4,2.2
			c0.1,0.4,0.3,0.8,0.5,1.2c0.2,0.4,0.5,0.9,0.8,1.3c0.7,1,1.6,1.9,2.8,2.8l0,0l0,0c4,3,10.3,5,17.3,5c8.4,0,15.6-2.7,19.3-6.7
			c1-1.1,1.7-2.3,2.1-3.5c0.3-0.8,0.4-1.6,0.4-2.4C423,366.5,413.3,360.9,401.3,360.9z M412.3,379.7c-6.1,3.5-16,3.5-22.1,0
			c-2.8-1.6-4.3-3.7-4.5-5.8c0.2-2.1,1.7-4.2,4.5-5.8c0.2-0.1,0.3-0.2,0.5-0.3c5.9-3.1,15.1-3.1,21,0c0.2,0.1,0.4,0.2,0.5,0.3
			c2.8,1.6,4.3,3.7,4.5,5.8C416.6,376,415.1,378.1,412.3,379.7z"/>
		<path class="st9" d="M416.8,373.9c-0.2-2.1-1.7-4.2-4.5-5.8c-0.2-0.1-0.4-0.2-0.5-0.3c-5.9-3.1-15.1-3.1-21,0
			c-0.2,0.1-0.4,0.2-0.5,0.3c-2.8,1.6-4.3,3.7-4.5,5.8c-0.2-1.7,0.5-3.5,2-5c0.7-0.7,1.5-1.3,2.5-1.9c6.1-3.5,16-3.5,22.1,0
			c1,0.6,1.8,1.2,2.5,1.9C416.3,370.4,417,372.1,416.8,373.9z"/>
	</g>
	<g id="Calque_14_-_copie_3">
		<path class="st0" d="M336.5,336.6c0,0.3,0,0.5-0.1,0.8c-0.8,6.1-10.2,11-21.7,11c-0.5,0-0.9,0-1.4,0c-2.8-0.1-5.4-0.5-7.8-1.1
			c-2.6-0.7-4.9-1.6-6.8-2.7c-3.1-1.8-5.2-4.3-5.7-6.9c0-0.1,0-0.1,0-0.2c0-0.3-0.1-0.5-0.1-0.7c0-0.1,0-0.1,0-0.2s0-0.1,0-0.2
			c0-0.7,0.2-1.4,0.4-2c0.2-0.5,0.4-1,0.7-1.5c1.4-2.2,3.9-4.1,7.1-5.5c1-0.4,2-0.8,3-1.1c-0.2,0.1-0.4,0.2-0.5,0.3
			c-2.8,1.6-4.3,3.7-4.5,5.8c0.2,2.1,1.7,4.2,4.5,5.8c6.1,3.5,16,3.5,22.1,0c2.8-1.6,4.3-3.7,4.5-5.8c-0.2-2.1-1.7-4.2-4.5-5.8
			c-0.2-0.1-0.4-0.2-0.5-0.3c1.1,0.3,2.1,0.7,3,1.1c3.1,1.3,5.6,3.2,7,5.3c0.4,0.6,0.7,1.2,0.9,1.8
			C336.4,335.1,336.5,335.8,336.5,336.6z"/>
		<polygon class="st0" points="293,337.5 293,331.8 297.3,335.7 		"/>
		<polygon class="st0" points="336.5,332 336.5,337.4 334.3,339.7 333.3,333.5 		"/>
		<path class="st2" d="M314.8,319.4c-11.9,0-21.6,5.5-21.8,12.4c0,0,0,0.1,0,0.2s0,0.1,0,0.2c0,0.7,0.2,1.5,0.4,2.2
			c0.3,0.9,0.7,1.7,1.3,2.5c0.1,0.1,0.2,0.3,0.3,0.4c1.2,1.5,2.8,2.8,4.9,3.9c3.1,1.7,7.1,2.9,11.6,3.3c1.1,0.1,2.2,0.1,3.3,0.1
			c8.4,0,15.6-2.7,19.3-6.7c1-1.1,1.7-2.3,2.1-3.5c0.3-0.8,0.4-1.6,0.4-2.4C336.5,325,326.8,319.4,314.8,319.4z M325.8,338.2
			c-6.1,3.5-16,3.5-22.1,0c-2.8-1.6-4.3-3.7-4.5-5.8c0.2-2.1,1.7-4.2,4.5-5.8c0.2-0.1,0.3-0.2,0.5-0.3c5.9-3.1,15.1-3.1,21,0
			c0.2,0.1,0.4,0.2,0.5,0.3c2.8,1.6,4.3,3.7,4.5,5.8C330.1,334.5,328.6,336.6,325.8,338.2z"/>
		<path class="st0" d="M330.3,332.4c-0.2-2.1-1.7-4.2-4.5-5.8c-0.2-0.1-0.4-0.2-0.5-0.3c-5.9-3.1-15.1-3.1-21,0
			c-0.2,0.1-0.4,0.2-0.5,0.3c-2.8,1.6-4.3,3.7-4.5,5.8c-0.2-1.7,0.5-3.5,2-5c0.7-0.7,1.5-1.3,2.5-1.9c6.1-3.5,16-3.5,22.1,0
			c1,0.6,1.8,1.2,2.5,1.9C329.8,328.9,330.5,330.6,330.3,332.4z"/>
		<polygon class="st9" points="452.7,464.3 417.4,456.4 426.7,451 428,450.3 435.2,446 436.4,445.3 447,439.2 450.1,453.1 
			450.5,454.8 451.4,458.4 451.4,458.7 		"/>
	</g>
</g>
</svg>
